<svg xmlns="http://www.w3.org/2000/svg">
<defs>
<font id="SSF4ABUKET" horiz-adv-x="512" >
  <font-face 
    font-family="SSF4 ABUKET"
    font-weight="400"
    font-stretch="normal"
    units-per-em="750"
    panose-1="2 11 6 3 5 3 2 2 2 4"
    ascent="600"
    descent="-150"
    x-height="542"
    cap-height="787.001"
    bbox="-742.998 -686.185 902.84 1106"
    underline-thickness="0"
    underline-position="0"
    unicode-range="U+0008-U+2044"
  />
<missing-glyph horiz-adv-x="750" 
d="M103 -37c-0.666992 -8 -4.83301 -13.3311 -12.5 -15.998l-11.5 -4c12.667 4.66699 17.167 9.83398 13.5 15.501l-5.5 8.5c-10 8 -26.667 11.667 -50 11l-35 -1c-26 6.66699 -42.167 22.334 -48.5 47.001l-9.5 37c-8.66699 -2 -17.667 3.16699 -27 15.5l-14 18.5
c3.33301 -6 9.16602 -7.66699 17.499 -5l12.5 4c-8 0 -13.667 5.5 -17 16.5l-5 16.5c2.66699 -8.66699 9.83398 -12.334 21.501 -11.001l17.5 2c2 6 0 12.167 -6 18.5l-9 9.5c10 -5.33301 18.167 -6.33301 24.5 -3l9.5 5c17.333 27.333 21.333 54.833 12 82.5l-14 41.5
c10 42.667 16.333 91.667 19 147s3.66699 107.666 3 156.999s-2 91 -4 125l-3 51c-26 29.333 -36.167 47 -30.5 53l8.5 9c0 -6 1.5 -10.5 4.5 -13.5l4.5 -4.5c9.33301 2 17.333 -1 24 -9l10 -12c0 10 -4.16699 22 -12.5 36l-12.5 21l49 -48c-4.66699 12.667 -2.5 22 6.5 28
l13.5 9c5.33301 -26.667 19.666 -44 42.999 -52l35 -12c14 16.667 24.333 24.167 31 22.5l10 -2.5c-14 2.66699 -23.167 -2.33301 -27.5 -15l-6.5 -19l21 4c4.66699 -22.667 17.834 -33.834 39.501 -33.501l32.5 0.5c-10 -4 -13.167 -10.167 -9.5 -18.5l5.5 -12.5
c8.66699 4 16 2.66699 22 -4l9 -10c-9.33301 8 -15.666 9.66699 -18.999 5s-5.16602 -11.5 -5.49902 -20.5s0.166992 -17.833 1.5 -26.5l2 -13c1.33301 8 5.16602 11.833 11.499 11.5l9.5 -0.5c-11.333 -1.33301 -15.333 -6.66602 -12 -15.999s7.33301 -10 12 -2
c2.66699 -20 19.5 -52 50.5 -96s64.833 -88.5 101.5 -133.5l100 -118l45 -50.5l29 -4c-8 -26 -9.66699 -44.167 -5 -54.5l7 -15.5c-4 2 -4.33301 11.833 -1 29.5l5 26.5c0 -20.667 8.83301 -43.334 26.5 -68.001l26.5 -37l-4 -37c-8.66699 0 -10.834 -10 -6.50098 -30

<glyph glyph-name=".notdef" unicode="&#xa5;" horiz-adv-x="750" 
d="M103 -37c-0.666992 -8 -4.83301 -13.3311 -12.5 -15.998l-11.5 -4c12.667 4.66699 17.167 9.83398 13.5 15.501l-5.5 8.5c-10 8 -26.667 11.667 -50 11l-35 -1c-26 6.66699 -42.167 22.334 -48.5 47.001l-9.5 37c-8.66699 -2 -17.667 3.16699 -27 15.5l-14 18.5
c3.33301 -6 9.16602 -7.66699 17.499 -5l12.5 4c-8 0 -13.667 5.5 -17 16.5l-5 16.5c2.66699 -8.66699 9.83398 -12.334 21.501 -11.001l17.5 2c2 6 0 12.167 -6 18.5l-9 9.5c10 -5.33301 18.167 -6.33301 24.5 -3l9.5 5c17.333 27.333 21.333 54.833 12 82.5l-14 41.5
c10 42.667 16.333 91.667 19 147s3.66699 107.666 3 156.999s-2 91 -4 125l-3 51c-26 29.333 -36.167 47 -30.5 53l8.5 9c0 -6 1.5 -10.5 4.5 -13.5l4.5 -4.5c9.33301 2 17.333 -1 24 -9l10 -12c0 10 -4.16699 22 -12.5 36l-12.5 21l49 -48c-4.66699 12.667 -2.5 22 6.5 28
l13.5 9c5.33301 -26.667 19.666 -44 42.999 -52l35 -12c14 16.667 24.333 24.167 31 22.5l10 -2.5c-14 2.66699 -23.167 -2.33301 -27.5 -15l-6.5 -19l21 4c4.66699 -22.667 17.834 -33.834 39.501 -33.501l32.5 0.5c-10 -4 -13.167 -10.167 -9.5 -18.5l5.5 -12.5
c8.66699 4 16 2.66699 22 -4l9 -10c-9.33301 8 -15.666 9.66699 -18.999 5s-5.16602 -11.5 -5.49902 -20.5s0.166992 -17.833 1.5 -26.5l2 -13c1.33301 8 5.16602 11.833 11.499 11.5l9.5 -0.5c-11.333 -1.33301 -15.333 -6.66602 -12 -15.999s7.33301 -10 12 -2
c2.66699 -20 19.5 -52 50.5 -96s64.833 -88.5 101.5 -133.5l100 -118l45 -50.5l29 -4c-8 -26 -9.66699 -44.167 -5 -54.5l7 -15.5c-4 2 -4.33301 11.833 -1 29.5l5 26.5c0 -20.667 8.83301 -43.334 26.5 -68.001l26.5 -37l-4 -37c-8.66699 0 -10.834 -10 -6.50098 -30
l6.5 -30l-57 -8c-48 15.333 -84 41.833 -108 79.5l-36 56.5c6 -6 12 -7.33301 18 -4l9 5c-23.333 82.667 -51.833 135.667 -85.5 159l-50.5 35c18 -7.33301 35.167 -22.333 51.5 -45l24.5 -34c-42 21.333 -87.5 38.5 -136.5 51.5s-77.5 14.833 -85.5 5.5
c-14.667 -8 -23.5 -5.66699 -26.5 7s-2.83301 22 0.5 28c-40.667 -46.667 -62 -95.667 -64 -147l-3 -77c-5.33301 31.333 0.166992 66.166 16.5 104.499l24.5 57.5c-10 -22 -13.167 -47.167 -9.5 -75.5s7.83398 -53.5 12.501 -75.5c1.33301 -8 0.666016 -19 -2.00098 -33
s-3 -23.667 -1 -29c2 -6.66699 5.33301 -6.16699 10 1.5l7 11.5l-10 -57c-11.333 -2 -19 -9.66699 -23 -23zM135.001 418.002l-1 -10.999l16 5l6 -7c14.667 0 32 -3.5 52 -10.5s39 -14.833 57 -23.5s33.333 -16.334 46 -23.001l19 -10c-6.66699 14.667 -18 32.667 -34 54
s-32.333 41.833 -49 61.5l-44 51l-19 21.5c4 -24 -3.16699 -48 -21.5 -72z" />
    <glyph glyph-name=".notdef" unicode="&#xe01e;" horiz-adv-x="750" 
d="M103 -37c-0.666992 -8 -4.83301 -13.3311 -12.5 -15.998l-11.5 -4c12.667 4.66699 17.167 9.83398 13.5 15.501l-5.5 8.5c-10 8 -26.667 11.667 -50 11l-35 -1c-26 6.66699 -42.167 22.334 -48.5 47.001l-9.5 37c-8.66699 -2 -17.667 3.16699 -27 15.5l-14 18.5
c3.33301 -6 9.16602 -7.66699 17.499 -5l12.5 4c-8 0 -13.667 5.5 -17 16.5l-5 16.5c2.66699 -8.66699 9.83398 -12.334 21.501 -11.001l17.5 2c2 6 0 12.167 -6 18.5l-9 9.5c10 -5.33301 18.167 -6.33301 24.5 -3l9.5 5c17.333 27.333 21.333 54.833 12 82.5l-14 41.5
c10 42.667 16.333 91.667 19 147s3.66699 107.666 3 156.999s-2 91 -4 125l-3 51c-26 29.333 -36.167 47 -30.5 53l8.5 9c0 -6 1.5 -10.5 4.5 -13.5l4.5 -4.5c9.33301 2 17.333 -1 24 -9l10 -12c0 10 -4.16699 22 -12.5 36l-12.5 21l49 -48c-4.66699 12.667 -2.5 22 6.5 28
l13.5 9c5.33301 -26.667 19.666 -44 42.999 -52l35 -12c14 16.667 24.333 24.167 31 22.5l10 -2.5c-14 2.66699 -23.167 -2.33301 -27.5 -15l-6.5 -19l21 4c4.66699 -22.667 17.834 -33.834 39.501 -33.501l32.5 0.5c-10 -4 -13.167 -10.167 -9.5 -18.5l5.5 -12.5
c8.66699 4 16 2.66699 22 -4l9 -10c-9.33301 8 -15.666 9.66699 -18.999 5s-5.16602 -11.5 -5.49902 -20.5s0.166992 -17.833 1.5 -26.5l2 -13c1.33301 8 5.16602 11.833 11.499 11.5l9.5 -0.5c-11.333 -1.33301 -15.333 -6.66602 -12 -15.999s7.33301 -10 12 -2
c2.66699 -20 19.5 -52 50.5 -96s64.833 -88.5 101.5 -133.5l100 -118l45 -50.5l29 -4c-8 -26 -9.66699 -44.167 -5 -54.5l7 -15.5c-4 2 -4.33301 11.833 -1 29.5l5 26.5c0 -20.667 8.83301 -43.334 26.5 -68.001l26.5 -37l-4 -37c-8.66699 0 -10.834 -10 -6.50098 -30
l6.5 -30l-57 -8c-48 15.333 -84 41.833 -108 79.5l-36 56.5c6 -6 12 -7.33301 18 -4l9 5c-23.333 82.667 -51.833 135.667 -85.5 159l-50.5 35c18 -7.33301 35.167 -22.333 51.5 -45l24.5 -34c-42 21.333 -87.5 38.5 -136.5 51.5s-77.5 14.833 -85.5 5.5
c-14.667 -8 -23.5 -5.66699 -26.5 7s-2.83301 22 0.5 28c-40.667 -46.667 -62 -95.667 -64 -147l-3 -77c-5.33301 31.333 0.166992 66.166 16.5 104.499l24.5 57.5c-10 -22 -13.167 -47.167 -9.5 -75.5s7.83398 -53.5 12.501 -75.5c1.33301 -8 0.666016 -19 -2.00098 -33
s-3 -23.667 -1 -29c2 -6.66699 5.33301 -6.16699 10 1.5l7 11.5l-10 -57c-11.333 -2 -19 -9.66699 -23 -23zM135.001 418.002l-1 -10.999l16 5l6 -7c14.667 0 32 -3.5 52 -10.5s39 -14.833 57 -23.5s33.333 -16.334 46 -23.001l19 -10c-6.66699 14.667 -18 32.667 -34 54
s-32.333 41.833 -49 61.5l-44 51l-19 21.5c4 -24 -3.16699 -48 -21.5 -72z" />
    <glyph glyph-name=".notdef" unicode="&#x25ca;" horiz-adv-x="750" 
d="M103 -37c-0.666992 -8 -4.83301 -13.3311 -12.5 -15.998l-11.5 -4c12.667 4.66699 17.167 9.83398 13.5 15.501l-5.5 8.5c-10 8 -26.667 11.667 -50 11l-35 -1c-26 6.66699 -42.167 22.334 -48.5 47.001l-9.5 37c-8.66699 -2 -17.667 3.16699 -27 15.5l-14 18.5
c3.33301 -6 9.16602 -7.66699 17.499 -5l12.5 4c-8 0 -13.667 5.5 -17 16.5l-5 16.5c2.66699 -8.66699 9.83398 -12.334 21.501 -11.001l17.5 2c2 6 0 12.167 -6 18.5l-9 9.5c10 -5.33301 18.167 -6.33301 24.5 -3l9.5 5c17.333 27.333 21.333 54.833 12 82.5l-14 41.5
c10 42.667 16.333 91.667 19 147s3.66699 107.666 3 156.999s-2 91 -4 125l-3 51c-26 29.333 -36.167 47 -30.5 53l8.5 9c0 -6 1.5 -10.5 4.5 -13.5l4.5 -4.5c9.33301 2 17.333 -1 24 -9l10 -12c0 10 -4.16699 22 -12.5 36l-12.5 21l49 -48c-4.66699 12.667 -2.5 22 6.5 28
l13.5 9c5.33301 -26.667 19.666 -44 42.999 -52l35 -12c14 16.667 24.333 24.167 31 22.5l10 -2.5c-14 2.66699 -23.167 -2.33301 -27.5 -15l-6.5 -19l21 4c4.66699 -22.667 17.834 -33.834 39.501 -33.501l32.5 0.5c-10 -4 -13.167 -10.167 -9.5 -18.5l5.5 -12.5
c8.66699 4 16 2.66699 22 -4l9 -10c-9.33301 8 -15.666 9.66699 -18.999 5s-5.16602 -11.5 -5.49902 -20.5s0.166992 -17.833 1.5 -26.5l2 -13c1.33301 8 5.16602 11.833 11.499 11.5l9.5 -0.5c-11.333 -1.33301 -15.333 -6.66602 -12 -15.999s7.33301 -10 12 -2
c2.66699 -20 19.5 -52 50.5 -96s64.833 -88.5 101.5 -133.5l100 -118l45 -50.5l29 -4c-8 -26 -9.66699 -44.167 -5 -54.5l7 -15.5c-4 2 -4.33301 11.833 -1 29.5l5 26.5c0 -20.667 8.83301 -43.334 26.5 -68.001l26.5 -37l-4 -37c-8.66699 0 -10.834 -10 -6.50098 -30
l6.5 -30l-57 -8c-48 15.333 -84 41.833 -108 79.5l-36 56.5c6 -6 12 -7.33301 18 -4l9 5c-23.333 82.667 -51.833 135.667 -85.5 159l-50.5 35c18 -7.33301 35.167 -22.333 51.5 -45l24.5 -34c-42 21.333 -87.5 38.5 -136.5 51.5s-77.5 14.833 -85.5 5.5
c-14.667 -8 -23.5 -5.66699 -26.5 7s-2.83301 22 0.5 28c-40.667 -46.667 -62 -95.667 -64 -147l-3 -77c-5.33301 31.333 0.166992 66.166 16.5 104.499l24.5 57.5c-10 -22 -13.167 -47.167 -9.5 -75.5s7.83398 -53.5 12.501 -75.5c1.33301 -8 0.666016 -19 -2.00098 -33
s-3 -23.667 -1 -29c2 -6.66699 5.33301 -6.16699 10 1.5l7 11.5l-10 -57c-11.333 -2 -19 -9.66699 -23 -23zM135.001 418.002l-1 -10.999l16 5l6 -7c14.667 0 32 -3.5 52 -10.5s39 -14.833 57 -23.5s33.333 -16.334 46 -23.001l19 -10c-6.66699 14.667 -18 32.667 -34 54
s-32.333 41.833 -49 61.5l-44 51l-19 21.5c4 -24 -3.16699 -48 -21.5 -72z" />
    <glyph glyph-name=".notdef" unicode="&#x2260;" horiz-adv-x="750" 
d="M103 -37c-0.666992 -8 -4.83301 -13.3311 -12.5 -15.998l-11.5 -4c12.667 4.66699 17.167 9.83398 13.5 15.501l-5.5 8.5c-10 8 -26.667 11.667 -50 11l-35 -1c-26 6.66699 -42.167 22.334 -48.5 47.001l-9.5 37c-8.66699 -2 -17.667 3.16699 -27 15.5l-14 18.5
c3.33301 -6 9.16602 -7.66699 17.499 -5l12.5 4c-8 0 -13.667 5.5 -17 16.5l-5 16.5c2.66699 -8.66699 9.83398 -12.334 21.501 -11.001l17.5 2c2 6 0 12.167 -6 18.5l-9 9.5c10 -5.33301 18.167 -6.33301 24.5 -3l9.5 5c17.333 27.333 21.333 54.833 12 82.5l-14 41.5
c10 42.667 16.333 91.667 19 147s3.66699 107.666 3 156.999s-2 91 -4 125l-3 51c-26 29.333 -36.167 47 -30.5 53l8.5 9c0 -6 1.5 -10.5 4.5 -13.5l4.5 -4.5c9.33301 2 17.333 -1 24 -9l10 -12c0 10 -4.16699 22 -12.5 36l-12.5 21l49 -48c-4.66699 12.667 -2.5 22 6.5 28
l13.5 9c5.33301 -26.667 19.666 -44 42.999 -52l35 -12c14 16.667 24.333 24.167 31 22.5l10 -2.5c-14 2.66699 -23.167 -2.33301 -27.5 -15l-6.5 -19l21 4c4.66699 -22.667 17.834 -33.834 39.501 -33.501l32.5 0.5c-10 -4 -13.167 -10.167 -9.5 -18.5l5.5 -12.5
c8.66699 4 16 2.66699 22 -4l9 -10c-9.33301 8 -15.666 9.66699 -18.999 5s-5.16602 -11.5 -5.49902 -20.5s0.166992 -17.833 1.5 -26.5l2 -13c1.33301 8 5.16602 11.833 11.499 11.5l9.5 -0.5c-11.333 -1.33301 -15.333 -6.66602 -12 -15.999s7.33301 -10 12 -2
c2.66699 -20 19.5 -52 50.5 -96s64.833 -88.5 101.5 -133.5l100 -118l45 -50.5l29 -4c-8 -26 -9.66699 -44.167 -5 -54.5l7 -15.5c-4 2 -4.33301 11.833 -1 29.5l5 26.5c0 -20.667 8.83301 -43.334 26.5 -68.001l26.5 -37l-4 -37c-8.66699 0 -10.834 -10 -6.50098 -30
l6.5 -30l-57 -8c-48 15.333 -84 41.833 -108 79.5l-36 56.5c6 -6 12 -7.33301 18 -4l9 5c-23.333 82.667 -51.833 135.667 -85.5 159l-50.5 35c18 -7.33301 35.167 -22.333 51.5 -45l24.5 -34c-42 21.333 -87.5 38.5 -136.5 51.5s-77.5 14.833 -85.5 5.5
c-14.667 -8 -23.5 -5.66699 -26.5 7s-2.83301 22 0.5 28c-40.667 -46.667 -62 -95.667 -64 -147l-3 -77c-5.33301 31.333 0.166992 66.166 16.5 104.499l24.5 57.5c-10 -22 -13.167 -47.167 -9.5 -75.5s7.83398 -53.5 12.501 -75.5c1.33301 -8 0.666016 -19 -2.00098 -33
s-3 -23.667 -1 -29c2 -6.66699 5.33301 -6.16699 10 1.5l7 11.5l-10 -57c-11.333 -2 -19 -9.66699 -23 -23zM135.001 418.002l-1 -10.999l16 5l6 -7c14.667 0 32 -3.5 52 -10.5s39 -14.833 57 -23.5s33.333 -16.334 46 -23.001l19 -10c-6.66699 14.667 -18 32.667 -34 54
s-32.333 41.833 -49 61.5l-44 51l-19 21.5c4 -24 -3.16699 -48 -21.5 -72z" />
    <glyph glyph-name=".notdef" unicode="&#x2248;" horiz-adv-x="750" 
d="M103 -37c-0.666992 -8 -4.83301 -13.3311 -12.5 -15.998l-11.5 -4c12.667 4.66699 17.167 9.83398 13.5 15.501l-5.5 8.5c-10 8 -26.667 11.667 -50 11l-35 -1c-26 6.66699 -42.167 22.334 -48.5 47.001l-9.5 37c-8.66699 -2 -17.667 3.16699 -27 15.5l-14 18.5
c3.33301 -6 9.16602 -7.66699 17.499 -5l12.5 4c-8 0 -13.667 5.5 -17 16.5l-5 16.5c2.66699 -8.66699 9.83398 -12.334 21.501 -11.001l17.5 2c2 6 0 12.167 -6 18.5l-9 9.5c10 -5.33301 18.167 -6.33301 24.5 -3l9.5 5c17.333 27.333 21.333 54.833 12 82.5l-14 41.5
c10 42.667 16.333 91.667 19 147s3.66699 107.666 3 156.999s-2 91 -4 125l-3 51c-26 29.333 -36.167 47 -30.5 53l8.5 9c0 -6 1.5 -10.5 4.5 -13.5l4.5 -4.5c9.33301 2 17.333 -1 24 -9l10 -12c0 10 -4.16699 22 -12.5 36l-12.5 21l49 -48c-4.66699 12.667 -2.5 22 6.5 28
l13.5 9c5.33301 -26.667 19.666 -44 42.999 -52l35 -12c14 16.667 24.333 24.167 31 22.5l10 -2.5c-14 2.66699 -23.167 -2.33301 -27.5 -15l-6.5 -19l21 4c4.66699 -22.667 17.834 -33.834 39.501 -33.501l32.5 0.5c-10 -4 -13.167 -10.167 -9.5 -18.5l5.5 -12.5
c8.66699 4 16 2.66699 22 -4l9 -10c-9.33301 8 -15.666 9.66699 -18.999 5s-5.16602 -11.5 -5.49902 -20.5s0.166992 -17.833 1.5 -26.5l2 -13c1.33301 8 5.16602 11.833 11.499 11.5l9.5 -0.5c-11.333 -1.33301 -15.333 -6.66602 -12 -15.999s7.33301 -10 12 -2
c2.66699 -20 19.5 -52 50.5 -96s64.833 -88.5 101.5 -133.5l100 -118l45 -50.5l29 -4c-8 -26 -9.66699 -44.167 -5 -54.5l7 -15.5c-4 2 -4.33301 11.833 -1 29.5l5 26.5c0 -20.667 8.83301 -43.334 26.5 -68.001l26.5 -37l-4 -37c-8.66699 0 -10.834 -10 -6.50098 -30
l6.5 -30l-57 -8c-48 15.333 -84 41.833 -108 79.5l-36 56.5c6 -6 12 -7.33301 18 -4l9 5c-23.333 82.667 -51.833 135.667 -85.5 159l-50.5 35c18 -7.33301 35.167 -22.333 51.5 -45l24.5 -34c-42 21.333 -87.5 38.5 -136.5 51.5s-77.5 14.833 -85.5 5.5
c-14.667 -8 -23.5 -5.66699 -26.5 7s-2.83301 22 0.5 28c-40.667 -46.667 -62 -95.667 -64 -147l-3 -77c-5.33301 31.333 0.166992 66.166 16.5 104.499l24.5 57.5c-10 -22 -13.167 -47.167 -9.5 -75.5s7.83398 -53.5 12.501 -75.5c1.33301 -8 0.666016 -19 -2.00098 -33
s-3 -23.667 -1 -29c2 -6.66699 5.33301 -6.16699 10 1.5l7 11.5l-10 -57c-11.333 -2 -19 -9.66699 -23 -23zM135.001 418.002l-1 -10.999l16 5l6 -7c14.667 0 32 -3.5 52 -10.5s39 -14.833 57 -23.5s33.333 -16.334 46 -23.001l19 -10c-6.66699 14.667 -18 32.667 -34 54
s-32.333 41.833 -49 61.5l-44 51l-19 21.5c4 -24 -3.16699 -48 -21.5 -72z" />
    <glyph glyph-name=".notdef" unicode="&#x222b;" horiz-adv-x="750" 
d="M103 -37c-0.666992 -8 -4.83301 -13.3311 -12.5 -15.998l-11.5 -4c12.667 4.66699 17.167 9.83398 13.5 15.501l-5.5 8.5c-10 8 -26.667 11.667 -50 11l-35 -1c-26 6.66699 -42.167 22.334 -48.5 47.001l-9.5 37c-8.66699 -2 -17.667 3.16699 -27 15.5l-14 18.5
c3.33301 -6 9.16602 -7.66699 17.499 -5l12.5 4c-8 0 -13.667 5.5 -17 16.5l-5 16.5c2.66699 -8.66699 9.83398 -12.334 21.501 -11.001l17.5 2c2 6 0 12.167 -6 18.5l-9 9.5c10 -5.33301 18.167 -6.33301 24.5 -3l9.5 5c17.333 27.333 21.333 54.833 12 82.5l-14 41.5
c10 42.667 16.333 91.667 19 147s3.66699 107.666 3 156.999s-2 91 -4 125l-3 51c-26 29.333 -36.167 47 -30.5 53l8.5 9c0 -6 1.5 -10.5 4.5 -13.5l4.5 -4.5c9.33301 2 17.333 -1 24 -9l10 -12c0 10 -4.16699 22 -12.5 36l-12.5 21l49 -48c-4.66699 12.667 -2.5 22 6.5 28
l13.5 9c5.33301 -26.667 19.666 -44 42.999 -52l35 -12c14 16.667 24.333 24.167 31 22.5l10 -2.5c-14 2.66699 -23.167 -2.33301 -27.5 -15l-6.5 -19l21 4c4.66699 -22.667 17.834 -33.834 39.501 -33.501l32.5 0.5c-10 -4 -13.167 -10.167 -9.5 -18.5l5.5 -12.5
c8.66699 4 16 2.66699 22 -4l9 -10c-9.33301 8 -15.666 9.66699 -18.999 5s-5.16602 -11.5 -5.49902 -20.5s0.166992 -17.833 1.5 -26.5l2 -13c1.33301 8 5.16602 11.833 11.499 11.5l9.5 -0.5c-11.333 -1.33301 -15.333 -6.66602 -12 -15.999s7.33301 -10 12 -2
c2.66699 -20 19.5 -52 50.5 -96s64.833 -88.5 101.5 -133.5l100 -118l45 -50.5l29 -4c-8 -26 -9.66699 -44.167 -5 -54.5l7 -15.5c-4 2 -4.33301 11.833 -1 29.5l5 26.5c0 -20.667 8.83301 -43.334 26.5 -68.001l26.5 -37l-4 -37c-8.66699 0 -10.834 -10 -6.50098 -30
l6.5 -30l-57 -8c-48 15.333 -84 41.833 -108 79.5l-36 56.5c6 -6 12 -7.33301 18 -4l9 5c-23.333 82.667 -51.833 135.667 -85.5 159l-50.5 35c18 -7.33301 35.167 -22.333 51.5 -45l24.5 -34c-42 21.333 -87.5 38.5 -136.5 51.5s-77.5 14.833 -85.5 5.5
c-14.667 -8 -23.5 -5.66699 -26.5 7s-2.83301 22 0.5 28c-40.667 -46.667 -62 -95.667 -64 -147l-3 -77c-5.33301 31.333 0.166992 66.166 16.5 104.499l24.5 57.5c-10 -22 -13.167 -47.167 -9.5 -75.5s7.83398 -53.5 12.501 -75.5c1.33301 -8 0.666016 -19 -2.00098 -33
s-3 -23.667 -1 -29c2 -6.66699 5.33301 -6.16699 10 1.5l7 11.5l-10 -57c-11.333 -2 -19 -9.66699 -23 -23zM135.001 418.002l-1 -10.999l16 5l6 -7c14.667 0 32 -3.5 52 -10.5s39 -14.833 57 -23.5s33.333 -16.334 46 -23.001l19 -10c-6.66699 14.667 -18 32.667 -34 54
s-32.333 41.833 -49 61.5l-44 51l-19 21.5c4 -24 -3.16699 -48 -21.5 -72z" />
    <glyph glyph-name=".notdef" unicode="&#x221e;" horiz-adv-x="750" 
d="M103 -37c-0.666992 -8 -4.83301 -13.3311 -12.5 -15.998l-11.5 -4c12.667 4.66699 17.167 9.83398 13.5 15.501l-5.5 8.5c-10 8 -26.667 11.667 -50 11l-35 -1c-26 6.66699 -42.167 22.334 -48.5 47.001l-9.5 37c-8.66699 -2 -17.667 3.16699 -27 15.5l-14 18.5
c3.33301 -6 9.16602 -7.66699 17.499 -5l12.5 4c-8 0 -13.667 5.5 -17 16.5l-5 16.5c2.66699 -8.66699 9.83398 -12.334 21.501 -11.001l17.5 2c2 6 0 12.167 -6 18.5l-9 9.5c10 -5.33301 18.167 -6.33301 24.5 -3l9.5 5c17.333 27.333 21.333 54.833 12 82.5l-14 41.5
c10 42.667 16.333 91.667 19 147s3.66699 107.666 3 156.999s-2 91 -4 125l-3 51c-26 29.333 -36.167 47 -30.5 53l8.5 9c0 -6 1.5 -10.5 4.5 -13.5l4.5 -4.5c9.33301 2 17.333 -1 24 -9l10 -12c0 10 -4.16699 22 -12.5 36l-12.5 21l49 -48c-4.66699 12.667 -2.5 22 6.5 28
l13.5 9c5.33301 -26.667 19.666 -44 42.999 -52l35 -12c14 16.667 24.333 24.167 31 22.5l10 -2.5c-14 2.66699 -23.167 -2.33301 -27.5 -15l-6.5 -19l21 4c4.66699 -22.667 17.834 -33.834 39.501 -33.501l32.5 0.5c-10 -4 -13.167 -10.167 -9.5 -18.5l5.5 -12.5
c8.66699 4 16 2.66699 22 -4l9 -10c-9.33301 8 -15.666 9.66699 -18.999 5s-5.16602 -11.5 -5.49902 -20.5s0.166992 -17.833 1.5 -26.5l2 -13c1.33301 8 5.16602 11.833 11.499 11.5l9.5 -0.5c-11.333 -1.33301 -15.333 -6.66602 -12 -15.999s7.33301 -10 12 -2
c2.66699 -20 19.5 -52 50.5 -96s64.833 -88.5 101.5 -133.5l100 -118l45 -50.5l29 -4c-8 -26 -9.66699 -44.167 -5 -54.5l7 -15.5c-4 2 -4.33301 11.833 -1 29.5l5 26.5c0 -20.667 8.83301 -43.334 26.5 -68.001l26.5 -37l-4 -37c-8.66699 0 -10.834 -10 -6.50098 -30
l6.5 -30l-57 -8c-48 15.333 -84 41.833 -108 79.5l-36 56.5c6 -6 12 -7.33301 18 -4l9 5c-23.333 82.667 -51.833 135.667 -85.5 159l-50.5 35c18 -7.33301 35.167 -22.333 51.5 -45l24.5 -34c-42 21.333 -87.5 38.5 -136.5 51.5s-77.5 14.833 -85.5 5.5
c-14.667 -8 -23.5 -5.66699 -26.5 7s-2.83301 22 0.5 28c-40.667 -46.667 -62 -95.667 -64 -147l-3 -77c-5.33301 31.333 0.166992 66.166 16.5 104.499l24.5 57.5c-10 -22 -13.167 -47.167 -9.5 -75.5s7.83398 -53.5 12.501 -75.5c1.33301 -8 0.666016 -19 -2.00098 -33
s-3 -23.667 -1 -29c2 -6.66699 5.33301 -6.16699 10 1.5l7 11.5l-10 -57c-11.333 -2 -19 -9.66699 -23 -23zM135.001 418.002l-1 -10.999l16 5l6 -7c14.667 0 32 -3.5 52 -10.5s39 -14.833 57 -23.5s33.333 -16.334 46 -23.001l19 -10c-6.66699 14.667 -18 32.667 -34 54
s-32.333 41.833 -49 61.5l-44 51l-19 21.5c4 -24 -3.16699 -48 -21.5 -72z" />
    <glyph glyph-name=".notdef" unicode="&#x221a;" horiz-adv-x="750" 
d="M103 -37c-0.666992 -8 -4.83301 -13.3311 -12.5 -15.998l-11.5 -4c12.667 4.66699 17.167 9.83398 13.5 15.501l-5.5 8.5c-10 8 -26.667 11.667 -50 11l-35 -1c-26 6.66699 -42.167 22.334 -48.5 47.001l-9.5 37c-8.66699 -2 -17.667 3.16699 -27 15.5l-14 18.5
c3.33301 -6 9.16602 -7.66699 17.499 -5l12.5 4c-8 0 -13.667 5.5 -17 16.5l-5 16.5c2.66699 -8.66699 9.83398 -12.334 21.501 -11.001l17.5 2c2 6 0 12.167 -6 18.5l-9 9.5c10 -5.33301 18.167 -6.33301 24.5 -3l9.5 5c17.333 27.333 21.333 54.833 12 82.5l-14 41.5
c10 42.667 16.333 91.667 19 147s3.66699 107.666 3 156.999s-2 91 -4 125l-3 51c-26 29.333 -36.167 47 -30.5 53l8.5 9c0 -6 1.5 -10.5 4.5 -13.5l4.5 -4.5c9.33301 2 17.333 -1 24 -9l10 -12c0 10 -4.16699 22 -12.5 36l-12.5 21l49 -48c-4.66699 12.667 -2.5 22 6.5 28
l13.5 9c5.33301 -26.667 19.666 -44 42.999 -52l35 -12c14 16.667 24.333 24.167 31 22.5l10 -2.5c-14 2.66699 -23.167 -2.33301 -27.5 -15l-6.5 -19l21 4c4.66699 -22.667 17.834 -33.834 39.501 -33.501l32.5 0.5c-10 -4 -13.167 -10.167 -9.5 -18.5l5.5 -12.5
c8.66699 4 16 2.66699 22 -4l9 -10c-9.33301 8 -15.666 9.66699 -18.999 5s-5.16602 -11.5 -5.49902 -20.5s0.166992 -17.833 1.5 -26.5l2 -13c1.33301 8 5.16602 11.833 11.499 11.5l9.5 -0.5c-11.333 -1.33301 -15.333 -6.66602 -12 -15.999s7.33301 -10 12 -2
c2.66699 -20 19.5 -52 50.5 -96s64.833 -88.5 101.5 -133.5l100 -118l45 -50.5l29 -4c-8 -26 -9.66699 -44.167 -5 -54.5l7 -15.5c-4 2 -4.33301 11.833 -1 29.5l5 26.5c0 -20.667 8.83301 -43.334 26.5 -68.001l26.5 -37l-4 -37c-8.66699 0 -10.834 -10 -6.50098 -30
l6.5 -30l-57 -8c-48 15.333 -84 41.833 -108 79.5l-36 56.5c6 -6 12 -7.33301 18 -4l9 5c-23.333 82.667 -51.833 135.667 -85.5 159l-50.5 35c18 -7.33301 35.167 -22.333 51.5 -45l24.5 -34c-42 21.333 -87.5 38.5 -136.5 51.5s-77.5 14.833 -85.5 5.5
c-14.667 -8 -23.5 -5.66699 -26.5 7s-2.83301 22 0.5 28c-40.667 -46.667 -62 -95.667 -64 -147l-3 -77c-5.33301 31.333 0.166992 66.166 16.5 104.499l24.5 57.5c-10 -22 -13.167 -47.167 -9.5 -75.5s7.83398 -53.5 12.501 -75.5c1.33301 -8 0.666016 -19 -2.00098 -33
s-3 -23.667 -1 -29c2 -6.66699 5.33301 -6.16699 10 1.5l7 11.5l-10 -57c-11.333 -2 -19 -9.66699 -23 -23zM135.001 418.002l-1 -10.999l16 5l6 -7c14.667 0 32 -3.5 52 -10.5s39 -14.833 57 -23.5s33.333 -16.334 46 -23.001l19 -10c-6.66699 14.667 -18 32.667 -34 54
s-32.333 41.833 -49 61.5l-44 51l-19 21.5c4 -24 -3.16699 -48 -21.5 -72z" />
    <glyph glyph-name=".notdef" unicode="&#x2211;" horiz-adv-x="750" 
d="M103 -37c-0.666992 -8 -4.83301 -13.3311 -12.5 -15.998l-11.5 -4c12.667 4.66699 17.167 9.83398 13.5 15.501l-5.5 8.5c-10 8 -26.667 11.667 -50 11l-35 -1c-26 6.66699 -42.167 22.334 -48.5 47.001l-9.5 37c-8.66699 -2 -17.667 3.16699 -27 15.5l-14 18.5
c3.33301 -6 9.16602 -7.66699 17.499 -5l12.5 4c-8 0 -13.667 5.5 -17 16.5l-5 16.5c2.66699 -8.66699 9.83398 -12.334 21.501 -11.001l17.5 2c2 6 0 12.167 -6 18.5l-9 9.5c10 -5.33301 18.167 -6.33301 24.5 -3l9.5 5c17.333 27.333 21.333 54.833 12 82.5l-14 41.5
c10 42.667 16.333 91.667 19 147s3.66699 107.666 3 156.999s-2 91 -4 125l-3 51c-26 29.333 -36.167 47 -30.5 53l8.5 9c0 -6 1.5 -10.5 4.5 -13.5l4.5 -4.5c9.33301 2 17.333 -1 24 -9l10 -12c0 10 -4.16699 22 -12.5 36l-12.5 21l49 -48c-4.66699 12.667 -2.5 22 6.5 28
l13.5 9c5.33301 -26.667 19.666 -44 42.999 -52l35 -12c14 16.667 24.333 24.167 31 22.5l10 -2.5c-14 2.66699 -23.167 -2.33301 -27.5 -15l-6.5 -19l21 4c4.66699 -22.667 17.834 -33.834 39.501 -33.501l32.5 0.5c-10 -4 -13.167 -10.167 -9.5 -18.5l5.5 -12.5
c8.66699 4 16 2.66699 22 -4l9 -10c-9.33301 8 -15.666 9.66699 -18.999 5s-5.16602 -11.5 -5.49902 -20.5s0.166992 -17.833 1.5 -26.5l2 -13c1.33301 8 5.16602 11.833 11.499 11.5l9.5 -0.5c-11.333 -1.33301 -15.333 -6.66602 -12 -15.999s7.33301 -10 12 -2
c2.66699 -20 19.5 -52 50.5 -96s64.833 -88.5 101.5 -133.5l100 -118l45 -50.5l29 -4c-8 -26 -9.66699 -44.167 -5 -54.5l7 -15.5c-4 2 -4.33301 11.833 -1 29.5l5 26.5c0 -20.667 8.83301 -43.334 26.5 -68.001l26.5 -37l-4 -37c-8.66699 0 -10.834 -10 -6.50098 -30
l6.5 -30l-57 -8c-48 15.333 -84 41.833 -108 79.5l-36 56.5c6 -6 12 -7.33301 18 -4l9 5c-23.333 82.667 -51.833 135.667 -85.5 159l-50.5 35c18 -7.33301 35.167 -22.333 51.5 -45l24.5 -34c-42 21.333 -87.5 38.5 -136.5 51.5s-77.5 14.833 -85.5 5.5
c-14.667 -8 -23.5 -5.66699 -26.5 7s-2.83301 22 0.5 28c-40.667 -46.667 -62 -95.667 -64 -147l-3 -77c-5.33301 31.333 0.166992 66.166 16.5 104.499l24.5 57.5c-10 -22 -13.167 -47.167 -9.5 -75.5s7.83398 -53.5 12.501 -75.5c1.33301 -8 0.666016 -19 -2.00098 -33
s-3 -23.667 -1 -29c2 -6.66699 5.33301 -6.16699 10 1.5l7 11.5l-10 -57c-11.333 -2 -19 -9.66699 -23 -23zM135.001 418.002l-1 -10.999l16 5l6 -7c14.667 0 32 -3.5 52 -10.5s39 -14.833 57 -23.5s33.333 -16.334 46 -23.001l19 -10c-6.66699 14.667 -18 32.667 -34 54
s-32.333 41.833 -49 61.5l-44 51l-19 21.5c4 -24 -3.16699 -48 -21.5 -72z" />
    <glyph glyph-name=".notdef" unicode="&#x220f;" horiz-adv-x="750" 
d="M103 -37c-0.666992 -8 -4.83301 -13.3311 -12.5 -15.998l-11.5 -4c12.667 4.66699 17.167 9.83398 13.5 15.501l-5.5 8.5c-10 8 -26.667 11.667 -50 11l-35 -1c-26 6.66699 -42.167 22.334 -48.5 47.001l-9.5 37c-8.66699 -2 -17.667 3.16699 -27 15.5l-14 18.5
c3.33301 -6 9.16602 -7.66699 17.499 -5l12.5 4c-8 0 -13.667 5.5 -17 16.5l-5 16.5c2.66699 -8.66699 9.83398 -12.334 21.501 -11.001l17.5 2c2 6 0 12.167 -6 18.5l-9 9.5c10 -5.33301 18.167 -6.33301 24.5 -3l9.5 5c17.333 27.333 21.333 54.833 12 82.5l-14 41.5
c10 42.667 16.333 91.667 19 147s3.66699 107.666 3 156.999s-2 91 -4 125l-3 51c-26 29.333 -36.167 47 -30.5 53l8.5 9c0 -6 1.5 -10.5 4.5 -13.5l4.5 -4.5c9.33301 2 17.333 -1 24 -9l10 -12c0 10 -4.16699 22 -12.5 36l-12.5 21l49 -48c-4.66699 12.667 -2.5 22 6.5 28
l13.5 9c5.33301 -26.667 19.666 -44 42.999 -52l35 -12c14 16.667 24.333 24.167 31 22.5l10 -2.5c-14 2.66699 -23.167 -2.33301 -27.5 -15l-6.5 -19l21 4c4.66699 -22.667 17.834 -33.834 39.501 -33.501l32.5 0.5c-10 -4 -13.167 -10.167 -9.5 -18.5l5.5 -12.5
c8.66699 4 16 2.66699 22 -4l9 -10c-9.33301 8 -15.666 9.66699 -18.999 5s-5.16602 -11.5 -5.49902 -20.5s0.166992 -17.833 1.5 -26.5l2 -13c1.33301 8 5.16602 11.833 11.499 11.5l9.5 -0.5c-11.333 -1.33301 -15.333 -6.66602 -12 -15.999s7.33301 -10 12 -2
c2.66699 -20 19.5 -52 50.5 -96s64.833 -88.5 101.5 -133.5l100 -118l45 -50.5l29 -4c-8 -26 -9.66699 -44.167 -5 -54.5l7 -15.5c-4 2 -4.33301 11.833 -1 29.5l5 26.5c0 -20.667 8.83301 -43.334 26.5 -68.001l26.5 -37l-4 -37c-8.66699 0 -10.834 -10 -6.50098 -30
l6.5 -30l-57 -8c-48 15.333 -84 41.833 -108 79.5l-36 56.5c6 -6 12 -7.33301 18 -4l9 5c-23.333 82.667 -51.833 135.667 -85.5 159l-50.5 35c18 -7.33301 35.167 -22.333 51.5 -45l24.5 -34c-42 21.333 -87.5 38.5 -136.5 51.5s-77.5 14.833 -85.5 5.5
c-14.667 -8 -23.5 -5.66699 -26.5 7s-2.83301 22 0.5 28c-40.667 -46.667 -62 -95.667 -64 -147l-3 -77c-5.33301 31.333 0.166992 66.166 16.5 104.499l24.5 57.5c-10 -22 -13.167 -47.167 -9.5 -75.5s7.83398 -53.5 12.501 -75.5c1.33301 -8 0.666016 -19 -2.00098 -33
s-3 -23.667 -1 -29c2 -6.66699 5.33301 -6.16699 10 1.5l7 11.5l-10 -57c-11.333 -2 -19 -9.66699 -23 -23zM135.001 418.002l-1 -10.999l16 5l6 -7c14.667 0 32 -3.5 52 -10.5s39 -14.833 57 -23.5s33.333 -16.334 46 -23.001l19 -10c-6.66699 14.667 -18 32.667 -34 54
s-32.333 41.833 -49 61.5l-44 51l-19 21.5c4 -24 -3.16699 -48 -21.5 -72z" />
    <glyph glyph-name=".notdef" unicode="&#x2202;" horiz-adv-x="750" 
d="M103 -37c-0.666992 -8 -4.83301 -13.3311 -12.5 -15.998l-11.5 -4c12.667 4.66699 17.167 9.83398 13.5 15.501l-5.5 8.5c-10 8 -26.667 11.667 -50 11l-35 -1c-26 6.66699 -42.167 22.334 -48.5 47.001l-9.5 37c-8.66699 -2 -17.667 3.16699 -27 15.5l-14 18.5
c3.33301 -6 9.16602 -7.66699 17.499 -5l12.5 4c-8 0 -13.667 5.5 -17 16.5l-5 16.5c2.66699 -8.66699 9.83398 -12.334 21.501 -11.001l17.5 2c2 6 0 12.167 -6 18.5l-9 9.5c10 -5.33301 18.167 -6.33301 24.5 -3l9.5 5c17.333 27.333 21.333 54.833 12 82.5l-14 41.5
c10 42.667 16.333 91.667 19 147s3.66699 107.666 3 156.999s-2 91 -4 125l-3 51c-26 29.333 -36.167 47 -30.5 53l8.5 9c0 -6 1.5 -10.5 4.5 -13.5l4.5 -4.5c9.33301 2 17.333 -1 24 -9l10 -12c0 10 -4.16699 22 -12.5 36l-12.5 21l49 -48c-4.66699 12.667 -2.5 22 6.5 28
l13.5 9c5.33301 -26.667 19.666 -44 42.999 -52l35 -12c14 16.667 24.333 24.167 31 22.5l10 -2.5c-14 2.66699 -23.167 -2.33301 -27.5 -15l-6.5 -19l21 4c4.66699 -22.667 17.834 -33.834 39.501 -33.501l32.5 0.5c-10 -4 -13.167 -10.167 -9.5 -18.5l5.5 -12.5
c8.66699 4 16 2.66699 22 -4l9 -10c-9.33301 8 -15.666 9.66699 -18.999 5s-5.16602 -11.5 -5.49902 -20.5s0.166992 -17.833 1.5 -26.5l2 -13c1.33301 8 5.16602 11.833 11.499 11.5l9.5 -0.5c-11.333 -1.33301 -15.333 -6.66602 -12 -15.999s7.33301 -10 12 -2
c2.66699 -20 19.5 -52 50.5 -96s64.833 -88.5 101.5 -133.5l100 -118l45 -50.5l29 -4c-8 -26 -9.66699 -44.167 -5 -54.5l7 -15.5c-4 2 -4.33301 11.833 -1 29.5l5 26.5c0 -20.667 8.83301 -43.334 26.5 -68.001l26.5 -37l-4 -37c-8.66699 0 -10.834 -10 -6.50098 -30
l6.5 -30l-57 -8c-48 15.333 -84 41.833 -108 79.5l-36 56.5c6 -6 12 -7.33301 18 -4l9 5c-23.333 82.667 -51.833 135.667 -85.5 159l-50.5 35c18 -7.33301 35.167 -22.333 51.5 -45l24.5 -34c-42 21.333 -87.5 38.5 -136.5 51.5s-77.5 14.833 -85.5 5.5
c-14.667 -8 -23.5 -5.66699 -26.5 7s-2.83301 22 0.5 28c-40.667 -46.667 -62 -95.667 -64 -147l-3 -77c-5.33301 31.333 0.166992 66.166 16.5 104.499l24.5 57.5c-10 -22 -13.167 -47.167 -9.5 -75.5s7.83398 -53.5 12.501 -75.5c1.33301 -8 0.666016 -19 -2.00098 -33
s-3 -23.667 -1 -29c2 -6.66699 5.33301 -6.16699 10 1.5l7 11.5l-10 -57c-11.333 -2 -19 -9.66699 -23 -23zM135.001 418.002l-1 -10.999l16 5l6 -7c14.667 0 32 -3.5 52 -10.5s39 -14.833 57 -23.5s33.333 -16.334 46 -23.001l19 -10c-6.66699 14.667 -18 32.667 -34 54
s-32.333 41.833 -49 61.5l-44 51l-19 21.5c4 -24 -3.16699 -48 -21.5 -72z" />
    <glyph glyph-name=".notdef" unicode="&#x2122;" horiz-adv-x="750" 
d="M103 -37c-0.666992 -8 -4.83301 -13.3311 -12.5 -15.998l-11.5 -4c12.667 4.66699 17.167 9.83398 13.5 15.501l-5.5 8.5c-10 8 -26.667 11.667 -50 11l-35 -1c-26 6.66699 -42.167 22.334 -48.5 47.001l-9.5 37c-8.66699 -2 -17.667 3.16699 -27 15.5l-14 18.5
c3.33301 -6 9.16602 -7.66699 17.499 -5l12.5 4c-8 0 -13.667 5.5 -17 16.5l-5 16.5c2.66699 -8.66699 9.83398 -12.334 21.501 -11.001l17.5 2c2 6 0 12.167 -6 18.5l-9 9.5c10 -5.33301 18.167 -6.33301 24.5 -3l9.5 5c17.333 27.333 21.333 54.833 12 82.5l-14 41.5
c10 42.667 16.333 91.667 19 147s3.66699 107.666 3 156.999s-2 91 -4 125l-3 51c-26 29.333 -36.167 47 -30.5 53l8.5 9c0 -6 1.5 -10.5 4.5 -13.5l4.5 -4.5c9.33301 2 17.333 -1 24 -9l10 -12c0 10 -4.16699 22 -12.5 36l-12.5 21l49 -48c-4.66699 12.667 -2.5 22 6.5 28
l13.5 9c5.33301 -26.667 19.666 -44 42.999 -52l35 -12c14 16.667 24.333 24.167 31 22.5l10 -2.5c-14 2.66699 -23.167 -2.33301 -27.5 -15l-6.5 -19l21 4c4.66699 -22.667 17.834 -33.834 39.501 -33.501l32.5 0.5c-10 -4 -13.167 -10.167 -9.5 -18.5l5.5 -12.5
c8.66699 4 16 2.66699 22 -4l9 -10c-9.33301 8 -15.666 9.66699 -18.999 5s-5.16602 -11.5 -5.49902 -20.5s0.166992 -17.833 1.5 -26.5l2 -13c1.33301 8 5.16602 11.833 11.499 11.5l9.5 -0.5c-11.333 -1.33301 -15.333 -6.66602 -12 -15.999s7.33301 -10 12 -2
c2.66699 -20 19.5 -52 50.5 -96s64.833 -88.5 101.5 -133.5l100 -118l45 -50.5l29 -4c-8 -26 -9.66699 -44.167 -5 -54.5l7 -15.5c-4 2 -4.33301 11.833 -1 29.5l5 26.5c0 -20.667 8.83301 -43.334 26.5 -68.001l26.5 -37l-4 -37c-8.66699 0 -10.834 -10 -6.50098 -30
l6.5 -30l-57 -8c-48 15.333 -84 41.833 -108 79.5l-36 56.5c6 -6 12 -7.33301 18 -4l9 5c-23.333 82.667 -51.833 135.667 -85.5 159l-50.5 35c18 -7.33301 35.167 -22.333 51.5 -45l24.5 -34c-42 21.333 -87.5 38.5 -136.5 51.5s-77.5 14.833 -85.5 5.5
c-14.667 -8 -23.5 -5.66699 -26.5 7s-2.83301 22 0.5 28c-40.667 -46.667 -62 -95.667 -64 -147l-3 -77c-5.33301 31.333 0.166992 66.166 16.5 104.499l24.5 57.5c-10 -22 -13.167 -47.167 -9.5 -75.5s7.83398 -53.5 12.501 -75.5c1.33301 -8 0.666016 -19 -2.00098 -33
s-3 -23.667 -1 -29c2 -6.66699 5.33301 -6.16699 10 1.5l7 11.5l-10 -57c-11.333 -2 -19 -9.66699 -23 -23zM135.001 418.002l-1 -10.999l16 5l6 -7c14.667 0 32 -3.5 52 -10.5s39 -14.833 57 -23.5s33.333 -16.334 46 -23.001l19 -10c-6.66699 14.667 -18 32.667 -34 54
s-32.333 41.833 -49 61.5l-44 51l-19 21.5c4 -24 -3.16699 -48 -21.5 -72z" />
    <glyph glyph-name=".notdef" unicode="&#x20ac;" horiz-adv-x="750" 
d="M103 -37c-0.666992 -8 -4.83301 -13.3311 -12.5 -15.998l-11.5 -4c12.667 4.66699 17.167 9.83398 13.5 15.501l-5.5 8.5c-10 8 -26.667 11.667 -50 11l-35 -1c-26 6.66699 -42.167 22.334 -48.5 47.001l-9.5 37c-8.66699 -2 -17.667 3.16699 -27 15.5l-14 18.5
c3.33301 -6 9.16602 -7.66699 17.499 -5l12.5 4c-8 0 -13.667 5.5 -17 16.5l-5 16.5c2.66699 -8.66699 9.83398 -12.334 21.501 -11.001l17.5 2c2 6 0 12.167 -6 18.5l-9 9.5c10 -5.33301 18.167 -6.33301 24.5 -3l9.5 5c17.333 27.333 21.333 54.833 12 82.5l-14 41.5
c10 42.667 16.333 91.667 19 147s3.66699 107.666 3 156.999s-2 91 -4 125l-3 51c-26 29.333 -36.167 47 -30.5 53l8.5 9c0 -6 1.5 -10.5 4.5 -13.5l4.5 -4.5c9.33301 2 17.333 -1 24 -9l10 -12c0 10 -4.16699 22 -12.5 36l-12.5 21l49 -48c-4.66699 12.667 -2.5 22 6.5 28
l13.5 9c5.33301 -26.667 19.666 -44 42.999 -52l35 -12c14 16.667 24.333 24.167 31 22.5l10 -2.5c-14 2.66699 -23.167 -2.33301 -27.5 -15l-6.5 -19l21 4c4.66699 -22.667 17.834 -33.834 39.501 -33.501l32.5 0.5c-10 -4 -13.167 -10.167 -9.5 -18.5l5.5 -12.5
c8.66699 4 16 2.66699 22 -4l9 -10c-9.33301 8 -15.666 9.66699 -18.999 5s-5.16602 -11.5 -5.49902 -20.5s0.166992 -17.833 1.5 -26.5l2 -13c1.33301 8 5.16602 11.833 11.499 11.5l9.5 -0.5c-11.333 -1.33301 -15.333 -6.66602 -12 -15.999s7.33301 -10 12 -2
c2.66699 -20 19.5 -52 50.5 -96s64.833 -88.5 101.5 -133.5l100 -118l45 -50.5l29 -4c-8 -26 -9.66699 -44.167 -5 -54.5l7 -15.5c-4 2 -4.33301 11.833 -1 29.5l5 26.5c0 -20.667 8.83301 -43.334 26.5 -68.001l26.5 -37l-4 -37c-8.66699 0 -10.834 -10 -6.50098 -30
l6.5 -30l-57 -8c-48 15.333 -84 41.833 -108 79.5l-36 56.5c6 -6 12 -7.33301 18 -4l9 5c-23.333 82.667 -51.833 135.667 -85.5 159l-50.5 35c18 -7.33301 35.167 -22.333 51.5 -45l24.5 -34c-42 21.333 -87.5 38.5 -136.5 51.5s-77.5 14.833 -85.5 5.5
c-14.667 -8 -23.5 -5.66699 -26.5 7s-2.83301 22 0.5 28c-40.667 -46.667 -62 -95.667 -64 -147l-3 -77c-5.33301 31.333 0.166992 66.166 16.5 104.499l24.5 57.5c-10 -22 -13.167 -47.167 -9.5 -75.5s7.83398 -53.5 12.501 -75.5c1.33301 -8 0.666016 -19 -2.00098 -33
s-3 -23.667 -1 -29c2 -6.66699 5.33301 -6.16699 10 1.5l7 11.5l-10 -57c-11.333 -2 -19 -9.66699 -23 -23zM135.001 418.002l-1 -10.999l16 5l6 -7c14.667 0 32 -3.5 52 -10.5s39 -14.833 57 -23.5s33.333 -16.334 46 -23.001l19 -10c-6.66699 14.667 -18 32.667 -34 54
s-32.333 41.833 -49 61.5l-44 51l-19 21.5c4 -24 -3.16699 -48 -21.5 -72z" />
    <glyph glyph-name=".notdef" unicode="&#x2030;" horiz-adv-x="750" 
d="M103 -37c-0.666992 -8 -4.83301 -13.3311 -12.5 -15.998l-11.5 -4c12.667 4.66699 17.167 9.83398 13.5 15.501l-5.5 8.5c-10 8 -26.667 11.667 -50 11l-35 -1c-26 6.66699 -42.167 22.334 -48.5 47.001l-9.5 37c-8.66699 -2 -17.667 3.16699 -27 15.5l-14 18.5
c3.33301 -6 9.16602 -7.66699 17.499 -5l12.5 4c-8 0 -13.667 5.5 -17 16.5l-5 16.5c2.66699 -8.66699 9.83398 -12.334 21.501 -11.001l17.5 2c2 6 0 12.167 -6 18.5l-9 9.5c10 -5.33301 18.167 -6.33301 24.5 -3l9.5 5c17.333 27.333 21.333 54.833 12 82.5l-14 41.5
c10 42.667 16.333 91.667 19 147s3.66699 107.666 3 156.999s-2 91 -4 125l-3 51c-26 29.333 -36.167 47 -30.5 53l8.5 9c0 -6 1.5 -10.5 4.5 -13.5l4.5 -4.5c9.33301 2 17.333 -1 24 -9l10 -12c0 10 -4.16699 22 -12.5 36l-12.5 21l49 -48c-4.66699 12.667 -2.5 22 6.5 28
l13.5 9c5.33301 -26.667 19.666 -44 42.999 -52l35 -12c14 16.667 24.333 24.167 31 22.5l10 -2.5c-14 2.66699 -23.167 -2.33301 -27.5 -15l-6.5 -19l21 4c4.66699 -22.667 17.834 -33.834 39.501 -33.501l32.5 0.5c-10 -4 -13.167 -10.167 -9.5 -18.5l5.5 -12.5
c8.66699 4 16 2.66699 22 -4l9 -10c-9.33301 8 -15.666 9.66699 -18.999 5s-5.16602 -11.5 -5.49902 -20.5s0.166992 -17.833 1.5 -26.5l2 -13c1.33301 8 5.16602 11.833 11.499 11.5l9.5 -0.5c-11.333 -1.33301 -15.333 -6.66602 -12 -15.999s7.33301 -10 12 -2
c2.66699 -20 19.5 -52 50.5 -96s64.833 -88.5 101.5 -133.5l100 -118l45 -50.5l29 -4c-8 -26 -9.66699 -44.167 -5 -54.5l7 -15.5c-4 2 -4.33301 11.833 -1 29.5l5 26.5c0 -20.667 8.83301 -43.334 26.5 -68.001l26.5 -37l-4 -37c-8.66699 0 -10.834 -10 -6.50098 -30
l6.5 -30l-57 -8c-48 15.333 -84 41.833 -108 79.5l-36 56.5c6 -6 12 -7.33301 18 -4l9 5c-23.333 82.667 -51.833 135.667 -85.5 159l-50.5 35c18 -7.33301 35.167 -22.333 51.5 -45l24.5 -34c-42 21.333 -87.5 38.5 -136.5 51.5s-77.5 14.833 -85.5 5.5
c-14.667 -8 -23.5 -5.66699 -26.5 7s-2.83301 22 0.5 28c-40.667 -46.667 -62 -95.667 -64 -147l-3 -77c-5.33301 31.333 0.166992 66.166 16.5 104.499l24.5 57.5c-10 -22 -13.167 -47.167 -9.5 -75.5s7.83398 -53.5 12.501 -75.5c1.33301 -8 0.666016 -19 -2.00098 -33
s-3 -23.667 -1 -29c2 -6.66699 5.33301 -6.16699 10 1.5l7 11.5l-10 -57c-11.333 -2 -19 -9.66699 -23 -23zM135.001 418.002l-1 -10.999l16 5l6 -7c14.667 0 32 -3.5 52 -10.5s39 -14.833 57 -23.5s33.333 -16.334 46 -23.001l19 -10c-6.66699 14.667 -18 32.667 -34 54
s-32.333 41.833 -49 61.5l-44 51l-19 21.5c4 -24 -3.16699 -48 -21.5 -72z" />
    <glyph glyph-name=".notdef" unicode="&#x3c0;" horiz-adv-x="750" 
d="M103 -37c-0.666992 -8 -4.83301 -13.3311 -12.5 -15.998l-11.5 -4c12.667 4.66699 17.167 9.83398 13.5 15.501l-5.5 8.5c-10 8 -26.667 11.667 -50 11l-35 -1c-26 6.66699 -42.167 22.334 -48.5 47.001l-9.5 37c-8.66699 -2 -17.667 3.16699 -27 15.5l-14 18.5
c3.33301 -6 9.16602 -7.66699 17.499 -5l12.5 4c-8 0 -13.667 5.5 -17 16.5l-5 16.5c2.66699 -8.66699 9.83398 -12.334 21.501 -11.001l17.5 2c2 6 0 12.167 -6 18.5l-9 9.5c10 -5.33301 18.167 -6.33301 24.5 -3l9.5 5c17.333 27.333 21.333 54.833 12 82.5l-14 41.5
c10 42.667 16.333 91.667 19 147s3.66699 107.666 3 156.999s-2 91 -4 125l-3 51c-26 29.333 -36.167 47 -30.5 53l8.5 9c0 -6 1.5 -10.5 4.5 -13.5l4.5 -4.5c9.33301 2 17.333 -1 24 -9l10 -12c0 10 -4.16699 22 -12.5 36l-12.5 21l49 -48c-4.66699 12.667 -2.5 22 6.5 28
l13.5 9c5.33301 -26.667 19.666 -44 42.999 -52l35 -12c14 16.667 24.333 24.167 31 22.5l10 -2.5c-14 2.66699 -23.167 -2.33301 -27.5 -15l-6.5 -19l21 4c4.66699 -22.667 17.834 -33.834 39.501 -33.501l32.5 0.5c-10 -4 -13.167 -10.167 -9.5 -18.5l5.5 -12.5
c8.66699 4 16 2.66699 22 -4l9 -10c-9.33301 8 -15.666 9.66699 -18.999 5s-5.16602 -11.5 -5.49902 -20.5s0.166992 -17.833 1.5 -26.5l2 -13c1.33301 8 5.16602 11.833 11.499 11.5l9.5 -0.5c-11.333 -1.33301 -15.333 -6.66602 -12 -15.999s7.33301 -10 12 -2
c2.66699 -20 19.5 -52 50.5 -96s64.833 -88.5 101.5 -133.5l100 -118l45 -50.5l29 -4c-8 -26 -9.66699 -44.167 -5 -54.5l7 -15.5c-4 2 -4.33301 11.833 -1 29.5l5 26.5c0 -20.667 8.83301 -43.334 26.5 -68.001l26.5 -37l-4 -37c-8.66699 0 -10.834 -10 -6.50098 -30
l6.5 -30l-57 -8c-48 15.333 -84 41.833 -108 79.5l-36 56.5c6 -6 12 -7.33301 18 -4l9 5c-23.333 82.667 -51.833 135.667 -85.5 159l-50.5 35c18 -7.33301 35.167 -22.333 51.5 -45l24.5 -34c-42 21.333 -87.5 38.5 -136.5 51.5s-77.5 14.833 -85.5 5.5
c-14.667 -8 -23.5 -5.66699 -26.5 7s-2.83301 22 0.5 28c-40.667 -46.667 -62 -95.667 -64 -147l-3 -77c-5.33301 31.333 0.166992 66.166 16.5 104.499l24.5 57.5c-10 -22 -13.167 -47.167 -9.5 -75.5s7.83398 -53.5 12.501 -75.5c1.33301 -8 0.666016 -19 -2.00098 -33
s-3 -23.667 -1 -29c2 -6.66699 5.33301 -6.16699 10 1.5l7 11.5l-10 -57c-11.333 -2 -19 -9.66699 -23 -23zM135.001 418.002l-1 -10.999l16 5l6 -7c14.667 0 32 -3.5 52 -10.5s39 -14.833 57 -23.5s33.333 -16.334 46 -23.001l19 -10c-6.66699 14.667 -18 32.667 -34 54
s-32.333 41.833 -49 61.5l-44 51l-19 21.5c4 -24 -3.16699 -48 -21.5 -72z" />
    <glyph glyph-name=".notdef" unicode="&#x3a9;" horiz-adv-x="750" 
d="M103 -37c-0.666992 -8 -4.83301 -13.3311 -12.5 -15.998l-11.5 -4c12.667 4.66699 17.167 9.83398 13.5 15.501l-5.5 8.5c-10 8 -26.667 11.667 -50 11l-35 -1c-26 6.66699 -42.167 22.334 -48.5 47.001l-9.5 37c-8.66699 -2 -17.667 3.16699 -27 15.5l-14 18.5
c3.33301 -6 9.16602 -7.66699 17.499 -5l12.5 4c-8 0 -13.667 5.5 -17 16.5l-5 16.5c2.66699 -8.66699 9.83398 -12.334 21.501 -11.001l17.5 2c2 6 0 12.167 -6 18.5l-9 9.5c10 -5.33301 18.167 -6.33301 24.5 -3l9.5 5c17.333 27.333 21.333 54.833 12 82.5l-14 41.5
c10 42.667 16.333 91.667 19 147s3.66699 107.666 3 156.999s-2 91 -4 125l-3 51c-26 29.333 -36.167 47 -30.5 53l8.5 9c0 -6 1.5 -10.5 4.5 -13.5l4.5 -4.5c9.33301 2 17.333 -1 24 -9l10 -12c0 10 -4.16699 22 -12.5 36l-12.5 21l49 -48c-4.66699 12.667 -2.5 22 6.5 28
l13.5 9c5.33301 -26.667 19.666 -44 42.999 -52l35 -12c14 16.667 24.333 24.167 31 22.5l10 -2.5c-14 2.66699 -23.167 -2.33301 -27.5 -15l-6.5 -19l21 4c4.66699 -22.667 17.834 -33.834 39.501 -33.501l32.5 0.5c-10 -4 -13.167 -10.167 -9.5 -18.5l5.5 -12.5
c8.66699 4 16 2.66699 22 -4l9 -10c-9.33301 8 -15.666 9.66699 -18.999 5s-5.16602 -11.5 -5.49902 -20.5s0.166992 -17.833 1.5 -26.5l2 -13c1.33301 8 5.16602 11.833 11.499 11.5l9.5 -0.5c-11.333 -1.33301 -15.333 -6.66602 -12 -15.999s7.33301 -10 12 -2
c2.66699 -20 19.5 -52 50.5 -96s64.833 -88.5 101.5 -133.5l100 -118l45 -50.5l29 -4c-8 -26 -9.66699 -44.167 -5 -54.5l7 -15.5c-4 2 -4.33301 11.833 -1 29.5l5 26.5c0 -20.667 8.83301 -43.334 26.5 -68.001l26.5 -37l-4 -37c-8.66699 0 -10.834 -10 -6.50098 -30
l6.5 -30l-57 -8c-48 15.333 -84 41.833 -108 79.5l-36 56.5c6 -6 12 -7.33301 18 -4l9 5c-23.333 82.667 -51.833 135.667 -85.5 159l-50.5 35c18 -7.33301 35.167 -22.333 51.5 -45l24.5 -34c-42 21.333 -87.5 38.5 -136.5 51.5s-77.5 14.833 -85.5 5.5
c-14.667 -8 -23.5 -5.66699 -26.5 7s-2.83301 22 0.5 28c-40.667 -46.667 -62 -95.667 -64 -147l-3 -77c-5.33301 31.333 0.166992 66.166 16.5 104.499l24.5 57.5c-10 -22 -13.167 -47.167 -9.5 -75.5s7.83398 -53.5 12.501 -75.5c1.33301 -8 0.666016 -19 -2.00098 -33
s-3 -23.667 -1 -29c2 -6.66699 5.33301 -6.16699 10 1.5l7 11.5l-10 -57c-11.333 -2 -19 -9.66699 -23 -23zM135.001 418.002l-1 -10.999l16 5l6 -7c14.667 0 32 -3.5 52 -10.5s39 -14.833 57 -23.5s33.333 -16.334 46 -23.001l19 -10c-6.66699 14.667 -18 32.667 -34 54
s-32.333 41.833 -49 61.5l-44 51l-19 21.5c4 -24 -3.16699 -48 -21.5 -72z" />
    <glyph glyph-name=".notdef" unicode="&#x394;" horiz-adv-x="750" 
d="M103 -37c-0.666992 -8 -4.83301 -13.3311 -12.5 -15.998l-11.5 -4c12.667 4.66699 17.167 9.83398 13.5 15.501l-5.5 8.5c-10 8 -26.667 11.667 -50 11l-35 -1c-26 6.66699 -42.167 22.334 -48.5 47.001l-9.5 37c-8.66699 -2 -17.667 3.16699 -27 15.5l-14 18.5
c3.33301 -6 9.16602 -7.66699 17.499 -5l12.5 4c-8 0 -13.667 5.5 -17 16.5l-5 16.5c2.66699 -8.66699 9.83398 -12.334 21.501 -11.001l17.5 2c2 6 0 12.167 -6 18.5l-9 9.5c10 -5.33301 18.167 -6.33301 24.5 -3l9.5 5c17.333 27.333 21.333 54.833 12 82.5l-14 41.5
c10 42.667 16.333 91.667 19 147s3.66699 107.666 3 156.999s-2 91 -4 125l-3 51c-26 29.333 -36.167 47 -30.5 53l8.5 9c0 -6 1.5 -10.5 4.5 -13.5l4.5 -4.5c9.33301 2 17.333 -1 24 -9l10 -12c0 10 -4.16699 22 -12.5 36l-12.5 21l49 -48c-4.66699 12.667 -2.5 22 6.5 28
l13.5 9c5.33301 -26.667 19.666 -44 42.999 -52l35 -12c14 16.667 24.333 24.167 31 22.5l10 -2.5c-14 2.66699 -23.167 -2.33301 -27.5 -15l-6.5 -19l21 4c4.66699 -22.667 17.834 -33.834 39.501 -33.501l32.5 0.5c-10 -4 -13.167 -10.167 -9.5 -18.5l5.5 -12.5
c8.66699 4 16 2.66699 22 -4l9 -10c-9.33301 8 -15.666 9.66699 -18.999 5s-5.16602 -11.5 -5.49902 -20.5s0.166992 -17.833 1.5 -26.5l2 -13c1.33301 8 5.16602 11.833 11.499 11.5l9.5 -0.5c-11.333 -1.33301 -15.333 -6.66602 -12 -15.999s7.33301 -10 12 -2
c2.66699 -20 19.5 -52 50.5 -96s64.833 -88.5 101.5 -133.5l100 -118l45 -50.5l29 -4c-8 -26 -9.66699 -44.167 -5 -54.5l7 -15.5c-4 2 -4.33301 11.833 -1 29.5l5 26.5c0 -20.667 8.83301 -43.334 26.5 -68.001l26.5 -37l-4 -37c-8.66699 0 -10.834 -10 -6.50098 -30
l6.5 -30l-57 -8c-48 15.333 -84 41.833 -108 79.5l-36 56.5c6 -6 12 -7.33301 18 -4l9 5c-23.333 82.667 -51.833 135.667 -85.5 159l-50.5 35c18 -7.33301 35.167 -22.333 51.5 -45l24.5 -34c-42 21.333 -87.5 38.5 -136.5 51.5s-77.5 14.833 -85.5 5.5
c-14.667 -8 -23.5 -5.66699 -26.5 7s-2.83301 22 0.5 28c-40.667 -46.667 -62 -95.667 -64 -147l-3 -77c-5.33301 31.333 0.166992 66.166 16.5 104.499l24.5 57.5c-10 -22 -13.167 -47.167 -9.5 -75.5s7.83398 -53.5 12.501 -75.5c1.33301 -8 0.666016 -19 -2.00098 -33
s-3 -23.667 -1 -29c2 -6.66699 5.33301 -6.16699 10 1.5l7 11.5l-10 -57c-11.333 -2 -19 -9.66699 -23 -23zM135.001 418.002l-1 -10.999l16 5l6 -7c14.667 0 32 -3.5 52 -10.5s39 -14.833 57 -23.5s33.333 -16.334 46 -23.001l19 -10c-6.66699 14.667 -18 32.667 -34 54
s-32.333 41.833 -49 61.5l-44 51l-19 21.5c4 -24 -3.16699 -48 -21.5 -72z" />
    <glyph glyph-name=".notdef" unicode="&#x192;" horiz-adv-x="750" 
d="M103 -37c-0.666992 -8 -4.83301 -13.3311 -12.5 -15.998l-11.5 -4c12.667 4.66699 17.167 9.83398 13.5 15.501l-5.5 8.5c-10 8 -26.667 11.667 -50 11l-35 -1c-26 6.66699 -42.167 22.334 -48.5 47.001l-9.5 37c-8.66699 -2 -17.667 3.16699 -27 15.5l-14 18.5
c3.33301 -6 9.16602 -7.66699 17.499 -5l12.5 4c-8 0 -13.667 5.5 -17 16.5l-5 16.5c2.66699 -8.66699 9.83398 -12.334 21.501 -11.001l17.5 2c2 6 0 12.167 -6 18.5l-9 9.5c10 -5.33301 18.167 -6.33301 24.5 -3l9.5 5c17.333 27.333 21.333 54.833 12 82.5l-14 41.5
c10 42.667 16.333 91.667 19 147s3.66699 107.666 3 156.999s-2 91 -4 125l-3 51c-26 29.333 -36.167 47 -30.5 53l8.5 9c0 -6 1.5 -10.5 4.5 -13.5l4.5 -4.5c9.33301 2 17.333 -1 24 -9l10 -12c0 10 -4.16699 22 -12.5 36l-12.5 21l49 -48c-4.66699 12.667 -2.5 22 6.5 28
l13.5 9c5.33301 -26.667 19.666 -44 42.999 -52l35 -12c14 16.667 24.333 24.167 31 22.5l10 -2.5c-14 2.66699 -23.167 -2.33301 -27.5 -15l-6.5 -19l21 4c4.66699 -22.667 17.834 -33.834 39.501 -33.501l32.5 0.5c-10 -4 -13.167 -10.167 -9.5 -18.5l5.5 -12.5
c8.66699 4 16 2.66699 22 -4l9 -10c-9.33301 8 -15.666 9.66699 -18.999 5s-5.16602 -11.5 -5.49902 -20.5s0.166992 -17.833 1.5 -26.5l2 -13c1.33301 8 5.16602 11.833 11.499 11.5l9.5 -0.5c-11.333 -1.33301 -15.333 -6.66602 -12 -15.999s7.33301 -10 12 -2
c2.66699 -20 19.5 -52 50.5 -96s64.833 -88.5 101.5 -133.5l100 -118l45 -50.5l29 -4c-8 -26 -9.66699 -44.167 -5 -54.5l7 -15.5c-4 2 -4.33301 11.833 -1 29.5l5 26.5c0 -20.667 8.83301 -43.334 26.5 -68.001l26.5 -37l-4 -37c-8.66699 0 -10.834 -10 -6.50098 -30
l6.5 -30l-57 -8c-48 15.333 -84 41.833 -108 79.5l-36 56.5c6 -6 12 -7.33301 18 -4l9 5c-23.333 82.667 -51.833 135.667 -85.5 159l-50.5 35c18 -7.33301 35.167 -22.333 51.5 -45l24.5 -34c-42 21.333 -87.5 38.5 -136.5 51.5s-77.5 14.833 -85.5 5.5
c-14.667 -8 -23.5 -5.66699 -26.5 7s-2.83301 22 0.5 28c-40.667 -46.667 -62 -95.667 -64 -147l-3 -77c-5.33301 31.333 0.166992 66.166 16.5 104.499l24.5 57.5c-10 -22 -13.167 -47.167 -9.5 -75.5s7.83398 -53.5 12.501 -75.5c1.33301 -8 0.666016 -19 -2.00098 -33
s-3 -23.667 -1 -29c2 -6.66699 5.33301 -6.16699 10 1.5l7 11.5l-10 -57c-11.333 -2 -19 -9.66699 -23 -23zM135.001 418.002l-1 -10.999l16 5l6 -7c14.667 0 32 -3.5 52 -10.5s39 -14.833 57 -23.5s33.333 -16.334 46 -23.001l19 -10c-6.66699 14.667 -18 32.667 -34 54
s-32.333 41.833 -49 61.5l-44 51l-19 21.5c4 -24 -3.16699 -48 -21.5 -72z" />
    <glyph glyph-name=".notdef" unicode="&#x178;" horiz-adv-x="750" 
d="M103 -37c-0.666992 -8 -4.83301 -13.3311 -12.5 -15.998l-11.5 -4c12.667 4.66699 17.167 9.83398 13.5 15.501l-5.5 8.5c-10 8 -26.667 11.667 -50 11l-35 -1c-26 6.66699 -42.167 22.334 -48.5 47.001l-9.5 37c-8.66699 -2 -17.667 3.16699 -27 15.5l-14 18.5
c3.33301 -6 9.16602 -7.66699 17.499 -5l12.5 4c-8 0 -13.667 5.5 -17 16.5l-5 16.5c2.66699 -8.66699 9.83398 -12.334 21.501 -11.001l17.5 2c2 6 0 12.167 -6 18.5l-9 9.5c10 -5.33301 18.167 -6.33301 24.5 -3l9.5 5c17.333 27.333 21.333 54.833 12 82.5l-14 41.5
c10 42.667 16.333 91.667 19 147s3.66699 107.666 3 156.999s-2 91 -4 125l-3 51c-26 29.333 -36.167 47 -30.5 53l8.5 9c0 -6 1.5 -10.5 4.5 -13.5l4.5 -4.5c9.33301 2 17.333 -1 24 -9l10 -12c0 10 -4.16699 22 -12.5 36l-12.5 21l49 -48c-4.66699 12.667 -2.5 22 6.5 28
l13.5 9c5.33301 -26.667 19.666 -44 42.999 -52l35 -12c14 16.667 24.333 24.167 31 22.5l10 -2.5c-14 2.66699 -23.167 -2.33301 -27.5 -15l-6.5 -19l21 4c4.66699 -22.667 17.834 -33.834 39.501 -33.501l32.5 0.5c-10 -4 -13.167 -10.167 -9.5 -18.5l5.5 -12.5
c8.66699 4 16 2.66699 22 -4l9 -10c-9.33301 8 -15.666 9.66699 -18.999 5s-5.16602 -11.5 -5.49902 -20.5s0.166992 -17.833 1.5 -26.5l2 -13c1.33301 8 5.16602 11.833 11.499 11.5l9.5 -0.5c-11.333 -1.33301 -15.333 -6.66602 -12 -15.999s7.33301 -10 12 -2
c2.66699 -20 19.5 -52 50.5 -96s64.833 -88.5 101.5 -133.5l100 -118l45 -50.5l29 -4c-8 -26 -9.66699 -44.167 -5 -54.5l7 -15.5c-4 2 -4.33301 11.833 -1 29.5l5 26.5c0 -20.667 8.83301 -43.334 26.5 -68.001l26.5 -37l-4 -37c-8.66699 0 -10.834 -10 -6.50098 -30
l6.5 -30l-57 -8c-48 15.333 -84 41.833 -108 79.5l-36 56.5c6 -6 12 -7.33301 18 -4l9 5c-23.333 82.667 -51.833 135.667 -85.5 159l-50.5 35c18 -7.33301 35.167 -22.333 51.5 -45l24.5 -34c-42 21.333 -87.5 38.5 -136.5 51.5s-77.5 14.833 -85.5 5.5
c-14.667 -8 -23.5 -5.66699 -26.5 7s-2.83301 22 0.5 28c-40.667 -46.667 -62 -95.667 -64 -147l-3 -77c-5.33301 31.333 0.166992 66.166 16.5 104.499l24.5 57.5c-10 -22 -13.167 -47.167 -9.5 -75.5s7.83398 -53.5 12.501 -75.5c1.33301 -8 0.666016 -19 -2.00098 -33
s-3 -23.667 -1 -29c2 -6.66699 5.33301 -6.16699 10 1.5l7 11.5l-10 -57c-11.333 -2 -19 -9.66699 -23 -23zM135.001 418.002l-1 -10.999l16 5l6 -7c14.667 0 32 -3.5 52 -10.5s39 -14.833 57 -23.5s33.333 -16.334 46 -23.001l19 -10c-6.66699 14.667 -18 32.667 -34 54
s-32.333 41.833 -49 61.5l-44 51l-19 21.5c4 -24 -3.16699 -48 -21.5 -72z" />
    <glyph glyph-name=".notdef" unicode="&#x131;" horiz-adv-x="750" 
d="M103 -37c-0.666992 -8 -4.83301 -13.3311 -12.5 -15.998l-11.5 -4c12.667 4.66699 17.167 9.83398 13.5 15.501l-5.5 8.5c-10 8 -26.667 11.667 -50 11l-35 -1c-26 6.66699 -42.167 22.334 -48.5 47.001l-9.5 37c-8.66699 -2 -17.667 3.16699 -27 15.5l-14 18.5
c3.33301 -6 9.16602 -7.66699 17.499 -5l12.5 4c-8 0 -13.667 5.5 -17 16.5l-5 16.5c2.66699 -8.66699 9.83398 -12.334 21.501 -11.001l17.5 2c2 6 0 12.167 -6 18.5l-9 9.5c10 -5.33301 18.167 -6.33301 24.5 -3l9.5 5c17.333 27.333 21.333 54.833 12 82.5l-14 41.5
c10 42.667 16.333 91.667 19 147s3.66699 107.666 3 156.999s-2 91 -4 125l-3 51c-26 29.333 -36.167 47 -30.5 53l8.5 9c0 -6 1.5 -10.5 4.5 -13.5l4.5 -4.5c9.33301 2 17.333 -1 24 -9l10 -12c0 10 -4.16699 22 -12.5 36l-12.5 21l49 -48c-4.66699 12.667 -2.5 22 6.5 28
l13.5 9c5.33301 -26.667 19.666 -44 42.999 -52l35 -12c14 16.667 24.333 24.167 31 22.5l10 -2.5c-14 2.66699 -23.167 -2.33301 -27.5 -15l-6.5 -19l21 4c4.66699 -22.667 17.834 -33.834 39.501 -33.501l32.5 0.5c-10 -4 -13.167 -10.167 -9.5 -18.5l5.5 -12.5
c8.66699 4 16 2.66699 22 -4l9 -10c-9.33301 8 -15.666 9.66699 -18.999 5s-5.16602 -11.5 -5.49902 -20.5s0.166992 -17.833 1.5 -26.5l2 -13c1.33301 8 5.16602 11.833 11.499 11.5l9.5 -0.5c-11.333 -1.33301 -15.333 -6.66602 -12 -15.999s7.33301 -10 12 -2
c2.66699 -20 19.5 -52 50.5 -96s64.833 -88.5 101.5 -133.5l100 -118l45 -50.5l29 -4c-8 -26 -9.66699 -44.167 -5 -54.5l7 -15.5c-4 2 -4.33301 11.833 -1 29.5l5 26.5c0 -20.667 8.83301 -43.334 26.5 -68.001l26.5 -37l-4 -37c-8.66699 0 -10.834 -10 -6.50098 -30
l6.5 -30l-57 -8c-48 15.333 -84 41.833 -108 79.5l-36 56.5c6 -6 12 -7.33301 18 -4l9 5c-23.333 82.667 -51.833 135.667 -85.5 159l-50.5 35c18 -7.33301 35.167 -22.333 51.5 -45l24.5 -34c-42 21.333 -87.5 38.5 -136.5 51.5s-77.5 14.833 -85.5 5.5
c-14.667 -8 -23.5 -5.66699 -26.5 7s-2.83301 22 0.5 28c-40.667 -46.667 -62 -95.667 -64 -147l-3 -77c-5.33301 31.333 0.166992 66.166 16.5 104.499l24.5 57.5c-10 -22 -13.167 -47.167 -9.5 -75.5s7.83398 -53.5 12.501 -75.5c1.33301 -8 0.666016 -19 -2.00098 -33
s-3 -23.667 -1 -29c2 -6.66699 5.33301 -6.16699 10 1.5l7 11.5l-10 -57c-11.333 -2 -19 -9.66699 -23 -23zM135.001 418.002l-1 -10.999l16 5l6 -7c14.667 0 32 -3.5 52 -10.5s39 -14.833 57 -23.5s33.333 -16.334 46 -23.001l19 -10c-6.66699 14.667 -18 32.667 -34 54
s-32.333 41.833 -49 61.5l-44 51l-19 21.5c4 -24 -3.16699 -48 -21.5 -72z" />
    <glyph glyph-name=".notdef" unicode="&#xff;" horiz-adv-x="750" 
d="M103 -37c-0.666992 -8 -4.83301 -13.3311 -12.5 -15.998l-11.5 -4c12.667 4.66699 17.167 9.83398 13.5 15.501l-5.5 8.5c-10 8 -26.667 11.667 -50 11l-35 -1c-26 6.66699 -42.167 22.334 -48.5 47.001l-9.5 37c-8.66699 -2 -17.667 3.16699 -27 15.5l-14 18.5
c3.33301 -6 9.16602 -7.66699 17.499 -5l12.5 4c-8 0 -13.667 5.5 -17 16.5l-5 16.5c2.66699 -8.66699 9.83398 -12.334 21.501 -11.001l17.5 2c2 6 0 12.167 -6 18.5l-9 9.5c10 -5.33301 18.167 -6.33301 24.5 -3l9.5 5c17.333 27.333 21.333 54.833 12 82.5l-14 41.5
c10 42.667 16.333 91.667 19 147s3.66699 107.666 3 156.999s-2 91 -4 125l-3 51c-26 29.333 -36.167 47 -30.5 53l8.5 9c0 -6 1.5 -10.5 4.5 -13.5l4.5 -4.5c9.33301 2 17.333 -1 24 -9l10 -12c0 10 -4.16699 22 -12.5 36l-12.5 21l49 -48c-4.66699 12.667 -2.5 22 6.5 28
l13.5 9c5.33301 -26.667 19.666 -44 42.999 -52l35 -12c14 16.667 24.333 24.167 31 22.5l10 -2.5c-14 2.66699 -23.167 -2.33301 -27.5 -15l-6.5 -19l21 4c4.66699 -22.667 17.834 -33.834 39.501 -33.501l32.5 0.5c-10 -4 -13.167 -10.167 -9.5 -18.5l5.5 -12.5
c8.66699 4 16 2.66699 22 -4l9 -10c-9.33301 8 -15.666 9.66699 -18.999 5s-5.16602 -11.5 -5.49902 -20.5s0.166992 -17.833 1.5 -26.5l2 -13c1.33301 8 5.16602 11.833 11.499 11.5l9.5 -0.5c-11.333 -1.33301 -15.333 -6.66602 -12 -15.999s7.33301 -10 12 -2
c2.66699 -20 19.5 -52 50.5 -96s64.833 -88.5 101.5 -133.5l100 -118l45 -50.5l29 -4c-8 -26 -9.66699 -44.167 -5 -54.5l7 -15.5c-4 2 -4.33301 11.833 -1 29.5l5 26.5c0 -20.667 8.83301 -43.334 26.5 -68.001l26.5 -37l-4 -37c-8.66699 0 -10.834 -10 -6.50098 -30
l6.5 -30l-57 -8c-48 15.333 -84 41.833 -108 79.5l-36 56.5c6 -6 12 -7.33301 18 -4l9 5c-23.333 82.667 -51.833 135.667 -85.5 159l-50.5 35c18 -7.33301 35.167 -22.333 51.5 -45l24.5 -34c-42 21.333 -87.5 38.5 -136.5 51.5s-77.5 14.833 -85.5 5.5
c-14.667 -8 -23.5 -5.66699 -26.5 7s-2.83301 22 0.5 28c-40.667 -46.667 -62 -95.667 -64 -147l-3 -77c-5.33301 31.333 0.166992 66.166 16.5 104.499l24.5 57.5c-10 -22 -13.167 -47.167 -9.5 -75.5s7.83398 -53.5 12.501 -75.5c1.33301 -8 0.666016 -19 -2.00098 -33
s-3 -23.667 -1 -29c2 -6.66699 5.33301 -6.16699 10 1.5l7 11.5l-10 -57c-11.333 -2 -19 -9.66699 -23 -23zM135.001 418.002l-1 -10.999l16 5l6 -7c14.667 0 32 -3.5 52 -10.5s39 -14.833 57 -23.5s33.333 -16.334 46 -23.001l19 -10c-6.66699 14.667 -18 32.667 -34 54
s-32.333 41.833 -49 61.5l-44 51l-19 21.5c4 -24 -3.16699 -48 -21.5 -72z" />
    <glyph glyph-name="uni001D" horiz-adv-x="0" 
 />
    <glyph glyph-name="uni001D" horiz-adv-x="0" 
 />
    <glyph glyph-name="uni001D" horiz-adv-x="0" 
 />
    <glyph glyph-name="space" unicode="&#x9;" horiz-adv-x="250" 
 />
    <glyph glyph-name="space" unicode=" " horiz-adv-x="250" 
 />
    <glyph glyph-name="uni00A0" unicode="&#xd;" horiz-adv-x="750" 
 />
    <glyph glyph-name="uni00A0" unicode="&#xa0;" horiz-adv-x="750" 
 />
    <glyph glyph-name="dollar" unicode="$" horiz-adv-x="454" 
d="M227 722l6.5 -9.49902c4.33301 -6.33301 17.166 -10.833 38.499 -13.5l16 -15c10.667 -10 19 -20 25 -30c-1.33301 -2 -15 2.33301 -41 13s-49 24 -69 40l25.5 -22c17 -14.667 30.167 -27 39.5 -37l-14.5 12.5c-9.66699 8.33301 -21.5 9.16602 -35.5 2.49902
c-16 -8.66699 -31.667 -14.834 -47 -18.501s-29.666 -1.83398 -42.999 5.49902l-30.5 -12.5c-20.333 -8.33301 -35.5 -17.5 -45.5 -27.5l-2.5 17c-1.66699 11.333 0.5 19 6.5 23l-24.5 -15c-16.333 -10 -22.166 -19 -17.499 -27l-1 19c-0.666992 12.667 2 20.334 8 23.001
l-9 2.5c-6 1.66699 -10 -1.16602 -12 -8.49902l-2.5 41.5c-1.66699 27.667 20.166 59.5 65.499 95.5l-2.5 -2c-1.66699 -1.33301 -3.5 -7 -5.5 -17c43.333 34 82.833 42.667 118.5 26s53.5 -38.667 53.5 -66zM99 63.001c-38 50.667 -64.168 103.83 -78.501 159.497
s-17.833 109.5 -10.5 161.5s25.333 99.667 54 143s67.334 78.333 116.001 105c-2.66699 -40.667 0.5 -88.667 9.5 -144s23.833 -109.666 44.5 -162.999s47.5 -101.666 80.5 -144.999s72.167 -73.333 117.5 -90c0.666992 -38 -16.666 -66.667 -51.999 -86
s-74.333 -33.166 -117 -41.499s-81.834 -12.833 -117.501 -13.5l-53.5 -1c16.667 4 27 15.167 31 33.5l6 27.5c-10 -8 -28.333 -13.667 -55 -17l-40 -5c25.333 2 42.5 15.167 51.5 39.5z" />
    <glyph glyph-name="percent" unicode="%" horiz-adv-x="504" 
d="M429 53c11.333 -25.333 3.66602 -52.5 -23.001 -81.5s-66.667 -36.5 -120 -22.5c6 -8.66699 10.167 -13.334 12.5 -14.001l3.5 -1c-56.667 14.667 -89.667 34.834 -99 60.501l-14 38.5c4.66699 -6 9.5 -6.83301 14.5 -2.5l7.5 6.5c-6.66699 0 -12.167 6 -16.5 18l-6.5 18
c-0.666992 -10 8.33301 -16.167 27 -18.5l28 -3.5c-7.33301 0 -12.333 5.83301 -15 17.5l-4 17.5c12.667 -5.33301 30 -7.66602 52 -6.99902l33 1c10 11.333 22.667 18.166 38 20.499s32 3.16602 50 2.49902c15.333 -1.33301 25.833 4 31.5 16l8.5 18
c-4.66699 -14 -12 -30.833 -22 -50.5l-15 -29.5c12.667 22.667 28.834 43.834 48.501 63.501s30.167 29.167 31.5 28.5c-1.33301 -12 -4.83301 -24.5 -10.5 -37.5l-8.5 -19.5c-18 -12 -27.833 -21.5 -29.5 -28.5zM50 607l-26.5 28.501c-17.667 19 -38.5 24.5 -62.5 16.5
l38 11.5c25.333 7.66699 44.666 9.16699 57.999 4.5l-16.5 23.5c-11 15.667 -24.833 22.167 -41.5 19.5l49 20c32.667 13.333 70.334 24.666 113.001 33.999s84 12 124 8s67.333 -23.667 82 -59c-35.333 -33.333 -59.5 -76.5 -72.5 -129.5s-18.333 -108 -16 -165
s10.333 -112.667 24 -167s29.5 -99.5 47.5 -135.5c-55.333 4.66699 -104.833 21.167 -148.5 49.5s-79.167 64.833 -106.5 109.5s-45.333 95.5 -54 152.5s-5.66699 116.5 9 178.5z" />
    <glyph glyph-name="parenleft" unicode="(" horiz-adv-x="378" 
d="M279 -163c-86 -96 -171.833 -142.834 -257.5 -140.501s-147.834 34.166 -186.501 95.499s-42.167 142 -10.5 242s122.167 200 271.5 300c8.66699 8 13.834 21.667 15.501 41s1.66699 39 0 59s-3.83398 37.667 -6.50098 53l-4 23c12.667 4 27.667 -0.166992 45 -12.5
l26 -18.5c15.333 -26.667 19.5 -58.667 12.5 -96l-10.5 -56c-22.667 -11.333 -47 -28.833 -73 -52.5s-50.167 -47.167 -72.5 -70.5s-41 -43.833 -56 -61.5l-22.5 -26.5c-26 -40 -39.833 -71.167 -41.5 -93.5s1.83301 -39 10.5 -50s18.667 -17.833 30 -20.5l17 -4
c22.667 -6 47.667 0.833008 75 20.5s52.833 42.334 76.5 68.001s43.5 49.834 59.5 72.501l24 34c22 24 43.667 34.167 65 30.5l32 -5.5c34.667 -16.667 53.667 -46.5 57 -89.5s-0.166992 -86.833 -10.5 -131.5s-22.666 -84.5 -36.999 -119.5l-21.5 -52.5
c12 18.667 13.833 33.667 5.5 45zM223 687.999l-9.99609 -34.002l23 34c8.66699 -19.333 11.167 -37.833 7.5 -55.5s-9.33398 -33 -17.001 -46s-15.5 -23.333 -23.5 -31l-12 -11.5c-38 -11.333 -66.5 -9.66602 -85.5 5.00098s-32 32.5 -39 53.5s-9.83301 40.333 -8.5 58
s3.66602 24.5 6.99902 20.5l18 -31c2 -4 2 -1.83301 0 6.5l-7 28.5c-2.66699 10.667 -4.83398 20.334 -6.50098 29.001s-0.833984 11.667 2.49902 9l22 -22l10 59l8 -21c4 -11.333 8.5 -15.5 13.5 -12.5s10 8.16699 15 15.5s9.33301 14.5 13 21.5s6.16699 9.5 7.5 7.5
l13 -29l31 15l-8.5 13c-5.66699 8.66699 -4.5 7 3.5 -5s13.833 -27.833 17.5 -47.5z" />
    <glyph glyph-name="parenright" unicode=")" horiz-adv-x="535" 
d="M-32 789c92.667 96 185.329 142.667 277.996 140s159.834 -34.667 201.501 -96s45.334 -142.166 11.001 -242.499s-132.166 -200.166 -293.499 -299.499c-10 -8 -16 -21.667 -18 -41s-2.16699 -39 -0.5 -59s4.16699 -37.667 7.5 -53l5 -23
c-14 -4.66699 -30.167 -0.833984 -48.5 11.499l-27.5 18.5c-17.333 26 -22.166 58 -14.499 96l11.5 57c24 10.667 50.167 27.667 78.5 51s54.833 46.666 79.5 69.999s45.167 44 61.5 62l24.5 27c28 40 42.833 71.333 44.5 94s-2.16602 39.5 -11.499 50.5
s-20.166 17.833 -32.499 20.5l-18.5 4c-25.333 6 -52.833 -0.833008 -82.5 -20.5s-57.334 -42.5 -83.001 -68.5s-47 -50.333 -64 -73l-25.5 -34c-23.333 -24 -46.333 -34.167 -69 -30.5l-34 5.5c-38 16 -58.667 45.667 -62 89s0.666992 87.5 12 132.5s24.666 85 39.999 120
l23 52.5c-13.333 -18.667 -15.5 -33.5 -6.5 -44.5zM27.9951 -63l10 33.999l-24 -34c-9.33301 19.333 -12.166 37.5 -8.49902 54.5s9.66699 32 18 45s16.833 23.5 25.5 31.5l13 12c40.667 10.667 71.167 8.66699 91.5 -6s34.333 -32.167 42 -52.5s10.834 -39.333 9.50098 -57
s-3.33301 -24.5 -6 -20.5l-20 31c-2.66699 4 -3 1.83301 -1 -6.5s4.5 -17.833 7.5 -28.5s5.33301 -20.167 7 -28.5s1.16699 -11.166 -1.5 -8.49902l-24 21l-11 -59l-9 22c-4.66699 11.333 -9.83398 15.5 -15.501 12.5s-11 -8.16699 -16 -15.5s-9.5 -14.5 -13.5 -21.5
s-6.33301 -9.5 -7 -7.5l-15 28l-32 -15l8 -12.5c5.33301 -8.33301 4 -6.83301 -4 4.5c-8.66699 12 -14.834 27.833 -18.501 47.5z" />
    <glyph glyph-name="comma" unicode="," horiz-adv-x="366" 
d="M49 320l37.502 0.00292969c25 0 54 -4.16699 87 -12.5s65.833 -23.166 98.5 -44.499s56.334 -53.666 71.001 -96.999l3 -32.5c2 -21.667 0.5 -47.834 -4.5 -78.501s-15.333 -62.834 -31 -96.501s-41.5 -62.834 -77.5 -87.501l-25 -9c-16.667 -6 -36 -15 -58 -27
s-43.833 -26.667 -65.5 -44s-37.5 -37.333 -47.5 -60c-0.666992 -4.66699 4.5 -2.83398 15.5 5.49902s26.167 34.166 45.5 77.499c22.667 21.333 18.667 24 -12 8s-68.834 -40 -114.501 -72s-89.834 -67 -132.501 -105s-65 -68.333 -67 -91l20.5 45.5
c13.667 30.333 32 67 55 110s49.5 87.5 79.5 133.5s61.667 85 95 117l21 31c14 20.667 10 36.667 -12 48l-22 9.5c-14.667 6.33301 -27.667 15.333 -39 27s-16.5 25.834 -15.5 42.501s16.833 35.667 47.5 57l23 12.5c15.333 8.33301 24 17.5 26 27.5
c6.66699 15.333 12.167 17.833 16.5 7.5s1.16602 -14.5 -9.50098 -12.5c6 -2 8.66699 -2.83301 8 -2.5s0.666016 0.5 3.99902 0.5c21.333 2 33.333 9.83301 36 23.5s0.833984 27.667 -5.49902 42s-15 26.666 -26 36.999s-19.5 13.5 -25.5 9.5z" />
    <glyph glyph-name="hyphen" unicode="-" 
d="M9 431l23 -7.99609c15.333 -5.33301 33.666 -10.833 54.999 -16.5s43 -10.334 65 -14.001s40 -3.83398 54 -0.500977l32 28c21.333 18.667 42 25 62 19l25.5 -13c17 -8.66699 35.167 -19.834 54.5 -33.501s36.333 -29 51 -46s20 -33.5 16 -49.5l20.5 -28.5
c13.667 -19 8.5 -32.5 -15.5 -40.5l-57 11c-38 7.33301 -67.333 7.66602 -88 0.999023l-35 -24c-23.333 -16 -50.333 -22.667 -81 -20l-20.5 2c-13.667 1.33301 -30.167 5.83301 -49.5 13.5s-39.5 19.667 -60.5 36s-38.5 39.5 -52.5 69.5c14 -14 33 -23.167 57 -27.5
s35.333 -6.16602 34 -5.49902c-8.66699 2.66699 -24.667 11.5 -48 26.5s-34.666 28.5 -33.999 40.5l22.5 -19c15 -12.667 28.833 -19 41.5 -19l-37.5 29.5c-25 19.667 -39.5 36.5 -43.5 50.5l-23.5 40.5c-15.667 27 -19.5 44.167 -11.5 51.5l16.5 -26.5
c11 -17.667 20.167 -26.834 27.5 -27.501z" />
    <glyph glyph-name="period" unicode="." horiz-adv-x="332" 
d="M148 9l-34.999 -49.001c4 11.333 7 19 9 23s-1.33301 11.333 -10 22c-4.66699 8.66699 -12.667 9.66699 -24 3l-17 -10c-29.333 10.667 -49 23.667 -59 39s-15.333 30 -16 44s1 26.167 5 36.5l6 15.5c12.667 16 17 27.167 13 33.5l-6 9.5c-34 20 -62 43.5 -84 70.5
s-39.5 52.5 -52.5 76.5s-22.167 44.333 -27.5 61l-8 25c8.66699 -19.333 26.5 -36.5 53.5 -51.5s52.5 -27 76.5 -36s41 -14.167 51 -15.5s2.33301 2.66699 -23 12c-17.333 12.667 -28.833 29.167 -34.5 49.5s-7.83398 28.5 -6.50098 24.5c14 -18 31.333 -32.167 52 -42.5
s40.834 -18 60.501 -23s36.667 -8 51 -9l21.5 -1.5c34 -13.333 61.833 -33.5 83.5 -60.5s39 -54.333 52 -82s22 -51.667 27 -72l7.5 -30.5c2 -44 -6 -80.167 -24 -108.5s-38 -51 -60 -68s-42.333 -28.833 -61 -35.5l-28 -10c14 6.66699 22.333 18.834 25 36.501
s2.66699 35.667 0 54s-6.33398 34.5 -11.001 48.5z" />
    <glyph glyph-name="zero" unicode="0" horiz-adv-x="510" 
d="M119 618l16.5039 16.9971c11 11.333 25 23.833 42 37.5s35.667 26.334 56 38.001s39.833 18.167 58.5 19.5l-4 20l9.5 1c6.33301 0.666992 4.16602 11.334 -6.50098 32.001l14 -10.5c9.33301 -7 15 -5.5 17 4.5l20 -13l0.5 12.5
c0.333008 8.33301 -2.16699 13.5 -7.5 15.5l51 -22l11 -15c7.33301 -10 15.166 -21.5 23.499 -34.5s15.833 -26.333 22.5 -40s9 -23.834 7 -30.501l-15.5 -30c-10.333 -20 -14.5 -33 -12.5 -39l28 -47l-0.5 23c-0.333008 15.333 -3.5 28 -9.5 38l9 -11
c6 -7.33301 9 -12.333 9 -15l1 14l7 -21c4.66699 -14 7 -22.333 7 -25l2.5 1.5c1.66699 1 3.5 5.16699 5.5 12.5c0.666992 6.66699 0.666992 8 0 4l-1 -6v-18c0 -12 1 -18.333 3 -19l3 14v-225l-4.5 -22.5c-3 -15 -7.16699 -32.5 -12.5 -52.5s-12.333 -40.5 -21 -61.5
s-19 -37.833 -31 -50.5l-12 -16.5c-8 -11 -18.5 -23.167 -31.5 -36.5s-27.667 -26.166 -44 -38.499s-32.5 -19.833 -48.5 -22.5l-21 -3.5c-14 -2.33301 -31.333 -1.33301 -52 3s-42.834 14.833 -66.501 31.5s-45.5 44 -65.5 82l-13 35
c-8.66699 23.333 -16.334 53.833 -23.001 91.5s-9.33398 79.834 -8.00098 126.501s12 93 32 139l1 -11.5c0.666992 -7.66699 3.66699 -6.5 9 3.5l19 51c12.667 34 23.334 53.667 32.001 59v5.5c0 3.66699 -6.33301 -0.5 -19 -12.5zM412.004 550.997
c-4 -1.33301 -5.33301 -5.00098 -4 -11.001c2 -6 5 -9 9 -9c4 1.33301 5 5.33301 3 12c-1.33301 6.66699 -4 9.33398 -8 8.00098zM172.004 173.996c4.66699 -18 15 -32.667 31 -44l24 -17c-20 8 -34.667 19.333 -44 34l-14 22c-1.33301 -8 1 -16 7 -24l9 -12
c25.333 -21.333 48.5 -31.5 69.5 -30.5s38.833 6.16699 53.5 15.5s26.167 19.833 34.5 31.5l12.5 17.5c26 52.667 42.667 101 50 145s10.333 81.833 9 113.5s-4.83301 56.5 -10.5 74.5l-8.5 27l-58 2l-16 16c-57.333 -4 -97.833 -26 -121.5 -66s-38.167 -83 -43.5 -129
s-5 -87.5 1 -124.5s11 -54.167 15 -51.5z" />
    <glyph glyph-name="one" unicode="1" horiz-adv-x="304" 
d="M36 127l14.001 74l117 547l-117 -547l117 547v0l-3 33l14 -11l5 -11h10l-4 17l12 -3l-5 8l10 -16l7 4l15 -16l-4 24c27.333 -16 45.166 -38.333 53.499 -67l12.5 -43c-4.66699 -4 -15.667 -39.833 -33 -107.5l-55 -220.5l-51.5 -217.5l-22.5 -98.5l-39 -23
c10 17.333 10.667 22.5 2 15.5l-13 -10.5c0 18 -2.66699 23 -8 15l-8 -12c0 16 -2.5 21.167 -7.5 15.5l-7.5 -8.5c9.33301 45.333 9.83301 75.333 1.5 90z" />
    <glyph glyph-name="two" unicode="2" horiz-adv-x="446" 
d="M23 766l11.0029 -11.5039c7.33301 -7.66699 12.333 -1.16699 15 19.5l8 -2l-1 29l25 -35l-1 18l14 -12v12l31 -30l21 1c14 0.666992 30.167 1.5 48.5 2.5s36.666 1.66699 54.999 2s31.833 -0.166992 40.5 -1.5l21.5 -2.5c14.333 -1.66699 30 -7.33398 47 -17.001
s32.333 -24.667 46 -45s19.834 -49.5 18.501 -87.5l-4 -31c-2.66699 -20.667 -19 -45.334 -49 -74.001l-28 -27.5c-18.667 -18.333 -39.5 -42.5 -62.5 -72.5s-44.667 -64.667 -65 -104s-31.833 -80.333 -34.5 -123l13 -1l-3 -12l15 -1l31 22c20.667 14.667 34 27 40 37
l-2 37l9 -6l-9 23l54.5 -25c36.333 -16.667 62.166 -57 77.499 -121l-15 30.5c-10 20.333 -17 30.5 -21 30.5l38 -81l-1 -84l-17 -31l-5 11l-1.5 -7.5c-1 -5 -2.83301 -7.5 -5.5 -7.5c-3.33301 0 -5.33301 1.83301 -6 5.5l-1 5.5l-3 -8l-17 20l-1.5 -9
c-1 -6 0.5 -10.333 4.5 -13l-7 8.5c-4.66699 5.66699 -6.33398 11.5 -5.00098 17.5l-3 -15l-18.5 22.5c-12.333 15 -18.833 25.167 -19.5 30.5l-205 -59l-14.5 -3.5c-9.66699 -2.33301 -20.5 2.16699 -32.5 13.5l-10.5 37.5c-7 25 -13.5 37.833 -19.5 38.5l3.5 20.5
c2.33301 13.667 5.33301 29.334 9 47.001s7.83398 34.834 12.501 51.501s9.33398 28 14.001 34l-13.5 -17c-9 -11.333 -13.167 -23 -12.5 -35c8 40.667 26.167 78.667 54.5 114s58.333 69.5 90 102.5s60.667 65.333 87 97s41.5 63.834 45.5 96.501l-19.5 20.5
c-13 13.667 -40.167 10.5 -81.5 -9.5l-41 -32l13 19l-26 -27l40 19l-81 -60l-26 -1c-17.333 -1.33301 -30.833 7.83398 -40.5 27.501s-17.334 42.334 -23.001 68.001s-9.33398 51.334 -11.001 77.001s-2.83398 44.167 -3.50098 55.5c10 1.33301 14.667 7.33301 14 18z" />
    <glyph glyph-name="three" unicode="3" horiz-adv-x="418" 
d="M8 696l9.00098 -7.50195c6 -5 7 10.5 3 46.5l11 -8c7.33301 -5.33301 8.33301 4.33398 3 29.001l10.5 -12c7 -8 9.5 -4.66699 7.5 10l26 -12l50 21.5c33.333 14.333 64 18.833 92 13.5l48.5 -18c32.333 -12 61.166 -41 86.499 -87l17.5 -67.5
c11.667 -45 1.5 -93.167 -30.5 -144.5l-24 -31c-16 -20.667 -37 -39.667 -63 -57l-7 -11l18.5 -2c12.333 -1.33301 26.666 -4.33301 42.999 -9s32.166 -11.667 47.499 -21s26 -22 32 -38l5 -16.5c3.33301 -11 4 -26.833 2 -47.5s-9 -45.334 -21 -74.001s-33.333 -61 -64 -97
l-21.5 -21c-14.333 -14 -26.166 -22.333 -35.499 -25l23.5 20.5c15.667 13.667 25.5 25.167 29.5 34.5l-7 -1l-46 -30.5c-30.667 -20.333 -55.667 -30.833 -75 -31.5l37 14.5c24.667 9.66699 48 23.834 70 42.501v5c-17.333 -14.667 -35.333 -26.5 -54 -35.5
s-39 -17.5 -61 -25.5l-5 -4v11l-15 1c-10 0.666992 -17.333 0 -22 -2l-3.5 -0.5c-2.33301 -0.333008 -3.5 1.5 -3.5 5.5l-2 20l-10.5 10c-7 6.66699 -13.167 9.66699 -18.5 9l34.5 -1c23 -0.666992 48.833 11 77.5 35l30.5 26.5c20.333 17.667 34.5 40.834 42.5 69.501
l9 27.5c6 18.333 0.666992 31.833 -16 40.5l-40 34c-26.667 22.667 -61 26 -103 10l-42 72l61 15c40.667 10 86 47 136 111l14.5 27c9.66699 18 12.5 34 8.5 48l-3.5 -12.5c-2.33301 -8.33301 -5.16602 -13.833 -8.49902 -16.5l4.5 39.5c3 26.333 -6.5 44.5 -28.5 54.5
l-27.5 7c-18.333 4.66699 -43.5 -2 -75.5 -20l-20.5 -12.5c-13.667 -8.33301 -25.167 -17.5 -34.5 -27.5l-28 -19c-18.667 -12.667 -31.667 -5.66699 -39 21z" />
    <glyph glyph-name="four" unicode="4" horiz-adv-x="528" 
d="M23 279l18.001 0.500977c12 0.333008 28 21.5 48 63.5l20 34.5l43.5 77c15.667 28.333 29.667 55.166 42 80.499s17.166 40.333 14.499 45l-0.5 2c-0.333008 1.33301 -3.16602 2 -8.49902 2l9.5 22.5c6.33301 15 8.5 25.833 6.5 32.5l7 -14l13.5 32.5
c9 21.667 6.5 26.5 -7.5 14.5l1 40l10.5 10c7 6.66699 -0.5 19.334 -22.5 38.001l6.5 -3c4.33301 -2 7.5 -2 9.5 0l0.5 8c0.333008 5.33301 -1.83398 10 -6.50098 14l26.5 -3.5c17.667 -2.33301 31.5 -6.83301 41.5 -13.5l29 -2l13 13l10 -17l20 -2l24 -16
c16 -10.667 30 -37.334 42 -80.001l-25 -328l8.5 -11c5.66699 -7.33301 15.5 -10 29.5 -8l28 -24.5c18.667 -16.333 27.667 -56.166 27 -119.499l-36 -20l-75 5l-6 -56l-2.5 14.5c-1.66699 9.66699 -3.5 13.5 -5.5 11.5l-17 -115l-6 -8l-2 11l-6 -2.5
c-4 -1.66699 -6 -4.5 -6 -8.5l-19 8v12c0 8 -3.66699 14 -11 18l-2 108l-7 7l-68.5 -7c-45.667 -4.66699 -93.5 -25 -143.5 -61l-63 61l5 29c3.33301 19.333 4.33301 31.666 3 36.999l-2.5 11.5c-1.66699 7.66699 -5.16699 11.167 -10.5 10.5zM176.001 273.001
c20 -2.66699 40.5 -3.83301 61.5 -3.5s42.833 1.5 65.5 3.5l-7 181z" />
    <glyph glyph-name="five" unicode="5" horiz-adv-x="473" 
d="M137 570l-26.998 13.0029l-40 105v29l5 -3.5c3.33301 -2.33301 5.33301 4.5 6 20.5l13 -29c8.66699 -19.333 13.667 -15.333 15 12l14 12l13.5 -12.5c9 -8.33301 19.5 -10.5 31.5 -6.5l204 67l17 -17l-4 -20l16 -4l-23 -15l12 -6l-13 -17l18 -2l-122 -64l19 -8l-70 -40
l-25 -112l8 50.5c5.33301 33.667 8 52.167 8 55.5l-7 1c-4.66699 0.666992 -7.66699 -7 -9 -23l-7.5 -42.5c-5 -28.333 -3.83301 -43.166 3.5 -44.499l-12 -48.5c-8 -32.333 -11 -48.833 -9 -49.5l9 -2l52.5 33c35 22 67.833 30 98.5 24
c44 -6.66699 74.833 -27.334 92.5 -62.001s26 -73 25 -115s-9.66699 -82.333 -26 -121s-35.833 -65 -58.5 -79l3 5.5c2 3.66699 2 7.5 0 11.5l-5 1l-14.5 -23.5c-9.66699 -15.667 -30.167 -29.167 -61.5 -40.5l2 2.5c1.33301 1.66699 1.66602 3.5 0.999023 5.5l-7 0.5
c-4.66699 0.333008 -8 -1.5 -10 -5.5s-5.33301 -6 -10 -6s-7.66699 1.33301 -9 4h5c3.33301 0 6 1.66699 8 5l19 17l-1 9l-4 1l-13.5 -11c-9 -7.33301 -16.167 -11 -21.5 -11l18.5 12c12.333 8 21.166 16.333 26.499 25v6l-10 -6c-0.666992 0 -12.834 -5.5 -36.501 -16.5
s-33.5 -18.5 -29.5 -22.5l-9 -7l1 1l-7 -3l-4 -4l-4 3l-4 -3l-10 -2l5 6l-14 -3l7 6l-19 -3l16 6l-37 2l34 4l32 18.5c21.333 12.333 36 22.166 44 29.499l26.5 21.5c17.667 14.333 28.167 25.5 31.5 33.5l15 17c10 11.333 13.333 21.666 10 30.999l-2.5 -6.5
c-1.66699 -4.33301 -6.16699 -8.83301 -13.5 -13.5l11.5 16.5c7.66699 11 10.834 25.167 9.50098 42.5l-0.5 30c-0.333008 20 -7.83301 33.667 -22.5 41l8.5 -4.5c5.66699 -3 10.167 -8.5 13.5 -16.5l-13 30.5c-8.66699 20.333 -38 26.5 -88 18.5l-12 -3.5
c-8 -2.33301 -11.667 -5.83301 -11 -10.5l1 -8l-36 -22c-24 -14.667 -42 -32.667 -54 -54l-3 -8h-27l-17 23.5c-11.333 15.667 -18 23.5 -20 23.5l-0.5 27.5c-0.333008 18.333 -7.83301 32.166 -22.5 41.499l16.5 27.5c11 18.333 23.167 40.833 36.5 67.5
s25.5 54.667 36.5 84s16.833 55 17.5 77z" />
    <glyph glyph-name="six" unicode="6" horiz-adv-x="489" 
d="M427 700l15.001 27.0049l-1.5 -17.5c-1 -11.667 4.5 -11.5 16.5 0.5l3 -26c2 -17.333 3.5 -38.833 4.5 -64.5s0.5 -53.334 -1.5 -83.001s-7.33301 -56.834 -16 -81.501l-5 4c-3.33301 2.66699 -7 -3.33301 -11 -18l-12.5 1.5c-8.33301 1 -12.5 -2.83301 -12.5 -11.5
c-3.33301 -2 -7.5 1 -12.5 9s-8.5 14.667 -10.5 20c4 -2 3.83301 6 -0.5 24s-9.83301 30 -16.5 36l5.5 -7c3.66699 -4.66699 7.5 -6 11.5 -4l-4.5 20.5c-3 13.667 -8.16699 28.5 -15.5 44.5s-17.666 30.667 -30.999 44s-30.333 19.666 -51 18.999l-20 -6
c-13.333 -4 -28.333 -12.333 -45 -25s-32.834 -31.167 -48.501 -55.5s-26.167 -56.5 -31.5 -96.5v-39l9 13l-5.5 -11.5c-3.66699 -7.66699 -3.83398 -11.834 -0.500977 -12.501l8 -3l19.5 15c13 10 24.167 16.667 33.5 20l7 9l-0.5 -2.5
c-0.333008 -1.66699 2.5 -1.16699 8.5 1.5l12 8l32.5 2c21.667 1.33301 48.5 -3.33398 80.5 -14.001l35 -19.5c23.333 -13 41 -40.5 53 -82.5l6.5 -46.5c4.33301 -31 4.83301 -52.5 1.5 -64.5l-6.5 -52.5c-4.33301 -35 -20.166 -65.833 -47.499 -92.5l-30.5 -35.5
c-20.333 -23.667 -57.166 -39.167 -110.499 -46.5h-20.5c-13.667 0 -29.834 3 -48.501 9s-38.167 17.5 -58.5 34.5s-37.5 42.5 -51.5 76.5l-20.5 67.5c-13.667 45 -16.5 90.167 -8.5 135.5l2.5 29c1.66699 19.333 4 41.5 7 66.5s6.66699 49.333 11 73
s9.16602 40.167 14.499 49.5l16 41c10.667 27.333 19 45 25 53l12 1l-4 7l31 35.5c20.667 23.667 34 36.167 40 37.5l3 7h-9l-10.5 -11c-7 -7.33301 -11.833 -12 -14.5 -14l22.5 28c15 18.667 30.167 29.667 45.5 33l-7.5 -8c-5 -5.33301 -3.16699 -6 5.5 -2l19.5 13.5
c13 9 34.167 12.833 63.5 11.5l-3.5 0.5c-2.33301 0.333008 -11.5 1.5 -27.5 3.5l49 -3c32.667 -2 67 -27 103 -75zM127.001 375.005c0 -15.333 0.331055 -35.832 0.998047 -61.499s4.16699 -50.667 10.5 -75s16.333 -44.833 30 -61.5s33.167 -23.334 58.5 -20.001
c28 -2.66699 50.667 9.83301 68 37.5l26 41.5c16 24 21.333 49.667 16 77l-8 41c-4 16 -14.333 27.833 -31 35.5l-25 11.5c4 6 13.667 4.83301 29 -3.5l23 -12.5l-21 17l-19 13c-19.333 8 -41.666 7.16699 -66.999 -2.5l-38 -14.5c-1.33301 2.66699 2.83398 7 12.501 13
l14.5 9l14 8c-14 0 -33.167 -8.83301 -57.5 -26.5z" />
    <glyph glyph-name="seven" unicode="7" horiz-adv-x="483" 
d="M37 715l5.49805 -9.99805c3.66699 -6.66699 5.83398 7.33301 6.50098 42l7 -20c4.66699 -13.333 6 -2.66602 4 32.001l4 -1.5c2.66699 -1 2 7.16699 -2 24.5l55 -55v14l30 -25l67.5 -1c45 -0.666992 95.167 11.666 150.5 36.999l40 -25c26.667 -16.667 45 -34 55 -52
l-5 -105l-44 -34.5c-29.333 -23 -54.333 -71.167 -75 -144.5l-12 -33c-8 -22 -16 -48.5 -24 -79.5s-14.333 -63.167 -19 -96.5s-3.66699 -61.333 3 -84v-42l-23 -14c-15.333 -9.33301 -22.666 -19 -21.999 -29l-10.5 6.5c-7 4.33301 -14.5 -1.83398 -22.5 -18.501l-53 5
l8 44.5c5.33301 29.667 13.666 67.5 24.999 113.5s25.833 96.833 43.5 152.5s38.834 109.167 63.501 160.5l17.5 45c11.667 30 19.167 47.333 22.5 52l-12 15.5c-8 10.333 -39.667 3.16602 -95 -21.501l-4.5 -6c-3 -4 0.5 -6 10.5 -6l-37.5 -24
c-25 -16 -46.167 -38 -63.5 -66l-36 -12l-31.5 74.5c-21 49.667 -29.167 106.167 -24.5 169.5v7c0 4.66699 -0.666992 8 -2 10z" />
    <glyph glyph-name="eight" unicode="8" horiz-adv-x="583" 
d="M431 757l25 19.0039v-11.5c0 -7.66699 6.33301 -4.5 19 9.5l3 -11c2 -7.33301 11.667 1.66699 29 27l-3.5 -19c-2.33301 -12.667 2.16699 -16 13.5 -10l1.5 -12c1 -8 7.83301 -10 20.5 -6c7.33301 2 12 -8.33301 14 -31s0 -48.167 -6 -76.5s-16.667 -55 -32 -80
s-36 -38.5 -62 -40.5l-70 44l-2 15l-17 -2l-21 15l16 -1l-17 19.5c-11.333 13 -38.333 18.5 -81 16.5l-18 -4c-12 -2.66699 -25.167 -7.66699 -39.5 -15s-27.666 -17.833 -39.999 -31.5s-19.166 -31.5 -20.499 -53.5l1.5 -44.5c1 -29.667 22.5 -50.5 64.5 -62.5l17 30v-9
l151 132l-6 -15l12 4l-3 -7l-23.5 -27c-15.667 -18 -21.834 -28 -18.501 -30l11 6.5c7.33301 4.33301 13 8.5 17 12.5l-13 -16c-8.66699 -10.667 -18 -20 -28 -28v-7l6 2.5c4 1.66699 7.33301 4.5 10 8.5l-3 -8.5c-2 -5.66699 -5 -9.83398 -9 -12.501l-14.5 -19
c-9.66699 -12.667 -15.5 -19.667 -17.5 -21l-3.5 -6c-2.33301 -4 7.5 -6.66699 29.5 -8l-7 -2.5c-4.66699 -1.66699 -1.66699 -3.5 9 -5.5l54 -11.5c36 -7.66699 68.667 -30.5 98 -68.5l2 -1.5c1.33301 -1 3.33301 0.5 6 4.5l9 -21c6 -14 11 -31.167 15 -51.5
s5.16699 -42 3.5 -65s-9.83398 -43.5 -24.501 -61.5l-41 -44.5c-27.333 -29.667 -74 -49.834 -140 -60.501l-25 -0.5c-16.667 -0.333008 -37 1 -61 4s-49.333 8.5 -76 16.5s-50 20.333 -70 37l-2 24.5c-1.33301 16.333 -10.666 32.166 -27.999 47.499l-16 94
c0.666992 4 7.5 12.833 20.5 26.5l41 43c14.333 15 26.5 28.333 36.5 40s13 18.167 9 19.5l-44.5 29c-29.667 19.333 -46.834 60 -51.501 122c-2 83.333 25.833 149.166 83.5 197.499s160.167 65.833 307.5 52.5zM206 208.004l-1.00195 -11.001c-4 4 -5 5 -3 3l3 -3
c22.667 -33.333 48.167 -45.166 76.5 -35.499l42.5 14.5c20.667 4 32.834 13.667 36.501 29l5.5 23l10 -3c10 9.33301 6.33301 23.333 -11 42l-26 28c0 14 -11.833 24.833 -35.5 32.5l-35.5 11.5l4 -6l-22 2c-20 -33.333 -33.667 -58.833 -41 -76.5
s-11.166 -30.167 -11.499 -37.5s1 -11.333 4 -12z" />
    <glyph glyph-name="nine" unicode="9" horiz-adv-x="526" 
d="M448 555c-2 -30 6.33203 -52.6689 24.999 -68.002l28 -23l-3 -18c-26 -20 -47.333 -48.667 -64 -86l-25 -56c-8.66699 -20.667 -17.5 -47.167 -26.5 -79.5s-17.333 -63.833 -25 -94.5s-13.834 -57 -18.501 -79l-7 -33l-49 -20l-19 9h-38l-32 -7l1 28l10 8l142 307
c4.66699 5.33301 5.33398 8.16602 2.00098 8.49902l-5 0.5c14 10.667 19.5 16.334 16.5 17.001l-4.5 1c-13.333 -8 -25.5 -13.833 -36.5 -17.5l-16.5 -5.5c38.667 15.333 60 28.833 64 40.5l6 17.5c-6 -4.66699 -20.833 -15.167 -44.5 -31.5l-35.5 -24.5
c-5.33301 -2 -5.33301 -3.83301 0 -5.5l8 -2.5c-6.66699 0 -13 -2 -19 -6l-9 -6c-6.66699 -4 -7 -6.66699 -1 -8l9 -2c-34 -10.667 -64.833 -13.167 -92.5 -7.5s-51.5 14 -71.5 25s-35.333 22 -46 33l-16 16.5c-15.333 20.667 -24.5 43.334 -27.5 68.001
s-3.16699 47.5 -0.5 68.5s6.33398 38.667 11.001 53l7 21.5c0.666992 18 7.16699 35.667 19.5 53s26 32.833 41 46.5s28.667 24.834 41 33.501l18.5 13c32 21.333 68.333 31.333 109 30l61 -2l3 7c4.66699 -16 9.5 -20.5 14.5 -13.5l7.5 10.5l24 -23l5 15
c4 -22 14.333 -35 31 -39l25 -6l41 -84c0 -11.333 -3.83301 -26 -11.5 -44l-11.5 -27zM364.999 570.998l0.500977 23.499c0.333008 15.667 -13.834 26.834 -42.501 33.501l-53 -0.5c-35.333 -0.333008 -65.333 -19.833 -90 -58.5l-11 -20
c-7.33301 -13.333 -13.333 -29.666 -18 -48.999s-6 -40 -4 -62s12.667 -42 32 -60l-9.5 7.5c-6.33301 5 -10.5 5.83301 -12.5 2.5l12 -19.5c8 -13 22.333 -16.833 43 -11.5l-0.5 2c-0.333008 1.33301 -2.5 2.66602 -6.5 3.99902l61 8c40.667 5.33301 79 37 115 95l16 85
l-30 12z" />
    <glyph glyph-name="colon" unicode=":" horiz-adv-x="229" 
d="M92 96l-26.0039 -38.0029c2.66699 8 4.83398 13.667 6.50098 17s-1.16602 9.33301 -8.49902 18c-3.33301 6.66699 -9.16602 7.33398 -17.499 2.00098l-12.5 -8c-44 16 -63 37.167 -57 63.5l9 39.5c9.33301 12 12.666 20.333 9.99902 25l-4 7
c-52 30.667 -86.833 67.667 -104.5 111l-26.5 65c6.66699 -14.667 20.334 -27.667 41.001 -39s40 -20.333 58 -27s30.667 -10.5 38 -11.5s1.66602 1.83301 -17.001 8.5c-13.333 10 -22.166 22.5 -26.499 37.5s-6.16602 21.5 -5.49902 19.5c18.667 -24 43.5 -39.5 74.5 -46.5
s51.5 -10.833 61.5 -11.5c16 12.667 19.833 35.5 11.5 68.5l-12.5 49.5l-27 -38l7 16.5c1.33301 3 -1.33398 9.16699 -8.00098 18.5c-4 6 -10 6.5 -18 1.5l-12 -7.5c-44 16 -63 37 -57 63l9 39c10 12 13.5 20.5 10.5 25.5l-4.5 7.5c-52 30.667 -86.833 67.667 -104.5 111
l-26.5 65c6.66699 -14.667 20.334 -27.667 41.001 -39s40 -20.333 58 -27s30.667 -10.5 38 -11.5s1.66602 1.83301 -17.001 8.5c-13.333 10 -22.166 22.5 -26.499 37.5s-6.16602 21.167 -5.49902 18.5c21.333 -27.333 50 -43.833 86 -49.5l54 -8.5
c25.333 -10 46.166 -25.167 62.499 -45.5s29.333 -40.833 39 -61.5s16.5 -38.667 20.5 -54l6 -23c2 -56 -13.5 -96.167 -46.5 -120.5s-57.5 -39.166 -73.5 -44.499c25.333 -10 46.166 -25.333 62.499 -46s29.333 -41.334 39 -62.001s16.5 -38.667 20.5 -54l6 -23
c1.33301 -34 -4.66699 -61.667 -18 -83s-28.333 -38.166 -45 -50.499s-32 -21 -46 -26l-21 -7.5c10.667 5.33301 16.834 14.333 18.501 27s1.5 25.834 -0.5 39.501s-4.66699 26 -8 37z" />
    <glyph glyph-name="less" unicode="&#x3c;" horiz-adv-x="508" 
d="M66 27l1.50293 -2.50195c1 -1.66699 4.83301 -1.5 11.5 0.5l-0.5 31.5c-0.333008 21 -5.5 47.833 -15.5 80.5v0c-6 4.66699 -9 -0.666016 -9 -15.999s-0.666992 -21.333 -2 -18c-2 4 -4.83301 18.167 -8.5 42.5s-4.5 39.5 -2.5 45.5l-0.5 1
c-0.333008 0.666992 -0.5 1.66699 -0.5 3l-36.5 90.5c-11.667 29.667 -29.5 67.5 -53.5 113.5c-2 4.66699 -7.66699 12.834 -17 24.501s-18 15.834 -26 12.501l9 41l-15 18l-3 21l24 -4l-31 39l66 -30l50 -2l36 -13.5c24 -9 42.333 -35.5 55 -79.5l30.5 32
c20.333 21.333 41.5 30 63.5 26l22 1c14.667 0.666992 31 -7 49 -23l20 -16c13.333 -10.667 29.166 -24.5 47.499 -41.5s36.666 -36 54.999 -57s32.166 -42.167 41.499 -63.5l1.5 -35.5c1 -23.667 2.5 -50 4.5 -79s4.5 -56 7.5 -81s6.5 -39.167 10.5 -42.5
c4.66699 -25.333 15.667 -37 33 -35l-28 -21v-28l-45 -2l-3 -7c-2 -4.66699 -9 -5 -21 -1l-13 12l-28 26.5l-28.5 28.5c-9 9.33301 -13.833 16 -14.5 20l-1 16c-0.666992 10.667 -2 19.667 -4 27l14 -10l-5 125l28 -68l-0.5 46.5c-0.333008 31 -10.166 61.5 -29.499 91.5
l-39 47.5c-26 31.667 -49.667 51.5 -71 59.5l-39 3l-14 -26.5c-9.33301 -17.667 -11.333 -59.5 -6 -125.5l15 32v-21c0 -14 1 -29.667 3 -47s5.5 -34 10.5 -50s12.5 -26.333 22.5 -31c-2.66699 -8 7.83301 -21.667 31.5 -41s34.834 -34 33.501 -44l-12 -27
c-8 -18 -20.333 -32 -37 -42c-16.667 -9.33301 -23.834 -11.833 -21.501 -7.5l3.5 6.5l-30 29v-19l-8.5 23c-5.66699 15.333 -12.834 24 -21.501 26l-10.5 2c-7 1.33301 -11.833 -1 -14.5 -7c-10 4.66699 -21.5 6.16699 -34.5 4.5s-24.5 -3.83398 -34.5 -6.50098z
M320.003 601.998c14.667 -7.33301 27.665 -15.0029 38.998 -23.0029s18.333 -21.667 21 -41c1.33301 -8.66699 0.166016 -10.5 -3.50098 -5.5s-6.5 8.16699 -8.5 9.5c-14 2.66699 -15.833 0.166992 -5.5 -7.5s14.5 -25.167 12.5 -52.5c0 -3.33301 -4.5 1.16699 -13.5 13.5
s-18.5 21.833 -28.5 28.5c-4 2 -9 5.66699 -15 11s-11 5 -15 -1c-5.33301 -9.33301 -1.16602 -17.833 12.501 -25.5s17.5 -10.834 11.5 -9.50098c-10 0.666992 -19.833 5.33398 -29.5 14.001s-22.834 13 -39.501 13c-28 -1.33301 -52 -3.16602 -72 -5.49902
s-44 -1.83301 -72 1.5c-21.333 2 -39.833 11.5 -55.5 28.5s-30.167 31.833 -43.5 44.5c-10 10 -28.333 14.333 -55 13s-46 -6.66602 -58 -15.999c-4 -3.33301 -3.66699 -3.16602 1 0.500977s10.334 8.5 17.001 14.5s12.334 11.667 17.001 17s5.33398 8 2.00098 8
c-2 -0.666992 12.333 6 43 20s63 11 97 -9c15.333 -10 29.333 -22.667 42 -38s29 -24 49 -26c6 -0.666992 14.667 3 26 11l17 12l52 8c4.66699 0 13.167 -2 25.5 -6s17.5 -5 15.5 -3l-21 17l18 -2c12 -1.33301 17.667 -6 17 -14z" />
    <glyph glyph-name="equal" unicode="=" horiz-adv-x="597" 
d="M-112 671l-3.99902 10.4951c-2.66699 7 -13.334 25.5 -32.001 55.5c-9.33301 14.667 -11.333 19.334 -6 14.001l26 -26.5c12 -12.333 25.667 -24.666 41 -36.999s28 -17.833 38 -16.5l-11 8.5c-7.33301 5.66699 -7 12.834 1 21.501l42.5 -27.5
c28.333 -18.333 58.166 -20.5 89.499 -6.5l12 -29c8 -19.333 18.333 -27.666 31 -24.999l-12 -37l26 27l-12 -74l278 -336l-68 299l-47 85l38 -42l-32 136l2 41.5c1.33301 27.667 4.66602 49.5 9.99902 65.5l2 -28.5c1.33301 -19 8 -29.5 20 -31.5l5.5 13.5
c3.66699 9 -1.16602 22.833 -14.499 41.5l25.5 -29.5c17 -19.667 37.833 -39.5 62.5 -59.5s50.334 -35.333 77.001 -46s50 -6.66699 70 12l-1.5 -8c-1 -5.33301 -0.5 -11 1.5 -17c0 -1.33301 2.5 -1.33301 7.5 0l7.5 2c-8.66699 -2.66699 -13 -5.66699 -13 -9
c0 -6 6.66699 -13 20 -21c-33.333 -2 -56 -18 -68 -48s-18.667 -62.5 -20 -97.5s0.333984 -67.333 5.00098 -97s7 -44.834 7 -45.501l6 -4c-2 -8 -3.66699 -17 -5 -27l-4 -31c-4 -27.333 -6.16699 -55.833 -6.5 -85.5s4.5 -54.167 14.5 -73.5l-3 19
c-2 12.667 -3.33301 27.167 -4 43.5s-0.333984 32.5 0.999023 48.5s5 27.333 11 34c-0.666992 0.666992 -1.5 -5.5 -2.5 -18.5s-1.16699 -28.5 -0.5 -46.5s3 -36.167 7 -54.5s11.333 -32.833 22 -43.5l4.5 -6.5c3 -4.33301 0.5 -10.166 -7.5 -17.499l-14 -16.5
c-9.33301 -11 -24 -14.833 -44 -11.5l-33.5 -1.5c-22.333 -1 -33.5 7.16699 -33.5 24.5l-7 22c-4.66699 14.667 -11.334 25 -20.001 31l-27.5 28.5l-60.5 65.5l-60.5 70.5c-18.333 22.333 -27.5 36.833 -27.5 43.5l12 -41c8 -27.333 18.667 -58 32 -92
s28.5 -66.667 45.5 -98s34.5 -51 52.5 -59l2 -28c1.33301 -18.667 -6 -35 -22 -49l-20 4c-13.333 2.66699 -28.5 7 -45.5 13s-33.5 14 -49.5 24s-27 22 -33 36l-23.5 38c-15.667 25.333 -34.5 41.666 -56.5 48.999l16.5 3c11 2 23.5 1 37.5 -3
c-5.33301 -3.33301 -16 12.334 -32 47.001l-54 122l-61 137.5c-20.667 45 -38.667 76.5 -54 94.5l-24 -7l10 47l-26 35.5c-17.333 23.667 -33.333 35.5 -48 35.5l13.5 10c9 6.66699 7.5 14.667 -4.5 24l4 8.5c2.66699 5.66699 -0.666016 14.834 -9.99902 27.501l-8 15z
M317.001 860.995c14.667 -0.666992 28.166 -2.16895 40.499 -4.50195s22.5 -9.83301 30.5 -22.5c2.66699 -6 1.83398 -7.66699 -2.49902 -5s-7.5 4 -9.5 4c-12.667 -2 -13.5 -4.16699 -2.5 -6.5s19.5 -13.5 25.5 -33.5c0 -2 -5.5 -0.166992 -16.5 5.5
s-21.833 9.5 -32.5 11.5c-4 0 -9.33301 1.16699 -16 3.5s-10.667 0.5 -12 -5.5c-2 -8 4 -12.5 18 -13.5s18 -2.16699 12 -3.5c-8.66699 -2 -18.5 -1.5 -29.5 1.5s-23.5 2.16699 -37.5 -2.5c-24 -8.66699 -44.5 -16.834 -61.5 -24.501s-37.833 -14.5 -62.5 -20.5
c-19.333 -4.66699 -38.166 -3.5 -56.499 3.5l-49.5 18.5c-12 4 -29.167 1.66699 -51.5 -7s-37.5 -18 -45.5 -28c-4.66699 -7.33301 -1 -2.16602 11 15.501s15 25.167 9 22.5c-2 -1.33301 8.33301 7.5 31 26.5s51.667 26.5 87 22.5c16 -2 31.833 -6.5 47.5 -13.5
s32.5 -8.5 50.5 -4.5c5.33301 1.33301 11.666 6.33301 18.999 15s11.333 13.334 12 14.001l42 20c4 2 11.833 3.33301 23.5 4s16.5 1.33398 14.5 2.00098l-22 6c-0.666992 0 4.33301 1.33301 15 4s17 1 19 -5z" />
    <glyph glyph-name="greater" unicode="&#x3e;" horiz-adv-x="597" 
d="M-112 671l-3.99902 10.4951c-2.66699 7 -13.334 25.5 -32.001 55.5c-9.33301 14.667 -11.333 19.334 -6 14.001l26 -26.5c12 -12.333 25.667 -24.666 41 -36.999s28 -17.833 38 -16.5l-11 8.5c-7.33301 5.66699 -7 12.834 1 21.501l42.5 -27.5
c28.333 -18.333 58.166 -20.5 89.499 -6.5l12 -29c8 -19.333 18.333 -27.666 31 -24.999l-12 -37l26 27l-12 -74l278 -336l-68 299l-47 85l38 -42l-32 136l2 41.5c1.33301 27.667 4.66602 49.5 9.99902 65.5l2 -28.5c1.33301 -19 8 -29.5 20 -31.5l5.5 13.5
c3.66699 9 -1.16602 22.833 -14.499 41.5l25.5 -29.5c17 -19.667 37.833 -39.5 62.5 -59.5s50.334 -35.333 77.001 -46s50 -6.66699 70 12l-1.5 -8c-1 -5.33301 -0.5 -11 1.5 -17c0 -1.33301 2.5 -1.33301 7.5 0l7.5 2c-8.66699 -2.66699 -13 -5.66699 -13 -9
c0 -6 6.66699 -13 20 -21c-33.333 -2 -56 -18 -68 -48s-18.667 -62.5 -20 -97.5s0.333984 -67.333 5.00098 -97s7 -44.834 7 -45.501l6 -4c-2 -8 -3.66699 -17 -5 -27l-4 -31c-4 -27.333 -6.16699 -55.833 -6.5 -85.5s4.5 -54.167 14.5 -73.5l-3 19
c-2 12.667 -3.33301 27.167 -4 43.5s-0.333984 32.5 0.999023 48.5s5 27.333 11 34c-0.666992 0.666992 -1.5 -5.5 -2.5 -18.5s-1.16699 -28.5 -0.5 -46.5s3 -36.167 7 -54.5s11.333 -32.833 22 -43.5l4.5 -6.5c3 -4.33301 0.5 -10.166 -7.5 -17.499l-14 -16.5
c-9.33301 -11 -24 -14.833 -44 -11.5l-33.5 -1.5c-22.333 -1 -33.5 7.16699 -33.5 24.5l-7 22c-4.66699 14.667 -11.334 25 -20.001 31l-27.5 28.5l-60.5 65.5l-60.5 70.5c-18.333 22.333 -27.5 36.833 -27.5 43.5l12 -41c8 -27.333 18.667 -58 32 -92
s28.5 -66.667 45.5 -98s34.5 -51 52.5 -59l2 -28c1.33301 -18.667 -6 -35 -22 -49l-20 4c-13.333 2.66699 -28.5 7 -45.5 13s-33.5 14 -49.5 24s-27 22 -33 36l-23.5 38c-15.667 25.333 -34.5 41.666 -56.5 48.999l16.5 3c11 2 23.5 1 37.5 -3
c-5.33301 -3.33301 -16 12.334 -32 47.001l-54 122l-61 137.5c-20.667 45 -38.667 76.5 -54 94.5l-24 -7l10 47l-26 35.5c-17.333 23.667 -33.333 35.5 -48 35.5l13.5 10c9 6.66699 7.5 14.667 -4.5 24l4 8.5c2.66699 5.66699 -0.666016 14.834 -9.99902 27.501l-8 15z
M317.001 860.995c14.667 -0.666992 28.166 -2.16895 40.499 -4.50195s22.5 -9.83301 30.5 -22.5c2.66699 -6 1.83398 -7.66699 -2.49902 -5s-7.5 4 -9.5 4c-12.667 -2 -13.5 -4.16699 -2.5 -6.5s19.5 -13.5 25.5 -33.5c0 -2 -5.5 -0.166992 -16.5 5.5
s-21.833 9.5 -32.5 11.5c-4 0 -9.33301 1.16699 -16 3.5s-10.667 0.5 -12 -5.5c-2 -8 4 -12.5 18 -13.5s18 -2.16699 12 -3.5c-8.66699 -2 -18.5 -1.5 -29.5 1.5s-23.5 2.16699 -37.5 -2.5c-24 -8.66699 -44.5 -16.834 -61.5 -24.501s-37.833 -14.5 -62.5 -20.5
c-19.333 -4.66699 -38.166 -3.5 -56.499 3.5l-49.5 18.5c-12 4 -29.167 1.66699 -51.5 -7s-37.5 -18 -45.5 -28c-4.66699 -7.33301 -1 -2.16602 11 15.501s15 25.167 9 22.5c-2 -1.33301 8.33301 7.5 31 26.5s51.667 26.5 87 22.5c16 -2 31.833 -6.5 47.5 -13.5
s32.5 -8.5 50.5 -4.5c5.33301 1.33301 11.666 6.33301 18.999 15s11.333 13.334 12 14.001l42 20c4 2 11.833 3.33301 23.5 4s16.5 1.33398 14.5 2.00098l-22 6c-0.666992 0 4.33301 1.33301 15 4s17 1 19 -5z" />
    <glyph glyph-name="A" unicode="A" horiz-adv-x="668" 
d="M103 -37c-0.666992 -8 -4.83301 -13.3311 -12.5 -15.998l-11.5 -4c12.667 4.66699 17.167 9.83398 13.5 15.501l-5.5 8.5c-10 8 -26.667 11.667 -50 11l-35 -1c-26 6.66699 -42.167 22.334 -48.5 47.001l-9.5 37c-8.66699 -2 -17.667 3.16699 -27 15.5l-14 18.5
c3.33301 -6 9.16602 -7.66699 17.499 -5l12.5 4c-8 0 -13.667 5.5 -17 16.5l-5 16.5c2.66699 -8.66699 9.83398 -12.334 21.501 -11.001l17.5 2c2 6 0 12.167 -6 18.5l-9 9.5c10 -5.33301 18.167 -6.33301 24.5 -3l9.5 5c17.333 27.333 21.333 54.833 12 82.5l-14 41.5
c10 42.667 16.333 91.667 19 147s3.66699 107.666 3 156.999s-2 91 -4 125l-3 51c-26 29.333 -36.167 47 -30.5 53l8.5 9c0 -6 1.5 -10.5 4.5 -13.5l4.5 -4.5c9.33301 2 17.333 -1 24 -9l10 -12c0 10 -4.16699 22 -12.5 36l-12.5 21l49 -48c-4.66699 12.667 -2.5 22 6.5 28
l13.5 9c5.33301 -26.667 19.666 -44 42.999 -52l35 -12c14 16.667 24.333 24.167 31 22.5l10 -2.5c-14 2.66699 -23.167 -2.33301 -27.5 -15l-6.5 -19l21 4c4.66699 -22.667 17.834 -33.834 39.501 -33.501l32.5 0.5c-10 -4 -13.167 -10.167 -9.5 -18.5l5.5 -12.5
c8.66699 4 16 2.66699 22 -4l9 -10c-9.33301 8 -15.666 9.66699 -18.999 5s-5.16602 -11.5 -5.49902 -20.5s0.166992 -17.833 1.5 -26.5l2 -13c1.33301 8 5.16602 11.833 11.499 11.5l9.5 -0.5c-11.333 -1.33301 -15.333 -6.66602 -12 -15.999s7.33301 -10 12 -2
c2.66699 -20 19.5 -52 50.5 -96s64.833 -88.5 101.5 -133.5l100 -118l45 -50.5l29 -4c-8 -26 -9.66699 -44.167 -5 -54.5l7 -15.5c-4 2 -4.33301 11.833 -1 29.5l5 26.5c0 -20.667 8.83301 -43.334 26.5 -68.001l26.5 -37l-4 -37c-8.66699 0 -10.834 -10 -6.50098 -30
l6.5 -30l-57 -8c-48 15.333 -84 41.833 -108 79.5l-36 56.5c6 -6 12 -7.33301 18 -4l9 5c-23.333 82.667 -51.833 135.667 -85.5 159l-50.5 35c18 -7.33301 35.167 -22.333 51.5 -45l24.5 -34c-42 21.333 -87.5 38.5 -136.5 51.5s-77.5 14.833 -85.5 5.5
c-14.667 -8 -23.5 -5.66699 -26.5 7s-2.83301 22 0.5 28c-40.667 -46.667 -62 -95.667 -64 -147l-3 -77c-5.33301 31.333 0.166992 66.166 16.5 104.499l24.5 57.5c-10 -22 -13.167 -47.167 -9.5 -75.5s7.83398 -53.5 12.501 -75.5c1.33301 -8 0.666016 -19 -2.00098 -33
s-3 -23.667 -1 -29c2 -6.66699 5.33301 -6.16699 10 1.5l7 11.5l-10 -57c-11.333 -2 -19 -9.66699 -23 -23zM135.001 418.002l-1 -10.999l16 5l6 -7c14.667 0 32 -3.5 52 -10.5s39 -14.833 57 -23.5s33.333 -16.334 46 -23.001l19 -10c-6.66699 14.667 -18 32.667 -34 54
s-32.333 41.833 -49 61.5l-44 51l-19 21.5c4 -24 -3.16699 -48 -21.5 -72z" />
    <glyph glyph-name="B" unicode="B" horiz-adv-x="568" 
d="M15 516l-1 -14.4971c-0.666992 -9.66699 -6 -15.167 -16 -16.5l-19 4.5c-12.667 3 -27 10 -43 21s-31.667 27.167 -47 48.5s-25.666 50.666 -30.999 87.999l-11 30.5c-7.33301 20.333 -16.666 33.5 -27.999 39.5l18.5 -11c12.333 -7.33301 19.166 -14 20.499 -20
c4.66699 -7.33301 6.66699 -8.5 6 -3.5s-2.83398 11.667 -6.50098 20s-8.16699 16.166 -13.5 23.499s-10.666 10 -15.999 8l21.5 -8.5c14.333 -5.66699 25.833 -18.167 34.5 -37.5l12 28l11 -33l20 15.5c13.333 10.333 29.5 22.166 48.5 35.499s39.667 26.166 62 38.499
s42.833 20.5 61.5 24.5c0.666992 2.66699 28.334 4.16699 83.001 4.5s105.667 -11.5 153 -35.5l49.5 -33.5c33 -22.333 55.5 -63.166 67.5 -122.499l1.5 -20c1 -13.333 0.166992 -29.666 -2.5 -48.999s-8.83398 -40 -18.501 -62s-25.5 -42 -47.5 -60l38.5 -8
c25.667 -5.33301 51.834 -17 78.501 -35l-24 9.5c-16 6.33301 -27.333 8.5 -34 6.5l25 -8.5c16.667 -5.66699 30 -16.5 40 -32.5c21.333 -44 19.5 -95.5 -5.5 -154.5s-68.5 -99.833 -130.5 -122.5l17 11c11.333 7.33301 17 17 17 29l-14 -15.5
c-9.33301 -10.333 -21.666 -18.5 -36.999 -24.5l11 21l-12 -10c-8 -6.66699 -16 -9.33398 -24 -8.00098l10.5 7c7 4.66699 9.16699 9.33398 6.5 14.001l-25 -12l8 18l-37 -23l10 28l15 13.5c10 9 21.333 20 34 33s24.834 26.333 36.501 40s19.5 25.167 23.5 34.5
c16.667 28 21.167 53.333 13.5 76s-21.167 39 -40.5 49s-41.333 12.167 -66 6.5s-45.334 -22.834 -62.001 -51.501l-14 3l-20 21c-13.333 14 -20 26.667 -20 38l5 -9c3.33301 -6 7.66602 -8.66699 12.999 -8l-4 20.5c-2.66699 13.667 -10.334 31.5 -23.001 53.5
c10.667 -10 24.5 -13 41.5 -9s33.5 11.333 49.5 22s30.167 23.5 42.5 38.5s19.833 28.833 22.5 41.5l4 22c2.66699 14.667 2.16699 30.5 -1.5 47.5s-12.834 32 -27.501 45s-39.667 18.167 -75 15.5l-48 -10c-32 -6.66699 -54 -22 -66 -46l83 -339l6 24l58 -252l9 25l2 -104
l-46 49l-18 87l5 -76l-112 336l35 -155l-137 323z" />
    <glyph glyph-name="C" unicode="C" horiz-adv-x="622" 
d="M-32 712l20.001 24.999c13.333 16.667 33.666 31.167 60.999 43.5s61.666 17.5 102.999 15.5s90 -21.333 146 -58l29 -17l-7 25l25 -14l-9 35c-6 23.333 -12 37 -18 41l14 -15l31.5 -35.5c11.667 -13.667 22.334 -28.167 32.001 -43.5s14.834 -28.333 15.501 -39l4.5 16
c3 10.667 0.833008 22 -6.5 34c-4 5.33301 -2 -0.166992 6 -16.5l28.5 -60c11 -23.667 21.333 -47.167 31 -70.5s14.5 -38.666 14.5 -45.999l2.5 14c1.66699 9.33301 0.166992 22 -4.5 38l19.5 -55c13 -36.667 12.5 -68.334 -1.5 -95.001l-3.5 19
c-2.33301 12.667 -7.5 18 -15.5 16l6.5 -20c4.33301 -13.333 -0.166992 -22.666 -13.5 -27.999l4.5 16c3 10.667 0.166992 16 -8.5 16l-7 -26l-21 24l7 -33c-12.667 19.333 -32.334 32.333 -59.001 39l23 1c1.33301 0 -3.16699 6.66699 -13.5 20s-24.333 29.5 -42 48.5
s-37.834 38.5 -60.501 58.5s-45.334 36.333 -68.001 49l18 -17c12 -11.333 20.667 -21 26 -29l-16.5 9c-11 6 -24 10.333 -39 13s-30.333 0.666992 -46 -6s-28.167 -22.667 -37.5 -48c-12 -42.667 -11.667 -92.5 1 -149.5s34.167 -109.833 64.5 -158.5
s67.833 -87.834 112.5 -117.501s93.667 -38.167 147 -25.5l30 22l-11 -13.5c-7.33301 -9 -14 -15.833 -20 -20.5l17.5 7c11.667 4.66699 20.167 12 25.5 22l8 -13l19.5 20.5c13 13.667 17.833 33.5 14.5 59.5l8.5 -29c5.66699 -19.333 4.16699 -33.666 -4.5 -42.999
l10.5 3.5c7 2.33301 11.167 10.5 12.5 24.5v-17.5c0 -11.667 -1.66699 -19.5 -5 -23.5l9 -1c6 -0.666992 10.667 3 14 11l-23 -46.5c-15.333 -31 -56 -53.5 -122 -67.5c-58 -5.33301 -117.167 11 -177.5 49s-115.166 85.333 -164.499 142s-89.833 116.167 -121.5 178.5
s-48.5 115.166 -50.5 158.499l13.5 -33c9 -22 16.5 -35 22.5 -39l-20 53.5c-13.333 35.667 -21.666 64.834 -24.999 87.501l38 -69l1 92l-4.5 -24c-3 -16 -4.83301 -26.667 -5.5 -32c0 -6 -2.83301 3.66699 -8.5 29s1.83301 65 22.5 119z" />
    <glyph glyph-name="D" unicode="D" horiz-adv-x="546" 
d="M-122 750l24.0039 -21.999c16 -14.667 45.333 -12 88 8l34 13.5c22.667 9 51.5 15.833 86.5 20.5s73 3.5 114 -3.5s79.5 -26.5 115.5 -58.5l53 -62.5c35.333 -41.667 65.333 -95.167 90 -160.5s32.667 -138.333 24 -219s-57.334 -160 -146.001 -238l20 26
c13.333 17.333 21 31.666 23 42.999l-14 -12c-9.33301 -8 -18.833 -17.833 -28.5 -29.5s-17.334 -24.5 -23.001 -38.5s-4.83398 -27.667 2.49902 -41l9 -16l-33 40l-6 -14l-13 26l-16 -15l-1 16l-11.5 -8.5c-7.66699 -5.66699 -10.167 -12.5 -7.5 -20.5l-7.5 11
c-5 7.33301 -4.5 12.333 1.5 15l-47 -9l28 22l-26 -2l9 20l-41 -25l12 17l-15 8l25 9.5c16.667 6.33301 25 15.5 25 27.5l-208 379l-10 -12c-6.66699 -8 -8.66699 -16 -6 -24l-9.5 10.5c-6.33301 7 -8.5 12.833 -6.5 17.5l-12 -8c-8 -5.33301 -11 -12 -9 -20l1 39l-37 -11
l17 25l-20.5 2.5c-13.667 1.66699 -24.5 -3.83301 -32.5 -16.5l2.5 10.5c1.66699 7 10.5 12.833 26.5 17.5h-44l23 14l-49 -21l29 43l-40 10l23 19l-20 24c-13.333 16 -25 22.333 -35 19c-10 -4 -12 -5 -6 -3l9 3l13.5 1c9 0.666992 16.167 -1 21.5 -5l-19 37
c-12.667 24.667 -23.334 38 -32.001 40l-4 17.5c-2.66699 11.667 -3 20.167 -1 25.5l21 -30c14 -20 23.333 -35.333 28 -46l-8 42c-5.33301 28 -15 45.667 -29 53l26 -13c17.333 -8.66699 28 -16.667 32 -24l27 -4l-19 26l19 -7l-7.5 17.5
c-5 11.667 -5.83301 19.5 -2.5 23.5zM186.004 394.001l35 -68.999c20 -28.667 35.167 -55.334 45.5 -80.001s21.166 -52 32.499 -82c54 29.333 85.833 71.5 95.5 126.5s3.83398 107 -17.499 156s-54.5 87.5 -99.5 115.5s-94.5 29.667 -148.5 5
c-2.66699 -1.33301 -4.5 -2.33301 -5.5 -3l-1.5 -1l59 -132c19.333 -44 39 -86.333 59 -127z" />
    <glyph glyph-name="E" unicode="E" 
d="M186 460l19.0059 -23.9951l85 16l-85 -16l85 16v0c-2.66699 3.33301 -6.83398 5.83301 -12.501 7.5s-9.83398 2.83398 -12.501 3.50098c13.333 0 35.166 -0.666992 65.499 -2l45.5 -2l-4 18c32 -12 47.333 -30.167 46 -54.5l-2 -36.5
c-7.33301 2 -19.833 -1.33301 -37.5 -10s-35.834 -18.334 -54.501 -29.001s-35.167 -20.667 -49.5 -30l-21.5 -14c-14 -1.33301 -22.833 -0.333008 -26.5 3l-5.5 5c-4.66699 -2 -2.5 -16.667 6.5 -44l13.5 -41l-32 48l47 -102c70 36 125 55.167 165 57.5l60 3.5
c-12 4.66699 -18.333 4 -19 -2l-1 -9c10.667 0 17.167 -7.33301 19.5 -22l3.5 -22c-10.667 4 -19 2.66699 -25 -4l-9 -10c6 3.33301 13 3.5 21 0.5l12 -4.5c-10 1.33301 -17.667 -0.333984 -23 -5.00098l-8 -7l36 -6l-36 -14c-15.333 -5.33301 -33.5 -12.166 -54.5 -20.499
l-58 -24c-17.667 -7.66699 -31.334 -13.834 -41.001 -18.501s-10.167 -5.33398 -1.5 -2.00098c16 5.33301 35.5 9.33301 58.5 12l34.5 4c-55.333 -17.333 -96.166 -33 -122.499 -47s-44.333 -25.833 -54 -35.5s-13.834 -17.334 -12.501 -23.001l2 -8.5l-13 32
c-12 10 -22.333 12.333 -31 7l-13 -8c4 9.33301 1.83301 19.333 -6.5 30s-18.5 20.5 -30.5 29.5s-23.167 16.667 -33.5 23l-15.5 9.5c8.66699 1.33301 12.167 8.16602 10.5 20.499l-2.5 18.5c-10.667 1.33301 -19.834 8.16602 -27.501 20.499l-11.5 18.5l-6.5 7.5
c-4.33301 5 -4.16602 4.16699 0.500977 -2.5c4.66699 -7.33301 13.167 -11 25.5 -11h18.5c-10 4 -16.5 12.833 -19.5 26.5l-4.5 20.5c4 -12.667 12.833 -23.167 26.5 -31.5l20.5 -12.5l13 -2l1 18l17 5l-110 385c-4 2.66699 -8.33301 0.833984 -13 -5.49902l-7 -9.5
c-2.66699 4 -1.83398 8.66699 2.49902 14l6.5 8c-12 -4 -19.167 -13.333 -21.5 -28l-3.5 -22l-19 -2l-17 8c4.66699 14 0.666992 21.167 -12 21.5l-19 0.5l6 15c-8 6.66699 -15.5 8.5 -22.5 5.5l-10.5 -4.5l10 24c-6 2 -14 0.166992 -24 -5.5l-15 -8.5
c11.333 2 15.5 8.16699 12.5 18.5l-4.5 15.5c-14 -6 -24.167 -6.33301 -30.5 -1l-9.5 8c6 -5.33301 12.833 -5.5 20.5 -0.5l11.5 7.5l1 23l-17 7l17 14c-31.333 -2 -50.333 2 -57 12l-10 15c28 -16 47.167 -21.333 57.5 -16l15.5 8l-9 25l42 -9
c-16 6.66699 -24.833 14.334 -26.5 23.001l-2.5 13c6 -18.667 18.167 -29 36.5 -31l27.5 -3c-16.667 9.33301 -25.334 18.666 -26.001 27.999l-1 14c11.333 -24 22.833 -35.667 34.5 -35l17.5 1c0.666992 14 1.16699 22.833 1.5 26.5l0.5 5.5l13 -22
c3.33301 -4.66699 14.333 -7.33398 33 -8.00098s38.5 -0.333984 59.5 0.999023s40.167 3 57.5 5l26 3c66 2 107.5 16.833 124.5 44.5l25.5 41.5c52.667 -24.667 82.834 -51.5 90.501 -80.5l11.5 -43.5l-8 -49c-9.33301 -5.33301 -19.833 -8.83301 -31.5 -10.5l-17.5 -2.5
l9 26c-29.333 10.667 -56 9.83398 -80 -2.49902l-36 -18.5c2 6.66699 13.333 14.667 34 24l31 14c-30 -9.33301 -58.667 -20.833 -86 -34.5l-41 -20.5l21 -130l-33 96z" />
    <glyph glyph-name="F" unicode="F" horiz-adv-x="458" 
d="M-49 700l20 -5.49902c13.333 -3.66699 33.833 -3.5 61.5 0.5s63.167 14.667 106.5 32s95.666 47 156.999 89l-1 27l12 -10c8 -6.66699 17 -9.33398 27 -8.00098l22.5 -36c15 -24 31.833 -37 50.5 -39l2 -53l11 19l4 -90l-50 -5l-7 17c-4.66699 11.333 -17 18 -37 20
l10.5 -7.5c7 -5 10.5 -9.5 10.5 -13.5c-0.666992 -4 -19.167 -4.33301 -55.5 -1s-85.5 -15 -147.5 -55l3 -105l1 32c0.666992 21.333 3 33.666 7 36.999v-18c0 -12 0.5 -25.167 1.5 -39.5s2.33301 -27.333 4 -39s3.83398 -17.167 6.50098 -16.5l42 -8.5
c28 -5.66699 77.667 12.833 149 55.5l17 25l-6 -8.5c-4 -5.66699 -3.66699 -10.167 1 -13.5l31 -11c20.667 -7.33301 31.334 -28.333 32.001 -63l-3.5 -10c-2.33301 -6.66699 -9.83301 -12.667 -22.5 -18l-1 9.5c-0.666992 6.33301 -10.667 7.16602 -30 2.49902l14.5 -1.5
c9.66699 -1 12.167 -3.5 7.5 -7.5l-17 -8c-11.333 -5.33301 -25 -18 -41 -38l5.5 13.5c3.66699 9 15.167 19.5 34.5 31.5l-21 -9.5c-14 -6.33301 -30 -14.666 -48 -24.999s-35.833 -22.333 -53.5 -36s-29.834 -27.5 -36.501 -41.5l0.5 -30.5
c0.333008 -20.333 1.16602 -43.5 2.49902 -69.5s3.16602 -51 5.49902 -75s5.83301 -39.333 10.5 -46l-1 20c-0.666992 13.333 1.33301 26 6 38v-36c0 -24 3.66699 -35.667 11 -35l-1 -30c-0.666992 -20 -9 -35.333 -25 -46c-2 -2 -7.66699 3.5 -17 16.5
s-19.666 30.167 -30.999 51.5s-22.333 45.833 -33 73.5s-18.334 54.834 -23.001 81.501l5 -35.5c3.33301 -23.667 8.33301 -44.5 15 -62.5c-4 0 -13.667 22 -29 66l-53 147c-20 54 -40.167 104.667 -60.5 152s-38.166 74.666 -53.499 81.999l-23.5 -9
c-15.667 -6 -25.5 -21 -29.5 -45l-15 -7l-6 25l-7 -22l-3 19.5c-2 13 -8 16.167 -18 9.5l-40 -4l29 16l-45 -3l4 24l-18.5 -2c-12.333 -1.33301 -19.5 -11.333 -21.5 -30h-10l8.5 21.5c5.66699 14.333 14.5 21.5 26.5 21.5l-14.5 14.5
c-9.66699 9.66699 -25.5 6.5 -47.5 -9.5l8 16.5c5.33301 11 15.666 18.5 30.999 22.5l-2 13l-8 9c-5.33301 6 -15.666 6 -30.999 0l15.5 9.5c10.333 6.33301 18.166 7.5 23.499 3.5l-33 9l22 3l-18.5 10.5c-12.333 7 -19.833 15.833 -22.5 26.5l13 -10.5
c8.66699 -7 15.667 -9.5 21 -7.5l-9.5 19c-6.33301 12.667 -7.16602 28 -2.49902 46l12 18l1 -24.5c0.666992 -16.333 6.66699 -24.5 18 -24.5l15 41v-15.5c0 -10.333 2.33301 -17.166 7 -20.499l23 32l18 -42l9 64l5 -19.5c3.33301 -13 10 -18.5 20 -16.5
c10.667 0.666992 14.834 -1 12.501 -5l-3.5 -6l-2 -11l34 -7c22.667 -4.66699 40 0.333008 52 15z" />
    <glyph glyph-name="G" unicode="G" horiz-adv-x="719" 
d="M253 356l17 -11.4961c11.333 -7.66699 29 -12.5 53 -14.5s54 2 90 12s78.667 32.667 128 68l21.5 3.5c14.333 2.33301 23.833 2.83301 28.5 1.5l-9.5 -4.5c-6.33301 -3 -8.5 -8.5 -6.5 -16.5l10 3c6.66699 2 16 -0.333008 28 -7l36 -36.5
c24 -24.333 35.667 -50.5 35 -78.5l-0.5 -28c-0.333008 -18.667 -5.5 -29.334 -15.5 -32.001l-22.5 -1.5c-15 -1 -30.167 10.5 -45.5 34.5l-7 3c-4.66699 2 -9 -0.666992 -13 -8l1 -25.5c0.666992 -17 1.83398 -35.833 3.50098 -56.5s3.33398 -40.167 5.00098 -58.5
s3.5 -28.833 5.5 -31.5l0.5 10c0.333008 6.66699 2.16602 14.334 5.49902 23.001l8.5 -52.5c5.66699 -35 13.834 -54.833 24.501 -59.5l16 -97l-46 75l10 -49l-30.5 20c-20.333 13.333 -34.833 38 -43.5 74l-11 63l-13 -1.5c-8.66699 -1 -14.334 -4.5 -17.001 -10.5
l5.5 -4.5c3.66699 -3 8.5 -1.83301 14.5 3.5l-10 -23c-6.66699 -15.333 -43 -28.333 -109 -39c-56.667 -4.66699 -109.167 4.16602 -157.5 26.499s-91.5 53.166 -129.5 92.499s-69.833 84.666 -95.5 135.999s-44.167 103.5 -55.5 156.5s-14.666 104 -9.99902 153
s18.667 91 42 126s57 60.333 101 76s99.667 16.5 167 2.5l43.5 -23c29 -15.333 50.5 -26 64.5 -32l3.5 19.5c2.33301 13 0.833008 23.167 -4.5 30.5l13.5 -15.5c9 -10.333 12.833 -22.5 11.5 -36.5l15 41l1 -70l29 45l4 -34l39 54l-14 -84l25 16l-9 -62l20 9
c13.333 6 20.666 14 21.999 24l-1.5 -26.5c-1 -17.667 -6.16699 -28.5 -15.5 -32.5l8 -10c5.33301 -6.66699 13.666 -5.66699 24.999 3l5.5 -30c3.66699 -20 0.5 -34.333 -9.5 -43l22 -14l-24 -5l-9.5 -27c-6.33301 -18 -17.5 -28 -33.5 -30l-15.5 -1
c-10.333 -0.666992 -21.833 1.33301 -34.5 6s-25 12.834 -37 24.501s-20 29.834 -24 54.501l-12 18.5c-8 12.333 -26.333 20.5 -55 24.5l15 3c10 2 20.667 0.666992 32 -4l-18.5 12.5c-12.333 8.33301 -28.166 16.166 -47.499 23.499s-41.5 11.333 -66.5 12
s-50.167 -6.66602 -75.5 -21.999l-17.5 -20.5c-11.667 -13.667 -18.5 -28.834 -20.5 -45.501l9.5 16.5c6.33301 11 14.166 17.167 23.499 18.5l-7.5 -27c-5 -18 -9.16699 -40 -12.5 -66s-4.16602 -53.667 -2.49902 -83s9.5 -55.666 23.5 -78.999l-6 25
c-4 16.667 -3 28.667 3 36l4.5 -26.5c3 -17.667 10.167 -38.834 21.5 -63.501s27.833 -50.667 49.5 -78s51.167 -51 88.5 -71l56.5 -20c37.667 -13.333 77.5 -11.666 119.5 5.00098l-4.5 20.5c-3 13.667 -6.83301 28.5 -11.5 44.5s-10.334 30.167 -17.001 42.5
s-13.667 17.166 -21 14.499l-26 -14.5c-17.333 -9.66699 -25 -18.834 -23 -27.501l-32 3c-21.333 2 -39.333 14.667 -54 38l8 -6.5c5.33301 -4.33301 15.666 -5.5 30.999 -3.5l-33.5 14.5c-22.333 9.66699 -36.166 25.5 -41.499 47.5l9.5 -14
c6.33301 -9.33301 14.166 -12 23.499 -8l-27 40l11 12l-24 12l11 5l-17 12.5c-11.333 8.33301 -15.666 19.166 -12.999 32.499z" />
    <glyph glyph-name="H" unicode="H" horiz-adv-x="551" 
d="M34 387l-125.997 275.008l-12 16.5c-8 11 -20.333 14.167 -37 9.5l9 59l-15 21.5c-10 14.333 -9 26.5 3 36.5l16 -23.5c10.667 -15.667 22.667 -21.5 36 -17.5l-5.5 22.5c-3.66699 15 -8.5 22.5 -14.5 22.5l29 -7.5c19.333 -5 41.833 -12.833 67.5 -23.5
s51.667 -24.5 78 -41.5s46.833 -37.167 61.5 -60.5l-20 -19c-13.333 -12.667 -15.666 -28 -6.99902 -46l-9 13.5c-6 9 -8 17.167 -6 24.5c-1.33301 0 -0.666016 -10.167 2.00098 -30.5s7 -43.333 13 -69s13.833 -49.834 23.5 -72.501s20.834 -35.667 33.501 -39l38 -7
c25.333 -4.66699 52 -2 80 8l-44 -4.5c-29.333 -3 -47 -1.5 -53 4.5l53 6.5c35.333 4.33301 61 12.833 77 25.5v25.5c0 17 -0.5 36.5 -1.5 58.5s-3 43.333 -6 64s-7.5 34.667 -13.5 42l3 -40.5c2 -27 1.33301 -42.5 -2 -46.5l-4.5 23.5
c-3 15.667 -6.83301 33.167 -11.5 52.5s-9.33398 37.166 -14.001 53.499s-9 25.166 -13 26.499l-4 16c-2.66699 10.667 -1 23 5 37l7.5 -25.5c5 -17 15.5 -24.5 31.5 -22.5l-3.5 17c-2.33301 11.333 -0.166016 20.666 6.50098 27.999c4.66699 -20.667 14.5 -36.667 29.5 -48
s30.667 -20.833 47 -28.5l46.5 -21.5c14.667 -6.66699 24.667 -15.334 30 -26.001l3 -6l14 -15l12 -100l-22 70l-2 -40c1.33301 -11.333 1.16602 -38 -0.500977 -80s-2.66699 -87.833 -3 -137.5s1 -97.167 4 -142.5s9.5 -77 19.5 -95l-3.5 38.5
c-2.33301 25.667 -0.166016 46.5 6.50098 62.5l1.5 -22c1 -14.667 3.16699 -30.5 6.5 -47.5s7.66602 -32.667 12.999 -47s12.666 -20.833 21.999 -19.5l8 -12c5.33301 -8 3.66602 -15 -5.00098 -21l-25 -26c-16.667 -17.333 -32 -24.333 -46 -21l-15.5 4.5
c-10.333 3 -21.333 10.5 -33 22.5s-21.5 29.833 -29.5 53.5s-9.66699 56.167 -5 97.5l0.5 19.5c0.333008 13 0.5 27.5 0.5 43.5s-0.333008 31.333 -1 46s-2.33398 23.667 -5.00098 27l0.5 -34c0.333008 -22.667 -0.5 -36.667 -2.5 -42l-1.5 18c-1 12 -2.5 25.833 -4.5 41.5
s-4.33301 30.667 -7 45s-5.33398 24.166 -8.00098 29.499l-48.5 -16c-32.333 -10.667 -51.5 -20.334 -57.5 -29.001l25.5 10c17 6.66699 34.5 10 52.5 10l-42.5 -21c-28.333 -14 -41.166 -27 -38.499 -39l9 -33c6 -22 13.333 -46.333 22 -73s17.5 -51.834 26.5 -75.501
s16.5 -37.5 22.5 -41.5l3 31l11 -48c7.33301 -32 12 -48.333 14 -49l-25 -21l-34.5 14c-23 9.33301 -43.833 37 -62.5 83l-17 28l-37.5 65c-13.667 24.667 -26.334 48.667 -38.001 72s-17.834 40 -18.501 50l-22 25c-14.667 16.667 -31 25 -49 25l29 12l-54 3l38 12l-35 16z
" />
    <glyph glyph-name="I" unicode="I" horiz-adv-x="476" 
d="M-211 753c8.66699 -5.33301 33.3398 -6.83105 74.0068 -4.49805s84.667 6.16602 132 11.499s92.333 10.833 135 16.5s70.667 9.16699 84 10.5c81.333 -2 132.666 -11 153.999 -27s25.666 -34 12.999 -54s-36 -39.167 -70 -57.5s-65.667 -30.833 -95 -37.5
c13.333 -8.66699 21.333 -41 24 -97s3 -116 1 -180s-4.83301 -121.833 -8.5 -173.5l-5.5 -77.5c45.333 14 90.333 20.333 135 19l67 -2c16.667 -17.333 24.667 -30.666 24 -39.999s-4.5 -16 -11.5 -20s-14.167 -6.33301 -21.5 -7s-8.66602 -0.666992 -3.99902 0
c-48 0 -93.833 -5.66699 -137.5 -17s-82.334 -24.166 -116.001 -38.499s-60.334 -27.5 -80.001 -39.5l-29.5 -18c-44 7.33301 -74.833 22.166 -92.5 44.499s-28.334 45.333 -32.001 69s-3.5 44.834 0.5 63.501l6 28c-2 -12 7.5 -21.667 28.5 -29s44.333 -13.333 70 -18
s49.5 -7.83398 71.5 -9.50098l33 -2.5c18 -2.66699 21 18.666 9 63.999s-28.667 95.5 -50 150.5s-42.5 105.833 -63.5 152.5l-31.5 70c-31.333 -26.667 -60.333 -42 -87 -46s-49.834 -3 -69.501 3s-35 13.667 -46 23l-16.5 14c-26.667 46 -41.334 85.333 -44.001 118
s-0.333984 59.167 6.99902 79.5s16.333 35.166 27 44.499z" />
    <glyph glyph-name="J" unicode="J" horiz-adv-x="406" 
d="M-25 693c44 4 85 16.6631 123 37.9961s76 47.666 114 78.999c68.667 -30.667 111.834 -53.167 129.501 -67.5l26.5 -21.5c11.333 -16 17.333 -36.333 18 -61l1 -37c-10 7.33301 -29.333 10.5 -58 9.5l-43 -1.5l8 -10c-14 4.66699 -23.667 2.33398 -29 -6.99902l-8 -14
c-8 -10 -4.16699 -22.667 11.5 -38l23.5 -23c-8 -2.66699 -11.667 -11.667 -11 -27l1 -23l14 8c-4 -4 -5.5 -13.333 -4.5 -28l1.5 -22c4 7.33301 7.5 13 10.5 17l4.5 6l-4 -39c-3.33301 -33.333 2.5 -61.333 17.5 -84l22.5 -34c4 4 4.83301 10.833 2.5 20.5l-3.5 14.5
c10 -15.333 18.667 -38.833 26 -70.5l11 -47.5l4 22c1.33301 -5.33301 2 -16.166 2 -32.499s-0.5 -33.166 -1.5 -50.499s-1.83301 -32.666 -2.5 -45.999l-1 -20c-3.33301 -21.333 -15.333 -38.166 -36 -50.499l-31 -18.5c-56 -34 -102 -46.333 -138 -37l-54 14l10 11
c-6 2 -12.167 1.5 -18.5 -1.5l-9.5 -4.5l10 18c-38 2 -58.667 8.16699 -62 18.5l-5 15.5l-8 -14l-14 15c-26 14 -47.5 36 -64.5 66l-25.5 45c-3.33301 0.666992 -7.5 3.16699 -12.5 7.5l-7.5 6.5l9 -2c-16 22 -22.5 52 -19.5 90l4.5 57c-2 -28 2 -53.333 12 -76l15 -34
l11 -8l-2 13c-15.333 46.667 -19.833 86.334 -13.5 119.001l9.5 49c-6 -27.333 -6.83301 -51.5 -2.5 -72.5l6.5 -31.5l5 9c12 -34.667 22.5 -54.334 31.5 -59.001l13.5 -7l1 34l19 -41c26 -54 51.5 -85.833 76.5 -95.5l37.5 -14.5c8.66699 -8 23.667 -9 45 -3l32 9l19 12
l-14 2l26 17c6 9.33301 6.83301 26.833 2.5 52.5l-6.5 38.5l1.5 -12c1 -8 1.16699 -6.66699 0.5 4c-0.666992 4.66699 -7.83398 22.834 -21.501 54.501l-45.5 101l-45 97l-20 43.5l-17 7c-12 0.666992 -25.333 -3.16602 -40 -11.499s-28.5 -17.833 -41.5 -28.5
s-24.167 -20.334 -33.5 -29.001l-14 -13c-38 -2 -71.333 6.16699 -100 24.5s-52.5 39.166 -71.5 62.499s-33.5 44.833 -43.5 64.5l-15 29.5c3.33301 -6.66699 7.83301 -8.33398 13.5 -5.00098l8.5 5c-22 24 -33 42.5 -33 55.5v19.5c5.33301 -13.333 13.666 -22 24.999 -26
l17 -6c-4 2.66699 -6.83301 8.33398 -8.5 17.001l-2.5 13c4 -8 11 -13.667 21 -17l15 -5c8.66699 -2 21.834 -3 39.501 -3s35.5 0.166992 53.5 0.5s33.667 0.833008 47 1.5l20 1l47 19z" />
    <glyph glyph-name="K" unicode="K" horiz-adv-x="593" 
d="M8 344l-5.00098 58.501c-3.33301 39 -15 73.5 -35 103.5l-19 35.5c-12.667 23.667 -22.667 58.167 -30 103.5l-18 19l2 23l20 7l-17 21l16 6l-19 13l-7.5 10.5c-5 7 -5.16699 12.833 -0.5 17.5l11 -8c7.33301 -5.33301 14 -5 20 1l4.5 14c3 9.33301 7.83301 15 14.5 17
l37.5 2.5c25 1.66699 53.167 -12.833 84.5 -43.5l3.5 -4.5c2.33301 -3 5.5 -6.5 9.5 -10.5l13 3.5c8.66699 2.33301 13.334 3.5 14.001 3.5c0 -0.666992 -4.16699 -2.33398 -12.5 -5.00098l-12.5 -4c6 -7.33301 12.167 -15.5 18.5 -24.5s9.5 -16.167 9.5 -21.5l4.5 -8
c3 -5.33301 8.5 0.333984 16.5 17.001l11.5 5c7.66699 3.33301 11.5 -1 11.5 -13l10.5 -6c7 -4 -2.16699 -14 -27.5 -30l-6 -16v-35v-86l-17 49l-5 -30c-3.33301 -20 -6 -42.5 -8 -67.5s-2.33301 -48.5 -1 -70.5s6.66602 -35 15.999 -39l8.5 -3c5.66699 -2 12.167 2 19.5 12
c8 23.333 25 43.333 51 60c10.667 6.66699 28.667 29.334 54 68.001s39 67 41 85l3.5 21l8 47.5c3 17.667 5.5 34.667 7.5 51s2.66699 27.166 2 32.499l1.5 26c1 17.333 12.833 16.666 35.5 -2.00098l30 -3l7.5 -19c5 -12.667 13.833 -21.667 26.5 -27h33l19 -31.5
c12.667 -21 25.334 -32.5 38.001 -34.5c0.666992 -0.666992 2.66699 -7 6 -19s5.33301 -18 6 -18l-13 33l-9 -12l1 -43l13.5 -10c9 -6.66699 3.5 -12.667 -16.5 -18l-2 -27l-49 -11.5c-32.667 -7.66699 -56.667 -18.834 -72 -33.501l13 15.5
c8.66699 10.333 16.667 17.5 24 21.5l-50.5 -18.5c-33.667 -12.333 -60.5 -43.5 -80.5 -93.5l28 4l-19.5 -17c-13 -11.333 -17.5 -21 -13.5 -29c1.33301 -4 9.33301 -13.833 24 -29.5l49 -50c18 -17.667 35 -33.5 51 -47.5s26.333 -21 31 -21l18.5 -8
c12.333 -5.33301 25.5 -7.33301 39.5 -6l13 -13.5l29 -31.5c10.667 -12 20.334 -23.833 29.001 -35.5s12.667 -20.167 12 -25.5l-6.5 -35c-4.33301 -23.333 -11.5 -36.333 -21.5 -39l-15 -2c-10 -1.33301 -22 0.333984 -36 5.00098s-28.667 14 -44 28s-28.333 36.333 -39 67
l-12 23.5c-8 15.667 -19.333 34.5 -34 56.5l-38 35.5c-25.333 23.667 -52 41.834 -80 54.501l-41 -1l-19.5 -29.5c-13 -19.667 -19.5 -32.167 -19.5 -37.5l5 -37c3.33301 -24.667 31 -45.334 83 -62.001l24 -11l-2 -21l40 -5l-1.5 -15c-1 -10 -11.5 -20 -31.5 -30l-5 -32
h-26l-24 -28l-31 3.5c-20.667 2.33301 -42 20.5 -64 54.5l-43 93.5c-28.667 62.333 -53.334 134.5 -74.001 216.5z" />
    <glyph glyph-name="L" unicode="L" horiz-adv-x="620" 
d="M62 33l7.50098 38.0039c5 25.333 -5.83301 46 -32.5 62l25.5 -4.5c17 -3 27.833 -7.5 32.5 -13.5v39l-6 41.5c-4 27.667 -9.83301 60 -17.5 97s-17.5 73.667 -29.5 110s-26 63.166 -42 80.499l9.5 -24.5c6.33301 -16.333 13 -35 20 -56s13.167 -41.333 18.5 -61
s7 -32.834 5 -39.501l-26.5 51.5l-61 114.5c-23 42 -45.333 80.833 -67 116.5s-36.5 54.5 -44.5 56.5l-12 119l-22 32l23.5 -10c15.667 -6.66699 25.167 -14 28.5 -22l-10 18c-6.66699 12 -8 22.333 -4 31l17 23l2 -36c1.33301 -24 15.333 -40.667 42 -50l-15 15.5
c-10 10.333 -10.667 18.833 -2 25.5l19 -22c12.667 -14.667 27 -18.667 43 -12l20 -6c13.333 -4 28.333 -9.33301 45 -16s32.167 -14.334 46.5 -23.001s22.5 -17.334 24.5 -26.001l6 -59c4 -39.333 9 -83.166 15 -131.499s12.667 -94 20 -137s14.333 -68.167 21 -75.5
l-6.5 45c-4.33301 30 -10.5 79.667 -18.5 149l3.5 -18.5c2.33301 -12.333 5.5 -25.833 9.5 -40.5s8.33301 -28.334 13 -41.001s9 -19.667 13 -21l9.5 -33c6.33301 -22 14.166 -46 23.499 -72s18.833 -49.667 28.5 -71s17.834 -31 24.501 -29l18.5 -3
c12.333 -2 27.5 -2 45.5 0s37.5 7.5 58.5 16.5s40.167 24.5 57.5 46.5l21.5 -6.5c14.333 -4.33301 29.666 -11.166 45.999 -20.499s30.333 -21.833 42 -37.5s14.834 -34.5 9.50098 -56.5l9.5 5.5c6.33301 3.66699 9.5 11.5 9.5 23.5l5 -13.5
c3.33301 -9 5.16602 -19.333 5.49902 -31s-2.16699 -23.334 -7.5 -35.001s-17 -20.167 -35 -25.5l-29 -1l-22.5 16.5c-15 11 -40.167 13.5 -75.5 7.5l-26 -4.5c-17.333 -3 -36.5 -7.83301 -57.5 -14.5s-40.333 -15 -58 -25s-26.5 -22.667 -26.5 -38l-90 9
c-6 0.666992 -10.833 8.16699 -14.5 22.5s-23.5 26.833 -59.5 37.5h-8.5c-5.66699 0 -8.5 -2 -8.5 -6c0 -4.66699 -2.5 -3.66699 -7.5 3s-5.83301 12 -2.5 16z" />
    <glyph glyph-name="M" unicode="M" horiz-adv-x="626" 
d="M-134 726l-3.49902 11.0029c-2.33301 7.33301 -12.5 27.666 -30.5 60.999c-8.66699 16 -10.5 21.167 -5.5 15.5l25 -29c11.667 -13.667 24.667 -27.167 39 -40.5s26.166 -19.333 35.499 -18l-10.5 9c-7 6 -6.5 14 1.5 24l41 -30.5c27.333 -20.333 55 -22.833 83 -7.5
l11.5 -32.5c7.66699 -21.667 17.5 -30.834 29.5 -27.501l-11 -41l24 30l-11 -82l230 -338l-69 496l1.5 45.5c1 30.333 4.16699 54.5 9.5 72.5l2 -31.5c1.33301 -21 7.66602 -32.5 18.999 -34.5l4.5 15c3 10 -1.83301 25.333 -14.5 46l21.5 -25
c14.333 -16.667 31.666 -34 51.999 -52s41.333 -33.333 63 -46s39.5 -15.334 53.5 -8.00098l34 -43c22.667 -28.667 41 -44.334 55 -47.001l-12.5 -18.5c-8.33301 -12.333 -16.166 -27.166 -23.499 -44.499s-12.5 -35.333 -15.5 -54s0.5 -34.334 10.5 -47.001l66 -315
l-12 121l6.5 -30l14 -68c5 -25.333 9.16699 -49.5 12.5 -72.5s4.33301 -37.5 3 -43.5l-3 -75l-17 21l-2 -26.5c-1.33301 -17.667 3.66699 -28.5 15 -32.5l-45 40.5c-30 27 -45 62.5 -45 106.5c-2 -0.666992 -7 13.333 -15 42l-26.5 97l-28 103
c-9 32.667 -15.167 53 -18.5 61l-5 -31c-3.33301 -20.667 -6.16602 -45.334 -8.49902 -74.001s-3 -58.334 -2 -89.001s5.83301 -56 14.5 -76l-2.5 21c-1.66699 14 -2.83398 30.167 -3.50098 48.5s-0.5 36.333 0.5 54s4.5 30.167 10.5 37.5
c-0.666992 0.666992 -1.5 -6.16602 -2.5 -20.499s-1.16699 -31.5 -0.5 -51.5s2.83398 -40.333 6.50098 -61s10.5 -36.667 20.5 -48l5 -7c3.33301 -4.66699 1 -11 -7 -19l-15 -29c-10 -19.333 -24.333 -27.333 -43 -24l-39 13.5c-26 9 -39 22.833 -39 41.5l2 20.5
c1.33301 13.667 -2 23.834 -10 30.501l-21 26.5c-14 17.667 -29.167 37.834 -45.5 60.501s-31.333 44.667 -45 66s-20.5 35.666 -20.5 42.999l11.5 -45c7.66699 -30 17.667 -64 30 -102s26.5 -74.167 42.5 -108.5s32.667 -55.833 50 -64.5l2 -32
c1.33301 -21.333 -5.33398 -39.666 -20.001 -54.999l-19 4.5c-12.667 3 -27.167 8 -43.5 15s-32.166 15.833 -47.499 26.5s-25.666 24 -30.999 40l-22 42c-14.667 28 -32.667 46 -54 54l15.5 3c10.333 2 22.166 1 35.499 -3c-5.33301 -4 -15.333 13.333 -30 52l-50.5 135.5
l-58 152.5c-19.667 50 -36.834 84.667 -51.501 104l-23 -7l10 52l-24.5 39.5c-16.333 26.333 -31.5 39.5 -45.5 39.5l12.5 11c8.33301 7.33301 6.83301 16 -4.5 26l4 9.5c2.66699 6.33301 -0.666016 16.833 -9.99902 31.5l-7 16z" />
    <glyph glyph-name="N" unicode="N" horiz-adv-x="553" 
d="M-147 674l-4 9.99707c-2.66699 6.66699 -13.334 25.667 -32.001 57c-8.66699 14.667 -10.5 19.334 -5.5 14.001l25.5 -27c12 -12.667 25.667 -25.167 41 -37.5s28 -17.833 38 -16.5l-11 8.5c-7.33301 5.66699 -7 12.834 1 21.501l42.5 -28
c28.333 -18.667 57.5 -21 87.5 -7l12 -30c8 -20 18.333 -28.667 31 -26l-12 -38l25 28l-11 -76l275 -346l-67 307l-47 88l37 -44l-31 142l2 42.5c1.33301 28.333 4.66602 50.5 9.99902 66.5l2 -29c1.33301 -19.333 8 -30 20 -32l5 13.5c3.33301 9 -1.66699 23.167 -15 42.5
l25.5 -30.5c17 -20.333 37.667 -40.833 62 -61.5s49.833 -36.5 76.5 -47.5s49.667 -6.83301 69 12.5l-1.5 -8c-1 -5.33301 -0.5 -11.333 1.5 -18c0 -0.666992 2.5 -0.5 7.5 0.5l7.5 1.5c-8.66699 -2.66699 -13 -5.66699 -13 -9c0 -6 6.66699 -13 20 -21
c-33.333 -2.66699 -56 -19.334 -68 -50.001s-18.5 -64 -19.5 -100s0.666992 -69.167 5 -99.5s6.83301 -46.166 7.5 -47.499l5 -4l-4.5 -27.5c-1.66699 -10.333 -3.16699 -21.166 -4.5 -32.499c-3.33301 -28 -5.16602 -57.167 -5.49902 -87.5s4.16699 -55.5 13.5 -75.5
l-2.5 19c-1.66699 12.667 -3 27.5 -4 44.5s-0.833008 33.667 0.5 50s5 28.166 11 35.499c-0.666992 0.666992 -1.5 -5.66602 -2.5 -18.999s-1.16699 -29.333 -0.5 -48s3 -37.5 7 -56.5s11.333 -33.833 22 -44.5l4.5 -7c3 -4.66699 0.5 -10.667 -7.5 -18l-13.5 -16
c-9 -10.667 -23.5 -15 -43.5 -13l-33.5 -0.5c-22.333 -0.333008 -33.5 7.83398 -33.5 24.501l-6.5 23c-4.33301 15.333 -10.833 26 -19.5 32l-27.5 29.5l-60 67c-21.667 25 -41.5 49.167 -59.5 72.5s-27 38.333 -27 45l12 -42c8 -28 18.5 -59.667 31.5 -95
s27.833 -69 44.5 -101s34 -52 52 -60l2.5 -30c1.66699 -20 -5.5 -37 -21.5 -51l-20 4.5c-13.333 3 -28.333 7.66699 -45 14s-33 14.666 -49 24.999s-27 22.833 -33 37.5l-23 38.5c-15.333 25.667 -34 42.5 -56 50.5l16 2.5c10.667 1.66699 23 0.5 37 -3.5
c-5.33301 -3.33301 -15.833 13 -31.5 49l-52.5 126c-19.333 48 -39.5 95.167 -60.5 141.5s-39.167 78.5 -54.5 96.5l-23 -7l10 49l-26 36.5c-17.333 24.333 -33 36.5 -47 36.5l13 10c8.66699 6.66699 7 15 -5 25l4 8.5c2.66699 5.66699 -0.666016 15.5 -9.99902 29.5l-7 15z
" />
    <glyph glyph-name="O" unicode="O" horiz-adv-x="586" 
d="M149 699l8.5 36.9971c5.66699 24.667 -1.16602 44 -20.499 58l30.5 -23.5c20.333 -15.667 32.166 -29.5 35.499 -41.5l10 26c6.66699 17.333 4.33398 32 -6.99902 44l44.5 -27c29.667 -18 59.834 -41 90.501 -69s55 -58.833 73 -92.5s15 -66.5 -9 -98.5l-5 -22.5
c-3.33301 -15 9.66699 -31.5 39 -49.5c39.333 -31.333 69.166 -77.5 89.499 -138.5s22.5 -118.5 6.5 -172.5s-54.333 -95.5 -115 -124.5s-151.334 -27.833 -272.001 3.5c-101.333 36 -173.5 85.833 -216.5 149.5s-62 129.834 -57 198.501s31.5 134.334 79.5 197.001
s113 111.334 195 146.001zM363 460.997c-97.333 -42 -165.334 -81 -204.001 -117s-58 -67.667 -58 -95s14.5 -50 43.5 -68s62.833 -29.667 101.5 -35s77.334 -3.83301 116.001 4.5s67.667 25 87 50s24.333 58.833 15 101.5s-43 95.667 -101 159z" />
    <glyph glyph-name="P" unicode="P" horiz-adv-x="460" 
d="M-270 644c27.333 -10 55.668 -10.8291 85.001 -2.49609s57.833 20.166 85.5 35.499s54 32.166 79 50.499s47.167 32.833 66.5 43.5l34 6.5c22.667 4.33301 50 7 82 8s65 -1.66699 99 -8s62.333 -19.833 85 -40.5l22.5 -26.5c15 -17.667 29 -41 42 -70
s21 -62.167 24 -99.5s-7.83301 -76 -32.5 -116l-11.5 -22c-7.66699 -14.667 -21.334 -31.334 -41.001 -50.001s-46.167 -36.334 -79.5 -53.001s-75.666 -27 -126.999 -31l58 -247l5 -82l-12 12l-5 -20l-19 15.5c-12.667 10.333 -27 23.166 -43 38.499l-9.5 32.5
c-6.33301 21.667 -14.5 38.5 -24.5 50.5l-140 366c-2 5.33301 -10 5 -24 -1s-27 -2 -39 12l-10 3c-6.66699 2 -15.334 1 -26.001 -3l-2 10.5c-1.33301 7 2 11.167 10 12.5l-24.5 2.5c-16.333 1.66699 -32.833 11.834 -49.5 30.501l6 -0.5
c4 -0.333008 4.33301 3.16699 1 10.5l-32.5 29c-21.667 19.333 -32.5 46 -32.5 80l5.5 -4.5c3.66699 -3 6.5 -3.5 8.5 -1.5l-7 11.5c-4.66699 7.66699 -7 13.5 -7 17.5zM79.002 582.004l45 -234.999l32 19c21.333 12.667 43.666 30.5 66.999 53.5s42.833 50.167 58.5 81.5
s17.834 65.666 6.50098 102.999l-22.5 19.5c-15 13 -36.5 15.833 -64.5 8.5c-0.666992 0.666992 -6.66699 -1.33301 -18 -6l-38 -16l-40.5 -17.5c-13 -5.66699 -21.5 -9.16699 -25.5 -10.5z" />
    <glyph glyph-name="Q" unicode="Q" horiz-adv-x="801" 
d="M150 702l4.49512 37.5c3 25 -3.5 44.5 -19.5 58.5l25.5 -23.5c17 -15.667 27.167 -29.5 30.5 -41.5l6.5 26c4.33301 17.333 1.83301 32 -7.5 44l36.5 -27.5c24.333 -18.333 49.333 -41.5 75 -69.5s46.334 -59 62.001 -93s14.834 -67 -2.49902 -99l-2.5 -22.5
c-1.66699 -15 9.5 -31.833 33.5 -50.5c34 -32.667 60.333 -81.167 79 -145.5s21.667 -123.833 9 -178.5c56.667 -38 111.667 -73.167 165 -105.5s86 -49.5 98 -51.5l-7.5 -3c-5 -2 -9.5 -2 -13.5 0l11.5 -4.5c7.66699 -3 14.167 -3.83301 19.5 -2.5l-5 -10l15 -10l-35 3
c-23.333 2 -39.666 -0.333008 -48.999 -7l-32 -6c-21.333 -4 -39.666 -1.66699 -54.999 7l-35 30c-23.333 20 -37.666 35 -42.999 45c-5.33301 10.667 -1.5 8.66699 11.5 -6s25.167 -22.667 36.5 -24l-31 26l-73 62c-20.667 -33.333 -53 -56.5 -97 -69.5
s-103.333 -7.5 -178 16.5c-82 36 -141.5 86 -178.5 150s-55.333 130.667 -55 200s18 135.5 53 198.5s84.167 111.833 147.5 146.5zM346.995 152l-58.002 41.999c-16 11.333 -25.667 16.333 -29 15l-26 26l10 3l-16 26l22 -12.5c14.667 -8.33301 24 -8.16602 28 0.500977
l32 -22l81 -54c24.667 22 35.167 56.167 31.5 102.5s-34.5 107.5 -92.5 183.5c-93.333 -52.667 -151.666 -100.5 -174.999 -143.5s-26.666 -78.833 -9.99902 -107.5s45.5 -48.667 86.5 -60s79.5 -11 115.5 1z" />
    <glyph glyph-name="R" unicode="R" horiz-adv-x="752" 
d="M-215 737l9.50293 14.499c6.33301 9.66699 4.5 23.5 -5.5 41.5l20.5 -12c13.667 -8 19.5 -16 17.5 -24l21 42v-18c0 -12 6.33301 -19.333 19 -22l40 14.5c26.667 9.66699 60.667 19 102 28s87.166 14.833 137.499 17.5s99.166 -3 146.499 -17l22.5 -10
c15 -6.66699 32.667 -17 53 -31s40.833 -31.667 61.5 -53s36.667 -46.666 48 -75.999l18.5 -73.5c12.333 -49 2.83301 -104.833 -28.5 -167.5l8.5 32.5c5.66699 21.667 7.83398 38.5 6.50098 50.5l-5.5 -25c-3.66699 -16.667 -9.5 -35.5 -17.5 -56.5s-18.5 -41 -31.5 -60
s-28.833 -30.833 -47.5 -35.5l13 10c8.66699 6.66699 15 16.334 19 29.001l-21.5 -25.5c-14.333 -17 -30.166 -25.5 -47.499 -25.5l19 9.5c12.667 6.33301 16 13.833 10 22.5c-4 -2 -15 -7.83301 -33 -17.5s-28 -17.834 -30 -24.501l40.5 -68l92.5 -150l101 -153.5
c32.667 -47.667 54.334 -74.167 65.001 -79.5l11 -35l15 42l4 -43l11 45l-1.5 -15c-1 -10 2.16699 -20 9.5 -30c14 -20 24.167 -44.833 30.5 -74.5s8.83301 -49.5 7.5 -59.5c7.33301 5.33301 12.666 2 15.999 -10s-7.33398 -20 -32.001 -24c14.667 -3.33301 19 -6.5 13 -9.5
s-17.667 -2.33301 -35 2s-37.666 14 -60.999 29s-44.333 38.5 -63 70.5l8 -9.5c5.33301 -6.33301 10.666 -9.83301 15.999 -10.5l-12 16.5c-8 11 -10 22.5 -6 34.5l-25.5 39.5l-50 77l-66 98l-72.5 102c-24 33 -47.167 63 -69.5 90s-41.833 47 -58.5 60
s-29.334 17.333 -38.001 13s-11 -20.833 -7 -49.5l5 -68l3 26c2 17.333 6 28 12 32l-3.5 -40.5c-2.33301 -27 -1.83301 -43.833 1.5 -50.5l8.5 -12c5.66699 -8 7.5 -15.667 5.5 -23l-3.5 -24.5c-2.33301 -16.333 -6.83301 -25.833 -13.5 -28.5l-1 17
c-0.666992 11.333 -4 16.333 -10 15l-5 -37c-3.33301 -24.667 -2.66602 -41 2.00098 -49l-18 27.5c-12 18.333 -20.667 43.5 -26 75.5l-3 12c-2 8 -6 17 -12 27l-14 6c-9.33301 4 -15 5 -17 3l5.5 70.5c3.66699 47 -0.166016 90.167 -11.499 129.5l-5 -41
c-3.33301 -27.333 -7 -49 -11 -65l2 18c1.33301 12 2.16602 25 2.49902 39s-0.166992 26.5 -1.5 37.5s-5 15.833 -11 14.5l-8 37.5c-5.33301 25 -10.5 54.5 -15.5 88.5s-9 68.167 -12 102.5s-2.5 60.833 1.5 79.5l-18 -2c-12 -1.33301 -21 -8.33301 -27 -21l-12 -27.5
c-8 -18.333 -9.33301 -30.833 -4 -37.5l-30 13l-9 -22.5c-6 -15 -6.66699 -27.5 -2 -37.5l-10 11.5c-6.66699 7.66699 -8 18.5 -4 32.5l-16 10.5c-10.667 7 -20.334 3.5 -29.001 -10.5l-4 -9c-2.66699 -6 -3.33398 -12 -2.00098 -18l-6.5 20.5
c-4.33301 13.667 -3.16602 25.5 3.50098 35.5l-25 -6l12 27l-13.5 7c-9 4.66699 -20.167 -2 -33.5 -20l-4 -10.5c-2.66699 -7 -4.33398 -12.5 -5.00098 -16.5v26c0 17.333 7.66699 31 23 41l-20.5 1c-13.667 0.666992 -24.167 12 -31.5 34l-12 45l12.5 -28
c8.33301 -18.667 20.833 -24 37.5 -16l13 24l-11 17c-7.33301 11.333 -18 16 -32 14l13 11.5c8.66699 7.66699 17 9.16699 25 4.5l-39 66l38 -33l-5 36zM139.003 646.999l-13.0039 -53.499c-8.66699 -35.667 -13 -64.5 -13 -86.5l11.5 23
c7.66699 15.333 13.834 23 18.501 23l-2 -25c-1.33301 -16.667 -2.16602 -35.334 -2.49902 -56.001s0.333984 -40.334 2.00098 -59.001s5.16699 -30 10.5 -34c92 -10 154.5 4 187.5 42s44.833 78.833 35.5 122.5s-35.666 79.334 -78.999 107.001s-95.333 26.5 -156 -3.5z
" />
    <glyph glyph-name="S" unicode="S" horiz-adv-x="616" 
d="M-225 642c10 88.667 40.502 146.836 91.502 174.503s105.167 41.167 162.5 40.5s109 -7 155 -19s68.667 -13 68 -3l-4 43l24 -43l15 41l12 -41c14 2 17 14.667 9 38l-12 35c17.333 -14 27.166 -31.167 29.499 -51.5l3.5 -30.5l22 17l4 -31l12 38l9 -56l11 12l5 -31l13 7
l-1 -21c6 -4.66699 14.5 -3 25.5 5l16.5 12c-2 -9.33301 -7.83301 -17 -17.5 -23l-14.5 -9l9 -17l15 -10l-9 -8c-6 -5.33301 -5 -9.66602 3 -12.999c7.33301 -4 13.833 -2.83301 19.5 3.5l8.5 9.5l-23 -40l36 17c0 -10.667 -2.5 -18.167 -7.5 -22.5l-7.5 -6.5
c10 2 18.5 -0.833008 25.5 -8.5l10.5 -11.5c-5.33301 7.33301 -14.333 9.16602 -27 5.49902l-19 -5.5l21 -8l-17 -9c16.667 -4 28.667 -12.833 36 -26.5l11 -20.5l-13 13c-16.667 14.667 -25 17.167 -25 7.5v-14.5c-3.33301 -30 -25.166 -51.333 -65.499 -64
s-72.5 3 -96.5 47c-9.33301 12 -23 21.667 -41 29s-36 13.333 -54 18s-33.667 7.83398 -47 9.50098l-20 2.5c6.66699 2.66699 22.834 3.16699 48.501 1.5l38.5 -2.5c-16 9.33301 -39.333 15.333 -70 18l-46 4c-29.333 2 -52.666 -2.16699 -69.999 -12.5
s-30.5 -22.166 -39.5 -35.499s-15.167 -25.666 -18.5 -36.999l-5 -17c-5.33301 -35.333 -4.83301 -63 1.5 -83s14.166 -34.833 23.499 -44.5s18.5 -15.5 27.5 -17.5l13.5 -3c44.667 -1.33301 98.667 0.166992 162 4.5s123.666 0 180.999 -13s105.5 -40 144.5 -81
s56.5 -106.833 52.5 -197.5c-18 -48 -45.667 -77.167 -83 -87.5l-56 -15.5c-15.333 -0.666992 -38.5 -1 -69.5 -1s-61.833 0.166992 -92.5 0.5s-57.5 0.666016 -80.5 0.999023l-34.5 0.5c5.33301 -6.66699 3.5 -17.834 -5.5 -33.501l-13.5 -23.5
c2.66699 3.33301 2.16699 13.166 -1.5 29.499l-5.5 24.5c2 -14 -5.5 -29.5 -22.5 -46.5l-25.5 -25.5l-8 46c-14.667 2 -27.334 9.16699 -38.001 21.5s-19.334 25.833 -26.001 40.5s-11.5 27.834 -14.5 39.501l-4.5 17.5l19 -29c-10.667 33.333 -13.667 61.666 -9 84.999
s12 42.166 22 56.499s20 24.666 30 30.999l15 9.5l1 -18c6 16 21.833 25.167 47.5 27.5l38.5 3.5c-10 0 -16 -8.66699 -18 -26l-3 -26l25 11l-2 -52l20 3c-4 -8.66699 2.33301 -16.834 19 -24.501l25 -11.5c63.333 -10 106.166 -7.33301 128.499 8l33.5 23
c13.333 31.333 17.833 56.166 13.5 74.499s-11.666 32.333 -21.999 42s-21 15.834 -32 18.501l-16.5 4c-8 2 -30.833 3.16699 -68.5 3.5s-77.667 0 -120 -1s-80.333 -2 -114 -3l-50.5 -1.5c-59.333 4.66699 -103.5 25 -132.5 61s-49 74.5 -60 115.5
s-16.167 78.333 -15.5 112z" />
    <glyph glyph-name="T" unicode="T" horiz-adv-x="426" 
d="M-434 870l55.999 -38l-54 87l28 -4l-17.5 22.5c-11.667 15 -16.167 24.833 -13.5 29.5l17 -15.5c11.333 -10.333 24.833 -21.833 40.5 -34.5s32 -24.5 49 -35.5s31.167 -17.167 42.5 -18.5l81 -18.5l180 -40c66 -14.333 127.833 -27 185.5 -38s90.5 -15.167 98.5 -12.5
l37 -24l21 9l82 -54l2 -6c1.33301 -4 -2 -7 -10 -9l15 -32h-17l13 -23l-5 -11.5c-3.33301 -7.66699 -10.333 -11.5 -21 -11.5l-26 3l-58.5 6.5c-21.667 2.33301 -42.667 3.83301 -63 4.5s-33.5 -0.333008 -39.5 -3l27 -50l50 -469l-4 -110l-12 32l-7 -58l-51 112l6 -35
l-12 19.5c-8 13 -16.667 28.167 -26 45.5l-27 52c-8.66699 17.333 -13.334 30 -14.001 38l-110 433l-25 -2c-16.667 -1.33301 -35.667 -3.33301 -57 -6s-41.666 -6.16699 -60.999 -10.5s-31.666 -9.83301 -36.999 -16.5l-61 25.5c-40.667 17 -70 33.5 -88 49.5l-15.5 28.5
l-35.5 66l-38.5 73c-12.333 23.667 -20.5 40.167 -24.5 49.5z" />
    <glyph glyph-name="U" unicode="U" horiz-adv-x="573" 
d="M-117 671l-13.9951 25.9961c-9.33301 17.333 -17.833 36.833 -25.5 58.5s-11.334 42 -11.001 61s10.166 30.167 29.499 33.5c14 -1.33301 34.333 -5 61 -11s54.5 -18 83.5 -36s57 -43.667 84 -77s47.833 -77.666 62.5 -132.999l-23 -16.5
c-15.333 -11 -28.666 -28.667 -39.999 -53s-16 -56.5 -14 -96.5s20 -89 54 -147c58 -92.667 109.667 -141 155 -145s77.5 18.333 96.5 67s21.333 114.334 7 197.001s-51.833 165 -112.5 247l45 -13l-30 83l80 -70l12 47l39 -99l-1 57c-0.666992 8.66699 3 6.5 11 -6.5
s17.5 -33.667 28.5 -62s22.667 -62 35 -101s22.666 -80 30.999 -123s13.666 -85.667 15.999 -128s-0.833984 -80.833 -9.50098 -115.5s-24 -63.5 -46 -86.5s-52.667 -36.5 -92 -40.5c-99.333 -2 -176.833 23.5 -232.5 76.5s-99.667 116.833 -132 191.5
s-58.333 150.834 -78 228.501s-42.834 139.834 -69.501 186.501z" />
    <glyph glyph-name="V" unicode="V" horiz-adv-x="575" 
d="M-148 660l-24.4971 36.999c-16.333 24.667 -26.833 50.334 -31.5 77.001l-9 16.5c-6 11 -13.333 16.5 -22 16.5l16.5 5c11 3.33301 19.833 0 26.5 -10l-28 49l49 -29l-31 61l33.5 -36.5c22.333 -24.333 41.5 -36.833 57.5 -37.5l70 -5.5
c46.667 -3.66699 91.667 -27.167 135 -70.5l-5 -35l52 6l-30 -22l15 -25.5c10 -17 8 -34.5 -6 -52.5l-11 -23c-7.33301 -15.333 -2.33301 -40 15 -74l22.5 -54.5c15 -36.333 33.167 -76.666 54.5 -120.999s43.166 -86 65.499 -125s40.5 -61.167 54.5 -66.5
c-2.66699 0.666992 -6 32.667 -10 96s-6.5 133.166 -7.5 209.499s0.333008 146.666 4 210.999s12.167 97.833 25.5 100.5l37.5 3.5c25 2.33301 48.5 0.833008 70.5 -4.5l47 -30.5c31.333 -20.333 51.333 -55.833 60 -106.5l-3 -39l-23 -17
c-15.333 -11.333 -32.166 -26.5 -50.499 -45.5s-35.333 -40.667 -51 -65s-23.834 -49.833 -24.501 -76.5l-2.5 -29c-1.66699 -19.333 -2.5 -41.5 -2.5 -66.5s1.5 -49.5 4.5 -73.5s9.5 -40.333 19.5 -49l9.5 -19c6.33301 -12.667 13.166 -27.667 20.499 -45
s14.333 -35 21 -53s10 -32.333 10 -43l-6 -24.5c-4 -16.333 -18 -29.5 -42 -39.5l-19.5 14c-13 9.33301 -28.5 19.333 -46.5 30s-36.833 19.5 -56.5 26.5s-36.167 8.5 -49.5 4.5l7 33l-48 52.5c-32 35 -69.667 80.667 -113 137s-86.833 119.833 -130.5 190.5
s-77.834 141.334 -102.501 212.001l-53 31z" />
    <glyph glyph-name="W" unicode="W" horiz-adv-x="690" 
d="M218 531c-5.33301 16.667 -8.33496 29.667 -9.00195 39l-5.5 13c-3.66699 8.66699 -7.83398 13.667 -12.501 15l9.5 1.5c6.33301 1 11.5 -2.5 15.5 -10.5l-16 41l27 -26l0.5 0.5c0.333008 0.333008 0.5 0.833008 0.5 1.5l-17 45l6 -10c4 -6.66699 9 -14 15 -22
c2 6.66699 5 10 9 10l31.5 -3.5c21 -2.33301 40.5 -7.5 58.5 -15.5l38.5 -36.5c25.667 -24.333 42.167 -61.5 49.5 -111.5l-4 -37l-2.5 -1.5c-1.66699 -1 -3.83398 -2.5 -6.50098 -4.5c-0.666992 -2.66699 -2.33398 -6.66699 -5.00098 -12l-2.5 10.5
c-1.66699 7 -2.83398 13.333 -3.50098 19s-0.5 8.66699 0.5 9s4.16699 -6.16699 9.5 -19.5l13 -43.5c8.66699 -29 19.167 -61.167 31.5 -96.5s25 -68.833 38 -100.5s23.833 -50.167 32.5 -55.5c-1.33301 0.666992 -3 25 -5 73s-3.16699 100.667 -3.5 158
s0.833984 109.833 3.50098 157.5s8 71.5 16 71.5l22.5 -2c15 -1.33301 29.167 -5 42.5 -11l27.5 -28c18.333 -18.667 29.833 -47.334 34.5 -86.001l-2 -28l-44 -38.5c-29.333 -25.667 -44.666 -58.5 -45.999 -98.5l-2 -21.5c-1.33301 -14.333 -2 -30.666 -2 -48.999
s0.833008 -36.5 2.5 -54.5s5.5 -31 11.5 -39l17.5 -52c11.667 -34.667 17.5 -60 17.5 -76l-3.5 -16.5c-2.33301 -11 -10.5 -19.167 -24.5 -24.5l-39 39.5c-26 26.333 -47 38.166 -63 35.499l4 24l-62.5 101c-41.667 67.333 -80.5 145 -116.5 233
c-8.66699 -21.333 -13 -39.666 -13 -54.999l-2.5 -27.5c-1.66699 -18.333 -2.66699 -39.5 -3 -63.5s0.833984 -47.833 3.50098 -71.5s8 -40.5 16 -50.5l7.5 -20l17 -47c6.33301 -18 12 -36 17 -54s7.5 -32.333 7.5 -43l-5.5 -22.5c-3.66699 -15 -15.167 -25.5 -34.5 -31.5
l-16.5 17c-11 11.333 -24 23.333 -39 36s-30.667 24 -47 34s-29.833 14 -40.5 12l6 31l-39.5 58c-26.333 38.667 -57.166 88.667 -92.499 150s-71 129.5 -107 204.5s-64 148.5 -84 220.5l-44 38l30 -11l-20 39.5c-13.333 26.333 -22 52.833 -26 79.5l-7 17
c-4.66699 11.333 -11 18 -19 20l14 2c9.33301 1.33301 17 -3.33398 23 -14.001l-23 52l40 -36l-25 64l28 -40.5c18.667 -27 34.334 -41.833 47.001 -44.5l59 -17c39.333 -11.333 76.333 -41 111 -89l-5 -33l44 -2l-25 -17l12 -26.5c8 -17.667 6.33301 -34.167 -5 -49.5
l-9.5 -21c-6.33301 -14 -2.5 -38.667 11.5 -74l18.5 -56c12.333 -37.333 27.166 -79.166 44.499 -125.499s35 -90 53 -131s33 -65.167 45 -72.5c-2 0.666992 -4.16699 14.167 -6.5 40.5s-4.16602 59.5 -5.49902 99.5s-2.16602 83.5 -2.49902 130.5s1.16699 91.5 4.5 133.5z
" />
    <glyph glyph-name="X" unicode="X" horiz-adv-x="861" 
d="M-302 646l40.999 -17.4961c27.333 -11.667 49.333 -16.834 66 -15.501l44.5 -8.5c29.667 -5.66699 50.5 -15.5 62.5 -29.5l20.5 -38.5c13.667 -25.667 19.5 -43.834 17.5 -54.501c-1.33301 -11.333 -4.5 -8.16602 -9.5 9.50098s-13.833 29.5 -26.5 35.5
c-2.66699 -2.66699 -0.5 -12.334 6.5 -29.001s17.5 -36.5 31.5 -59.5s30.5 -46.833 49.5 -71.5s39.167 -46 60.5 -64c7.33301 5.33301 12.333 9.33301 15 12l13 13c6 5.33301 10.167 9.83301 12.5 13.5s5.16602 8.5 8.49902 14.5
c0 -3.33301 -0.166992 -5.66602 -0.5 -6.99902l-0.5 -2c11.333 4 24.666 21.333 39.999 52s30 63.667 44 99s26 67.5 36 96.5l15 43.5c10.667 27.333 12.334 47.166 5.00098 59.499l-11 18.5c-14 14 -17.333 27.833 -10 41.5l11 20.5l-28 17l46 -4l-8 28
c32 34 68.167 52.5 108.5 55.5l60.5 4.5c13.333 0 28.5 9.66699 45.5 29l25.5 29l-22 -48l39 23l-19 -39c4.66699 8 12 10.667 22 8l15 -4c-8 0 -14 -4.33301 -18 -13l-6 -13c-2 -22 -8.66699 -42.667 -20 -62l-17 -29l29 4l-42 -24c-14 -54 -35.5 -107.667 -64.5 -161
s-58.833 -102 -89.5 -146s-58.5 -80.667 -83.5 -110l-44.5 -52l61 -37c-20 -7.33301 -14.5 -26.666 16.5 -57.999s69 -64.5 114 -99.5s88 -66.5 129 -94.5l61.5 -42c30.667 -24.667 56.834 -36 78.501 -34l32.5 3c28 8 49.167 5 63.5 -9l21.5 -21l41 21l-33 -47l43 -5
c14 -25.333 21 -50.5 21 -75.5s-2.83301 -47.5 -8.5 -67.5s-12 -36.167 -19 -48.5l-10.5 -18.5c-7.33301 -14 -2.66602 -34.833 14.001 -62.5l25 -41.5l-54 46l9 -53l-43 40c8 -9.33301 7.33301 -18.666 -2 -27.999l-14 -14c4 8 1.16699 16.5 -8.5 25.5l-14.5 13.5
c-28.667 12 -53 28.833 -73 50.5l-30 32.5l-12 -33l-9 57c-57.333 34.667 -111.166 76.167 -161.499 124.5s-95.833 96.666 -136.5 144.999s-75.667 94 -105 137s-51 76.167 -65 99.5l7 -31l-20 22.5c-13.333 15 -25.333 20.167 -36 15.5l-3 3
c-23.333 -38 -53 -78.833 -89 -122.5s-78.333 -79.5 -127 -107.5l-1 -38l-11 23l-17 -20.5c-11.333 -13.667 -26 -23.5 -44 -29.5l-8.5 -8c-5.66699 -5.33301 -6.5 -11 -2.5 -17l-10.5 10c-7 6.66699 -8.5 13 -4.5 19l-25 -25l1 35l-32 -28l12.5 26.5
c8.33301 17.667 9.5 31.5 3.5 41.5l-27 45.5c-18 30.333 -20 62.166 -6 95.499l28 1l-26 33l29 -16l12 12.5c8 8.33301 22 9.5 42 3.5l22 -4.5c14.667 -3 31 3.5 49 19.5l56 38.5c37.333 25.667 69.666 50.5 96.999 74.5l18 21l-77 100.5l-86 108
c-28 34.333 -53.333 64.166 -76 89.499s-39 40.666 -49 45.999l11 -1c7.33301 -0.666992 13 -2.66699 17 -6l-10.5 8.5c-7 5.66699 -14.5 9.16699 -22.5 10.5l15 6z" />
    <glyph glyph-name="Y" unicode="Y" horiz-adv-x="522" 
d="M-279 576l-35 151.003l43 -21l-5 24l34 -24l-1 41l27 -12.5c18 -8.33301 39.167 -19.666 63.5 -33.999s49.333 -31.333 75 -51s46.167 -40.834 61.5 -63.501l18 -79l159 -167l23.5 64c15.667 42.667 31.5 92 47.5 148s28.5 110.667 37.5 164s6.83301 90.666 -6.5 111.999
l31 -19l-18 35l37 -25c24.667 -16.667 51.167 -37.334 79.5 -62.001s53 -51.5 74 -80.5s27.833 -55.833 20.5 -80.5l-41 -70l-20.5 -52.5l-46 -115.5c-17 -42 -33.667 -80.833 -50 -116.5s-27.5 -54.5 -33.5 -56.5l5 -27.5c3.33301 -18.333 7.5 -38.5 12.5 -60.5
s10.667 -42.833 17 -62.5s12.166 -30.834 17.499 -33.501l9 -18.5c6 -12.333 11 -26.166 15 -41.499s5.33301 -29.833 4 -43.5s-9.33301 -21.834 -24 -24.501l-26.5 -2c-17.667 -1.33301 -37.5 0.666992 -59.5 6s-42.667 16 -62 32s-30.666 41.667 -33.999 77l-6 29.5
l-12.5 64.5l-12 65l-5.5 30l-45.5 42.5l-101.5 98.5l-106 110c-33.333 36 -53.333 61.667 -60 77l-35 34.5c-23.333 23 -45 35.833 -65 38.5z" />
    <glyph glyph-name="Z" unicode="Z" horiz-adv-x="612" 
d="M-122 478l-28.9912 17.5049c-19.333 11.667 -40.833 28.167 -64.5 49.5s-45.334 47.5 -65.001 78.5s-29.5 65.5 -29.5 103.5l28 -52l6 36c4 24 -7 52.333 -33 85l16 -9c10.667 -6 23.5 -12.333 38.5 -19s30.5 -11.834 46.5 -15.501s29 -3.5 39 0.5l42 -3
c28 -2 61.667 -1.33301 101 2s80.666 11 123.999 23s80.666 32 111.999 60l54.5 -24c36.333 -16 79.833 -57.333 130.5 -124l10.5 -32c7 -21.333 5.5 -36 -4.5 -44l-20 -13.5c-13.333 -9 -27.833 -21.333 -43.5 -37s-30.334 -34.334 -44.001 -56.001
s-20.834 -45.167 -21.501 -70.5l4 47c2.66699 31.333 7 50 13 56l-21.5 -54c-14.333 -36 -17.166 -77 -8.49902 -123l88 -70l-10 -3l4 -13l-19 5l13 -20l-89 9l-5 -40c-3.33301 -26.667 -1 -45.667 7 -57l22 -22l51 4c34 2.66699 57.667 24 71 64l17.5 -3
c11.667 -2 26.667 -8 45 -18s38.166 -25.5 59.499 -46.5s41.666 -50.833 60.999 -89.5l4 -37c2.66699 -24.667 -1.33301 -39.334 -12 -44.001l-29.5 -0.5c-19.667 -0.333008 -35.5 9.5 -47.5 29.5l-61.5 14c-41 9.33301 -83.5 4.33301 -127.5 -15l-16.5 -8.5
c-11 -5.66699 -23.167 -12.5 -36.5 -20.5s-25.833 -16.333 -37.5 -25s-17.834 -15.667 -18.501 -21c-2 -10.667 -10.333 -17.834 -25 -21.501s-31.167 -4.5 -49.5 -2.5s-36.333 6.16699 -54 12.5s-30.167 13.833 -37.5 22.5l4 16.5c2.66699 11 3.66699 23.833 3 38.5
s-5 30.334 -13 47.001s-22.667 30.667 -44 42l15 14l-24 26l38 -12l-9 18l39 -11l28 9l13.5 22.5c9 15 19 32.667 30 53s20.833 41.166 29.5 62.499s12.667 38.333 12 51l-30.5 4c-20.333 2.66699 -38.5 11.334 -54.5 26.001l24 -4l-44 29.5
c-29.333 19.667 -45.333 34.5 -48 44.5l45 -1l-28 32l49 -4l51 -15l30 -17l8.5 -4.5c5.66699 -3 12.834 -3.83301 21.501 -2.5l9.5 29c6.33301 19.333 13.166 41.666 20.499 66.999s13.666 50 18.999 74s6.66602 40.333 3.99902 49l-29 -5.5
c-19.333 -3.66699 -42 -9.33398 -68 -17.001s-52.167 -17.667 -78.5 -30s-46.5 -27.5 -60.5 -45.5l-14 -7.5c-9.33301 -5 -8.33301 -15.167 3 -30.5l-30 10.5c-20 7 -28 14.167 -24 21.5l-1.5 -36.5c-1 -24.333 4.5 -35.833 16.5 -34.5z" />
    <glyph glyph-name="grave" unicode="`" horiz-adv-x="527" 
d="M454 552c8 6.66699 14.165 21.835 18.498 45.502l6.5 35.5c5.33301 -0.666992 8.33301 -6.5 9 -17.5s0.5 -23.167 -0.5 -36.5s-2.33301 -25.5 -4 -36.5l-2.5 -16.5c0 -16 -8.66699 -41.833 -26 -77.5l-26 -53.5c12.667 9.33301 24.334 25.166 35.001 47.499l16 33.5
c4.66699 -10 -2 -30.333 -20 -61s-30.667 -50.334 -38 -59.001c-2 -2 8.66699 7.83301 32 29.5s39.333 44.167 48 67.5c-3.33301 -37.333 -12.333 -71 -27 -101s-30.334 -55.5 -47.001 -76.5s-31.667 -37.167 -45 -48.5l-20 -17c-32 -25.333 -63.167 -39.5 -93.5 -42.5
l-45.5 -4.5c-12.667 -5.33301 -27.334 -14.333 -44.001 -27s-32.5 -25.834 -47.5 -39.501s-27.667 -25.667 -38 -36l-15.5 -15.5c-14.667 -6 -24.167 -5.83301 -28.5 0.5s-6.16602 14.166 -5.49902 23.499s2.5 18.5 5.5 27.5l4.5 13.5
c-11.333 10.667 -12.833 28.834 -4.5 54.501s19.833 51.667 34.5 78s29.167 49.666 43.5 69.999l21.5 30.5c18 20.667 41.833 30.667 71.5 30l44.5 -1c14.667 6.66699 32.834 19.834 54.501 39.501s42.334 39.834 62.001 60.501s36.5 39.167 50.5 55.5z" />
    <glyph glyph-name="a" unicode="a" horiz-adv-x="519" 
d="M124 477c6 8 7.49805 18.0029 4.49805 30.0029l-4.5 18c-14.667 6 -21.667 18.5 -21 37.5l1 28.5c6 -9.33301 17.833 -20.5 35.5 -33.5l54 -38.5c18.333 -12.667 34.666 -23.334 48.999 -32.001l21.5 -13l11 -53l-21 -14c-3.33301 -70 2.83398 -123.833 18.501 -161.5
s33.334 -64.834 53.001 -81.501s38.167 -26.167 55.5 -28.5l26 -3.5c14.667 3.33301 27.667 11.833 39 25.5s20.5 28 27.5 43s12.333 28.667 16 41l5.5 18.5c-1.33301 -38 -10.333 -76.333 -27 -115l-25 -58l45 49l-12 -86c-12 -20 -27.5 -31.5 -46.5 -34.5
s-37.5 -2 -55.5 3s-33.5 11.167 -46.5 18.5l-19.5 11c-34.667 -38.667 -70.167 -54.167 -106.5 -46.5l-54.5 11.5c-42 16.667 -75.5 41.834 -100.5 75.501s-44 67.5 -57 101.5s-21.667 63.833 -26 89.5l-6.5 38.5c-8 61.333 -3.83301 104.166 12.5 128.499
s35.833 38.666 58.5 42.999s44.334 3.33301 65.001 -3zM42.998 293.003c4 -5.33301 9.16406 -17.166 15.4971 -35.499l9.5 -27.5c8.66699 -18 20.834 -30 36.501 -36s31.334 -9.16699 47.001 -9.5s29.334 0.833984 41.001 3.50098l17.5 4c-8 1.33301 -15.833 10 -23.5 26
s-13.334 33.5 -17.001 52.5s-4.66699 36.167 -3 51.5s7.83398 23.666 18.501 24.999c-12.667 -4.66699 -23.5 0 -32.5 14l-13.5 21l-82 -2c-18 -6.66699 -24.833 -22.834 -20.5 -48.501z" />
    <glyph glyph-name="b" unicode="b" horiz-adv-x="519" 
d="M-244 870l52.0029 -21.0029l-26 66l41 -36c27.333 -24 49 -36 65 -36l22.5 -1c15 -0.666992 31.833 -3.33398 50.5 -8.00098s36.667 -12.334 54 -23.001s29 -25.667 35 -45l-5 -28c-3.33301 -18.667 -4.5 -43.667 -3.5 -75s5.66699 -67.666 14 -108.999
s24.166 -84.333 47.499 -129l15 15.5c10 10.333 23.667 21.333 41 33s37.833 21.834 61.5 30.501s49.5 11.334 77.5 8.00098l29.5 -2.5c19.667 -1.66699 41.667 -8.33398 66 -20.001s46.833 -30.5 67.5 -56.5s32 -63.333 34 -112l-1.5 -53c-1 -35.333 -11 -74.333 -30 -117
s-51.333 -81.667 -97 -117s-113.5 -53.666 -203.5 -54.999l35 28l-14.5 -2.5c-9.66699 -1.66699 -21.167 -0.666992 -34.5 3s-27 11.334 -41 23.001s-25.333 30.834 -34 57.501l-37 115.5c-24.667 77 -53.834 162 -87.501 255s-67.834 178.167 -102.501 255.5
s-61.667 116 -81 116l7 13zM237.003 381.997c-21.333 -6 -36.6699 -17.8301 -46.0029 -35.4971s-14.833 -37 -16.5 -58s0 -41.5 5 -61.5s11.5 -35 19.5 -45c30.667 -21.333 60.334 -26.5 89.001 -15.5s51 29.167 67 54.5s23.333 53.666 22 84.999s-16.333 57.666 -45 78.999
c-27.333 16 -50.666 23.167 -69.999 21.5s-35.166 -6.83398 -47.499 -15.501s-21.5 -18 -27.5 -28l-9 -15c12.667 17.333 25.667 27.333 39 30z" />
    <glyph glyph-name="c" unicode="c" horiz-adv-x="499" 
d="M347 336c-100 47.333 -165.499 60.668 -196.499 40.001s-42 -53 -33 -97s30.5 -88.667 64.5 -134s66.667 -68.666 98 -69.999c20 -6.66699 41 -7.33398 63 -2.00098c11.333 2 22.5 5.83301 33.5 11.5l16.5 8.5c34 24 55.167 33 63.5 27l12.5 -9
c4.66699 -14 2 -27.5 -8 -40.5s-22.333 -24.333 -37 -34s-28.334 -17.334 -41.001 -23.001l-19 -8.5c-85.333 -6 -160.833 23.667 -226.5 89s-108 136.5 -127 213.5s-9 144.333 30 202s120.5 75.5 244.5 53.5c42.667 -10 74.5 -25.833 95.5 -47.5s35.5 -43.5 43.5 -65.5
s12 -41.167 12 -57.5v-24.5c-12.667 -24 -30.667 -35.333 -54 -34z" />
    <glyph glyph-name="d" unicode="d" horiz-adv-x="607" 
d="M200 474c0.666992 12 -2.33594 21.834 -9.00293 29.501l-10 11.5c5.33301 4 5.33301 19.167 0 45.5s-12.166 54.333 -20.499 84s-16.333 56.667 -24 81l-11.5 36.5c-1.33301 -14.667 0.666992 -34.667 6 -60l8 -38c-6.66699 10.667 -14.167 28.667 -22.5 54
s-16.166 50.666 -23.499 75.999s-13.5 47.833 -18.5 67.5l-7.5 29.5c4.66699 -8.66699 23.167 -29.834 55.5 -63.501s74.5 -49.5 126.5 -47.5c39.333 0.666992 67 -12.166 83 -38.499s19 -58.5 9 -96.5c-9.33301 0 -12.333 -14.167 -9 -42.5l5 -42.5
c-7.33301 5.33301 -11.666 13 -12.999 23l-2 15c-3.33301 -16.667 -1.83301 -44.834 4.5 -84.501s13.833 -80 22.5 -121s16.834 -77 24.501 -108l11.5 -46.5c-2.66699 -12 5 -27.167 23 -45.5l27 -27.5l9.5 4.5c6.33301 3 8.5 -0.833008 6.5 -11.5
c-2 -11.333 10.667 -19.5 38 -24.5l41 -7.5l-44 -8c9.33301 -13.333 21.833 -20.5 37.5 -21.5l23.5 -1.5c-12.667 -14 -21.167 -19.333 -25.5 -16l-6.5 5c12 -18 25.667 -25 41 -21l23 6c-1.33301 -16 -10.333 -28.667 -27 -38l-25 -14c-20 -5.33301 -37.833 -4.5 -53.5 2.5
s-28.834 15.833 -39.501 26.5s-18.667 21 -24 31l-8 15c-44.667 -51.333 -88 -83.166 -130 -95.499s-81 -12 -117 1s-68 36 -96 69s-50 69.667 -66 110s-25.167 81.333 -27.5 123s4 78 19 109s40 53.5 75 67.5s81.833 13.333 140.5 -2zM98.9971 247.001
c0 4 2.33301 10.001 7 18.001l7 12c-8 -19.333 -8.5 -38.833 -1.5 -58.5l10.5 -29.5c-2.66699 11.333 -2 20 2 26l6 9c-3.33301 -28.667 0.333984 -50 11.001 -64s23 -23.667 37 -29s27.167 -7.83301 39.5 -7.5l18.5 0.5c10.667 2 18.5 9.5 23.5 22.5
s8.16699 26.833 9.5 41.5s1.66602 28 0.999023 40l-1 18c-4 -2.66699 -8.33301 -6.83398 -13 -12.501l-7 -8.5l14 29c-16 64 -37.167 104.667 -63.5 122l-39.5 26c8.66699 -6 14 -13 16 -21l3 -12c-14 17.333 -27.667 26 -41 26h-20
c-14.667 -1.33301 -24 -9.83301 -28 -25.5s-5.33301 -32.667 -4 -51s3.83301 -34.833 7.5 -49.5z" />
    <glyph glyph-name="e" unicode="e" horiz-adv-x="467" 
d="M1 434c4.66699 36 16.3301 62.999 34.9971 80.999s38 30.667 58 38s38 10.833 54 10.5s24 -0.833008 24 -1.5l-14 -99c-32.667 0.666992 -51 -9.83301 -55 -31.5l-6 -32.5c31.333 -14 62.5 -21 93.5 -21h46.5c-14 36 -30.667 59.167 -50 69.5l-29 15.5l14 99
c54.667 -20 92.667 -44.833 114 -74.5l32 -44.5c48 -76 68.833 -129.667 62.5 -161l-9.5 -47c-11.333 -16.667 -20.166 -23.667 -26.499 -21l-9.5 4c-58.667 48 -110.167 71.5 -154.5 70.5l-66.5 -1.5c7.33301 -48.667 24.333 -83 51 -103l40 -30l-7.5 8
c-5 5.33301 -4.5 4.33301 1.5 -3c5.33301 -8 20 -10.667 44 -8l36 4c10 -2 19.667 1.83301 29 11.5l14 14.5l-4 -26l27 2l1 -30l40 -2l-6 -20l19 -10l-36 -20h-42l1 -23l22 -12c18.667 14 38 21 58 21h30l13 -13c-14.667 4.66699 -33.167 2.83398 -55.5 -5.49902
l-33.5 -12.5l-2 -13h-22l2 -9c-32 -9.33301 -57.833 -11.833 -77.5 -7.5l-29.5 6.5l-2 24l-25 -11c-47.333 8 -78.833 26.833 -94.5 56.5l-23.5 44.5l4 21l-20 9c-9.33301 3.33301 -18.166 14.833 -26.499 34.5s-15.666 40.5 -21.999 62.5s-11.166 41.833 -14.499 59.5
l-5 26.5c-1.33301 12 -7 19.667 -17 23l-15 5l-5 31c-20 2 -30.667 11.333 -32 28l-2 25c10.667 2.66699 18.667 1.83398 24 -2.49902l8 -6.5c7.33301 -8.66699 16.166 -11.334 26.499 -8.00098z" />
    <glyph glyph-name="f" unicode="f" horiz-adv-x="659" 
d="M-156 334l56.002 -10c37.333 -6.66699 82.666 1.33301 135.999 24c-8 13.333 -4.5 52.5 10.5 117.5s38.833 126.667 71.5 185s73 98.666 121 120.999s101 -1.83398 159 -72.501c0 0.666992 2.66699 -7.5 8 -24.5s13.166 -35.833 23.499 -56.5s23.5 -39 39.5 -55
s35.333 -22 58 -18l-61 -38h-20.5c-13.667 0 -28.167 1.16699 -43.5 3.5s-29.166 5.83301 -41.499 10.5s-17.5 11.667 -15.5 21l-11.5 -21c-7.66699 -14 -14.834 -29.667 -21.501 -47s-11.167 -33.833 -13.5 -49.5s1.83398 -25.5 12.501 -29.5h62c41.333 0 72 5 92 15
l-27.5 -27c-18.333 -18 -34.166 -29.333 -47.499 -34l58 -2c38.667 -1.33301 98.667 24 180 76l-21.5 -12.5l-48 -27.5c-17.667 -10 -34.667 -19.167 -51 -27.5s-26.833 -12.5 -31.5 -12.5l2.5 -5.5c1.66699 -3.66699 7.5 -5.16699 17.5 -4.5l-26 -19
c-17.333 -12.667 -31 -19 -41 -19l-33 -6.5c-22 -4.33301 -44.667 -15.5 -68 -33.5c-19.333 -41.333 -31.333 -86.833 -36 -136.5s-8.33398 -98.834 -11.001 -147.501s-7.33398 -95 -14.001 -139s-21.667 -81.333 -45 -112l18 14.5c12 9.66699 21 21.5 27 35.5l-9 -38.5
c-6 -25.667 -15.333 -55 -28 -88s-29.167 -64.5 -49.5 -94.5s-44.5 -49 -72.5 -57l-57 -23l34.5 4c23 2.66699 36.833 5 41.5 7l-24.5 -17.5c-16.333 -11.667 -37.333 -25.167 -63 -40.5s-54.167 -30.5 -85.5 -45.5s-62.666 -25.833 -93.999 -32.5l-33.5 -5l-76 -11
c-28.333 -4 -55.5 -7.5 -81.5 -10.5s-42.667 -4.16699 -50 -3.5l40.5 8c27 5.33301 53.833 16 80.5 32l-39.5 -6c-26.333 -4 -58.833 -8 -97.5 -12s-79.667 -6.5 -123 -7.5s-81.666 1.5 -114.999 7.5l66 21l-174 11l150 30l-37 38l113 14l-28 18l57 15l-72 35l105 19l-36 29
l22.5 -2.5c15 -1.66699 39.833 2.5 74.5 12.5c17.333 5.33301 27.166 9.83301 29.499 13.5s1.33301 6.5 -3 8.5s-9.83301 3.33301 -16.5 4l-10 1c63.333 -20 123.333 -20.167 180 -0.5s111.667 68.167 165 145.5l3 -27.5c2 -18.333 -1 -32.166 -9 -41.499l27.5 56.5
c18.333 37.667 37.5 82.667 57.5 135s37.333 106.666 52 162.999s18.334 103.833 11.001 142.5l-44.5 -33c-29.667 -22 -45.834 -45 -48.501 -69h-29c-19.333 0 -45.333 16 -78 48l17 -5c11.333 -3.33301 24.666 -4.66602 39.999 -3.99902l-44 21
c-29.333 14 -45 32.333 -47 55l10 -11c6.66699 -7.33301 19 -8.66602 37 -3.99902l-35 36c-23.333 24 -34.333 45 -33 63l17.5 -14c11.667 -9.33301 23.167 -13.666 34.5 -12.999z" />
    <glyph glyph-name="g" unicode="g" horiz-adv-x="705" 
d="M242 613l-8.00293 47.5c-5.33301 31.667 -24.333 56.5 -57 74.5l-17.5 48.5c-11.667 32.333 -6.83398 55.833 14.499 70.5l36 -28.5c24 -19 52.833 -40 86.5 -63s68.5 -44.333 104.5 -64s65.667 -30.167 89 -31.5l13.5 -41c9 -27.333 0.166992 -50.666 -26.5 -69.999
c0 -62 12.167 -140.167 36.5 -234.5s57.833 -183.166 100.5 -266.499c24.667 -48.667 40.5 -97.334 47.5 -146.001s7.5 -93.667 1.5 -135s-16.667 -77.333 -32 -108s-33 -52.334 -53 -65.001c-1.33301 1.33301 -11.333 -0.5 -30 -5.5s-42.667 -7.16699 -72 -6.5
s-62.5 6.5 -99.5 17.5s-74.167 32.5 -111.5 64.5l-28 23c-18.667 15.333 -39.5 35 -62.5 59s-45.167 51 -66.5 81s-35 59.667 -41 89l29 -33.5c19.333 -22.333 34.333 -32.5 45 -30.5l-25.5 46c-17 30.667 -38.833 66 -65.5 106c12.667 -10 38.834 -29.333 78.501 -58
s82.5 -55.167 128.5 -79.5s90.333 -40.833 133 -49.5s73.667 1.66602 93 30.999c10.667 48.667 7 106.834 -11 174.501s-36 125.5 -54 173.5c-11.333 -32 -37.833 -55 -79.5 -69s-86.167 -19.5 -133.5 -16.5s-91.166 14.5 -131.499 34.5s-64.833 48.667 -73.5 86l-20 35
c-13.333 23.333 -16.666 44 -9.99902 62l-19.5 -32.5c-13 -21.667 -14.5 -47.834 -4.5 -78.501c-19.333 38 -32.5 85.333 -39.5 142s-1.33301 108.334 17 155.001s52.333 81.167 102 103.5s121.834 18.5 216.501 -11.5zM44.9971 381c0 4 3.99902 9 11.999 15l12 9
c-14 -15.333 -16.167 -30.833 -6.5 -46.5l14.5 -23.5c-4 9.33301 -2.66699 16.333 4 21l10 7c-7.33301 -22.667 -3 -39.5 13 -50.5s34.667 -18.667 56 -23s41.666 -6.33301 60.999 -6l29 0.5c36 4 55.5 21 58.5 51l4.5 45c-6 -2 -13 -5.16699 -21 -9.5l-12 -6.5l24 23
c-19.333 50.667 -48.833 83 -88.5 97l-59.5 21c12.667 -5.33301 20.834 -10.833 24.501 -16.5l5.5 -8.5c-20 14 -41.167 20.667 -63.5 20l-33.5 -1c-23.333 -1.33301 -38.666 -8.16602 -45.999 -20.499s-11 -25.833 -11 -40.5s2.16699 -27.834 6.5 -39.501z" />
    <glyph glyph-name="h" unicode="h" horiz-adv-x="619" 
d="M-42 818c10.667 -13.333 25.333 -26.0029 44 -38.0029s37.334 -22.5 56.001 -31.5s35 -16 49 -21l21 -7.5l2 -40c-2.66699 6 2 13.5 14 22.5l18 13.5c-8.66699 -6 -10 -13 -4 -21l9 -12c37.333 14 64.166 16.5 80.499 7.5l24.5 -13.5l-48 6
c-30.667 -0.666992 -46.5 -9.83398 -47.5 -27.501l-1.5 -26.5c0.666992 6 7.16699 10.667 19.5 14l18.5 5c-14.667 -2 -20.334 -7.5 -17.001 -16.5l5 -13.5l27 -2c-14.667 -6 -23 -20.833 -25 -44.5s-1.33301 -48.167 2 -73.5s7.66602 -48.166 12.999 -68.499l8 -30.5
l17 -11c48.667 61.333 90.334 81.833 125.001 61.5s63.5 -55 86.5 -104s40.5 -99 52.5 -150s20 -76.167 24 -75.5l44 9c-13.333 -1.33301 -21.166 -14.333 -23.499 -39l-3.5 -37c2 20 7.83301 34.167 17.5 42.5l14.5 12.5c-5.33301 -4.66699 -6.83301 -12.5 -4.5 -23.5
s5 -22 8 -33s4.83301 -20.333 5.5 -28s-3 -10.167 -11 -7.5c-35.333 8.66699 -71 4 -107 -14l-73 91c8 18.667 9.5 41.334 4.5 68.001s-12.167 52.167 -21.5 76.5s-18.5 45 -27.5 62l-13.5 25.5c-12 2.66699 -20.667 -5.83301 -26 -25.5l-8 -29.5c-12 4 -16 9.5 -12 16.5
l6 10.5c-22.667 -14.667 -32.667 -35.667 -30 -63s11 -54.166 25 -80.499s30 -48.833 48 -67.5s31 -27 39 -25c-2 -36 -12.5 -59.167 -31.5 -69.5l-28.5 -15.5c0.666992 5.33301 -6.33301 10.833 -21 16.5s-31 11 -49 16s-34.5 9.16699 -49.5 12.5l-22.5 5
c-2 -4 -7.83301 3.5 -17.5 22.5s-21.167 45.667 -34.5 80l-44.5 120c-16.333 45.667 -32.333 92.834 -48 141.501s-30 97 -43 145s-23.667 91.833 -32 131.5s-13 73 -14 100s2.83301 44.167 11.5 51.5z" />
    <glyph glyph-name="i" unicode="i" horiz-adv-x="496" 
d="M-22 756l-5.99902 8.50098c-4 5.66699 -17.333 13.5 -40 23.5l-15.5 16c-10.333 10.667 -17.833 21 -22.5 31c1.33301 0.666992 15.333 -7.16602 42 -23.499s50 -33.833 70 -52.5l-24.5 25c-16.333 16.667 -28.833 30.334 -37.5 41.001l14.5 -14.5
c9.66699 -9.66699 22.5 -13.834 38.5 -12.501c18 0 35.667 -0.833008 53 -2.5s33.333 -7.5 48 -17.5l35 -0.5c23.333 -0.333008 41.333 1.83398 54 6.50098v-14.5c0 -9.66699 -3.33301 -14.834 -10 -15.501l28.5 3.5c19 2.33301 26.833 7.5 23.5 15.5l-2 -15
c-1.33301 -10 -5.33301 -15 -12 -15l9.5 -5.5c6.33301 -3.66699 11.5 -2.83398 15.5 2.49902l-3.5 -32.5c-2.33301 -21.667 -31.5 -38.5 -87.5 -50.5h3c2 0 5 4 9 12c-52.667 -12 -97.334 -5.83301 -134.001 18.5s-53 47.166 -49 68.499zM45.001 464.001l2 30.998
c1.33301 20.667 -13 36.667 -43 48l-12.5 47c-8.33301 31.333 -10.5 55 -6.5 71l29.5 -28c19.667 -18.667 44.5 -25.334 74.5 -20.001l25 -5c16.667 -3.33301 35.5 -8.83301 56.5 -16.5s41.167 -18 60.5 -31s31.666 -28.833 36.999 -47.5v-26.5
c0 -17.667 0.833008 -37 2.5 -58s4.16699 -40.667 7.5 -59s8.66602 -28.5 15.999 -30.5l-15 1c-10 0.666992 -20 7.66699 -30 21l-13 -48.5c-8.66699 -32.333 -9.66699 -67.166 -3 -104.499s27 -70.666 61 -99.999s93.667 -41 179 -35
c-11.333 4.66699 -33.666 3.83398 -66.999 -2.49902s-66.666 -16.333 -99.999 -30s-60.833 -29 -82.5 -46s-26.5 -34.167 -14.5 -51.5c-12 27.333 -23.833 60 -35.5 98s-21.667 77 -30 117s-14.833 78.5 -19.5 115.5s-5.66699 67.833 -3 92.5l-12.5 -29.5
c-8.33301 -19.667 -9.5 -39.167 -3.5 -58.5l-23.5 53c-15.667 35.333 -20.5 60.666 -14.5 75.999l2 28c1.33301 18.667 -6.66699 28.334 -24 29.001z" />
    <glyph glyph-name="j" unicode="j" horiz-adv-x="413" 
d="M154 691c10.667 -19.333 3.16699 -40.002 -22.5 -62.002s-64.5 -27.667 -116.5 -17c6 -6.66699 10 -10.167 12 -10.5l3 -0.5c-54.667 10.667 -86.667 25.834 -96 45.501l-14 29.5c5.33301 -4 10.333 -4.5 15 -1.5l7 4.5c-6 0 -11.333 4.5 -16 13.5l-7 13.5
c0 -7.33301 9 -12 27 -14l27 -3c-6 0.666992 -10.667 5.33398 -14 14.001l-5 13c13.333 -4 30.5 -5.83301 51.5 -5.5l31.5 0.5c9.33301 8.66699 21.333 14 36 16s31 2.66699 49 2c15.333 -1.33301 25.833 2.5 31.5 11.5l8.5 13.5c-4 -10 -11 -22.5 -21 -37.5l-15 -22.5
c12 16.667 27.667 32.5 47 47.5s30 22.167 32 21.5c-2 -9.33301 -5.66699 -18.833 -11 -28.5l-8 -14.5c-18 -8.66699 -27.833 -15.667 -29.5 -21zM-8 547.998l78.001 25.001l50 -18c7.33301 6 3.33301 12.167 -12 18.5l-23 9.5c12.667 2 28.334 -2 47.001 -12l28 -15l-1 17
l33 -16l24 38l178 -629l-16 -71l-36 50l-17 -65c-22 -12 -48.167 -20 -78.5 -24s-59.5 -6 -87.5 -6s-51.667 0.833008 -71 2.5l-29 2.5c-9.33301 6 -20.666 5.83301 -33.999 -0.5l-20 -9.5c-1.33301 11.333 5.33398 19 20.001 23l22 6l-69 4l6 20l22 4l-55 37l26 27
c-8.66699 9.33301 -23.834 11.666 -45.501 6.99902l-32.5 -7c5.33301 10.667 20.166 17 44.499 19l36.5 3l-75 14l70 11c87.333 -32.667 142.666 -32.167 165.999 1.5s28.833 82.167 16.5 145.5s-35.833 132 -70.5 206s-66.334 134.667 -95.001 182z" />
    <glyph glyph-name="k" unicode="k" horiz-adv-x="596" 
d="M-66 741c16.667 -13.333 37.499 -25.8301 62.499 -37.4971s49 -22.167 72 -31.5l57.5 -24c15.333 -6.66699 21.333 -11 18 -13c34 -27.333 45.667 -56.833 35 -88.5l-16 -47.5c5.33301 2 5.5 8.66699 0.5 20l-7.5 17c-14 -11.333 -21.167 -27.666 -21.5 -48.999
s2.16699 -42.666 7.5 -63.999s11.333 -39.833 18 -55.5l10 -23.5c18.667 8 36.5 26.333 53.5 55s31.833 58.667 44.5 90s22.834 59.333 30.501 84l11.5 37c34 -17.333 59 -37.166 75 -59.499s26.833 -43.5 32.5 -63.5s8.16699 -36.833 7.5 -50.5l-1 -20.5
c-11.333 -10 -29 -20.167 -53 -30.5l-36 -15.5c12 3.33301 20.667 14.166 26 32.499l8 27.5c-10 1.33301 -20.5 -3.66699 -31.5 -15s-20.833 -24.166 -29.5 -38.499s-15.834 -27.5 -21.501 -39.5l-8.5 -18c4 -14 18.5 -31.333 43.5 -52s51.833 -40.834 80.5 -60.501
s54.667 -36.5 78 -50.5l35 -21c35.333 -20.667 51.5 -46.334 48.5 -77.001l-4.5 -46c-5.33301 4 -15.833 7.66699 -31.5 11s-32 6.16602 -49 8.49902s-32.167 4.16602 -45.5 5.49902l-20 2c6.66699 2 9.33398 10.667 8.00098 26l-2 23c-5.33301 3.33301 -17 14.5 -35 33.5
l-56.5 60l-52 57.5l-22.5 26c-18 0 -30.333 -9.66699 -37 -29l-10 -29c-5.33301 -14 -3.33301 -27.333 6 -40s20.5 -23.834 33.5 -33.501s25.5 -17.167 37.5 -22.5l18 -8c-16 -10.667 -18 -16.834 -6 -18.501l18 -2.5l-7 -73c-11.333 -22 -25.333 -33.5 -42 -34.5
s-32.5 2.16699 -47.5 9.5s-27.833 15.833 -38.5 25.5l-16 14.5l-6 30c-24.667 18 -49.834 63.5 -75.501 136.5s-49 150 -70 231s-38.667 154 -53 219s-22.166 98.5 -23.499 100.5z" />
    <glyph glyph-name="l" unicode="l" horiz-adv-x="352" 
d="M-43 930l15.498 -13.4971c10.333 -9 22.833 -18.833 37.5 -29.5s30.5 -20.834 47.5 -30.501s32.5 -14.834 46.5 -15.501l19 -7c12.667 -4.66699 27.334 -11.334 44.001 -20.001s32.834 -19 48.501 -31s26.5 -25 32.5 -39l3 -23c2 -15.333 3.83301 -33.166 5.5 -53.499
s2.33398 -40.5 2.00098 -60.5s-2.5 -34.667 -6.5 -44c-4.66699 -10 -7.33398 -12.167 -8.00098 -6.5s-1.16699 14.667 -1.5 27s-1.66602 25.5 -3.99902 39.5s-7.5 24.333 -15.5 31l10.5 -97.5c7 -65 16 -136.667 27 -215s23.167 -150.833 36.5 -217.5s26 -101.667 38 -105
l1 -60l-22 8l-16 -52l-16.5 41c-11 27.333 -26.5 37.666 -46.5 30.999l-10.5 35l-27 93.5l-39 134l-47 155.5l-50 158.5l-48 142.5c-15 42.667 -28.833 78.667 -41.5 108s-23.334 48 -32.001 56l17.5 -4.5c11.667 -3 19.5 -8.5 23.5 -16.5l-11.5 19
c-7.66699 12.667 -17.5 21 -29.5 25l27 7z" />
    <glyph glyph-name="m" unicode="m" horiz-adv-x="510" 
d="M-23 404l-8.50293 30.0029c-5.66699 20 -21.5 36.667 -47.5 50l9 2.5c6 1.66699 12.333 3.16699 19 4.5c8 1.33301 12.167 2 12.5 2s-1.5 4.33301 -5.5 13c-1.33301 2.66699 -7.83301 4.16699 -19.5 4.5s-15.834 1.16602 -12.501 2.49902
c5.33301 2 10.166 5.83301 14.499 11.5s-1.5 15.5 -17.5 29.5l60 -17c40 -11.333 71.333 -43 94 -95l25.5 21.5c17 14.333 32.167 19.5 45.5 15.5l24.5 -1.5c16.333 -1 30.166 -14.833 41.499 -41.5l12.5 15.5c8.33301 10.333 18.5 21.666 30.5 33.999
s24.667 23.166 38 32.499s25 12.666 35 9.99902h16c10.667 0 23.167 -5 37.5 -15s28.5 -27.333 42.5 -52s24.667 -61.667 32 -111l7.5 -48.5c5 -32.333 9.66699 -70 14 -113s6.83301 -86.167 7.5 -129.5s-3.33301 -76.666 -12 -99.999c-2 -4 -10.667 -9 -26 -15
s-31.666 -6.66699 -48.999 -2s-32.666 17.667 -45.999 39s-19 57.666 -17 108.999l25 80.5c16.667 53.667 10 127.834 -20 222.501l-28 1c-18.667 0.666992 -34 -20 -46 -62c6 17.333 16.667 29 32 35c2 0 -2.16699 -24.667 -12.5 -74s-13.5 -103 -9.5 -161
c0 6.66699 0.333008 19.834 1 39.501s5.66699 35.5 15 47.5l-5 -37.5c-3.33301 -25 -0.333008 -40.167 9 -45.5l4.5 -26.5c3 -17.667 -7.16699 -35.834 -30.5 -54.501c0.666992 5.33301 -2.5 9.33301 -9.5 12s-15.167 9 -24.5 19s-18.166 26.5 -26.499 49.5
s-13.166 57.5 -14.499 103.5l-3 50c-2 33.333 -11.333 57.666 -28 72.999l-22 -8.5c-14.667 -5.66699 -27 -25.167 -37 -58.5l5 15c3.33301 10 11 15 23 15l-7 -24.5c-4.66699 -16.333 -6.66699 -36.666 -6 -60.999s5.83398 -50.666 15.501 -78.999
s29.167 -54.833 58.5 -79.5c0.666992 -45.333 -8 -69.833 -26 -73.5s-38.667 6.5 -62 30.5s-45.666 58.167 -66.999 102.5s-34.333 92.166 -39 143.499l11 29c7.33301 19.333 7 38 -1 56l0.5 -16.5c0.333008 -11 -3.5 -20.167 -11.5 -27.5l-2 37
c-1.33301 24.667 -8 38.667 -20 42z" />
    <glyph glyph-name="n" unicode="n" horiz-adv-x="484" 
d="M48 26l0.992188 -1.99805c0.666992 -1.33301 4.33398 -1 11.001 1l1.5 31c1 20.667 -2.16699 47 -9.5 79v0c-5.33301 4.66699 -8.66602 -0.666016 -9.99902 -15.999s-2.33301 -21.333 -3 -18c-2 4 -3.83301 18.167 -5.5 42.5s-1.5 39.5 0.5 45.5
c0.666992 0.666992 0.333984 1.66699 -0.999023 3l-29.5 89.5c-9.66699 29.667 -24.5 67.167 -44.5 112.5c-2 4.66699 -7.16699 12.834 -15.5 24.501s-16.5 15.834 -24.5 12.501l12 40l-14 18l-2 21l24 -4l-28 38l63 -29l50 -2l34.5 -13.5c23 -9 39.5 -35.167 49.5 -78.5
l32 31.5c21.333 21 43 29.5 65 25.5l22 1c14.667 0.666992 30.334 -7 47.001 -23l19 -15.5c12.667 -10.333 27.5 -23.833 44.5 -40.5s33.667 -35.5 50 -56.5s28.5 -41.833 36.5 -62.5l-1 -35c-0.666992 -23.333 -1 -49.333 -1 -78s0.666992 -55.5 2 -80.5
s3.66602 -39.167 6.99902 -42.5c2.66699 -24.667 12.667 -36.334 30 -35.001l-30 -20l-2 -28l-44 -2l-3.5 -7c-2.33301 -4.66699 -9.5 -5 -21.5 -1l-37.5 37.5c-25 25 -37.833 41.167 -38.5 48.5l0.5 16c0.333008 10.667 -0.5 19.667 -2.5 27l13 -10l3 124l24 -67l2.5 45.5
c1.66699 30.333 -5.83301 60.166 -22.5 89.499l-35.5 47.5c-23.667 31.667 -45.5 51.5 -65.5 59.5l-40 3l-15.5 -26.5c-10.333 -17.667 -15.166 -59.167 -14.499 -124.5l17 32l-1.5 -20.5c-1 -13.667 -1 -29.167 0 -46.5s3.33301 -33.833 7 -49.5s10.5 -25.834 20.5 -30.501
c-4 -8 5.16699 -21.667 27.5 -41s32.5 -34 30.5 -44l-14 -26.5c-9.33301 -17.667 -22.666 -31.5 -39.999 -41.5c-17.333 -9.33301 -24.666 -11.833 -21.999 -7.5l4 6.5l-28 29l-1 -19l-6.5 22.5c-4.33301 15 -11.166 23.5 -20.499 25.5l-9.5 2
c-6.33301 1.33301 -11.166 -1 -14.499 -7c-10 5.33301 -21.5 7.16602 -34.5 5.49902s-24.5 -3.83398 -34.5 -6.50098z" />
    <glyph glyph-name="o" unicode="o" horiz-adv-x="494" 
d="M-16 300l-10 -14.4971c-6.66699 -9.66699 -9 -17.834 -7 -24.501l-4.5 27c-3 18 -3.33301 40 -1 66s9.33301 53.167 21 81.5s32.834 52.5 63.501 72.5l14 37c9.33301 24.667 5 46.667 -13 66l32 -10.5c21.333 -7 45 -15.667 71 -26s50.167 -21.833 72.5 -34.5
s34.5 -25 36.5 -37l-28 -15c-18.667 -10 -27.334 -22.667 -26.001 -38l28.5 -8.5c19 -5.66699 41.5 -15.667 67.5 -30s52.5 -33.833 79.5 -58.5s48.833 -56 65.5 -94l11 -28c7.33301 -18.667 11.5 -40.834 12.5 -66.501s-4.5 -52 -16.5 -79s-37.333 -48.833 -76 -65.5
c-58 -18.667 -112.167 -21.334 -162.5 -8.00098s-93.5 35.5 -129.5 66.5s-63.167 66.833 -81.5 107.5s-24.833 78.667 -19.5 114zM114 230.003c0 4 3.49707 9.66602 10.4971 16.999l10.5 11c-12 -18 -14.833 -36 -8.5 -54l9.5 -27c-2.66699 10 -1 17.833 5 23.5l9 8.5
c-7.33301 -26 -5.16602 -45.5 6.50098 -58.5s26 -22 43 -27s33.333 -7.33301 49 -7l23.5 0.5c14.667 2 25.834 9 33.501 21s13.334 24.667 17.001 38s5.83398 25.5 6.50098 36.5l1 16.5c-4.66699 -2 -10.5 -5.66699 -17.5 -11l-10.5 -8l21 27c-12 59.333 -33.5 97 -64.5 113
l-46.5 24c10 -6 16.333 -12.333 19 -19l4 -10c-16 16 -33 23.667 -51 23l-27 -1c-19.333 -1.33301 -32.333 -9.16602 -39 -23.499s-10.334 -30 -11.001 -47s0.333008 -32.333 3 -46z" />
    <glyph glyph-name="p" unicode="p" horiz-adv-x="544" 
d="M-147 591l83.999 -43l-5 14.5c-3.33301 9.66699 -6.33301 20.5 -9 32.5s-3.83398 23.167 -3.50098 33.5s4.5 16.5 12.5 18.5l18.5 -46c12.333 -30.667 27.5 -54 45.5 -70c101.333 52.667 195 64.334 281 35.001s147.833 -75.5 185.5 -138.5
s43.334 -130.833 17.001 -203.5s-101.166 -126 -224.499 -160l-13.5 -11.5c-9 -7.66699 -14 -20.834 -15 -39.501s6.33301 -44.167 22 -76.5s48.167 -73.833 97.5 -124.5l9 -75l-161 90l-59 90c-54.667 81.333 -85.667 167.833 -93 259.5s-16.333 179.5 -27 263.5l-49 -88
c12 46 12 90.833 0 134.5s-49.667 78.5 -113 104.5zM317.999 283c-14 60 -34.668 97.668 -62.001 113.001l-41 23c8.66699 -6 14 -12.667 16 -20l3 -11c-14 16 -28.5 23.667 -43.5 23l-22.5 -1c-16 -2 -26.5 -10.333 -31.5 -25s-7.33301 -30.5 -7 -47.5s2 -32.5 5 -46.5
l4.5 -21c0 4 2.66699 9.83301 8 17.5l8 11.5c-9.33301 -18.667 -10.666 -37.167 -3.99902 -55.5l10 -27.5c-2.66699 10.667 -1.66699 19 3 25l7 9c-5.33301 -27.333 -3 -46.333 7 -57s21.833 -17 35.5 -19s26.667 -1.66699 39 1l18.5 4c24 5.33301 38.833 22.833 44.5 52.5
l8.5 44.5c-4 -2.66699 -8.83301 -6.83398 -14.5 -12.501l-8.5 -8.5z" />
    <glyph glyph-name="q" unicode="q" horiz-adv-x="957" 
d="M699 -490l-61.002 40.998l16 -86l-12.5 17.5c-8.33301 11.667 -18.333 24.5 -30 38.5s-24.167 27.333 -37.5 40s-25 20.334 -35 23.001l-28.5 8.5c-19 5.66699 -39.833 14.5 -62.5 26.5s-43.834 27.167 -63.501 45.5s-30.167 39.833 -31.5 64.5l10.5 26
c7 17.333 14.5 41.333 22.5 72c-26 2 -49.833 2.66699 -71.5 2l-32.5 -1c-15.333 6 -23.333 12.333 -24 19s1.5 13 6.5 19s11 11 18 15l10.5 6c-6 16.667 3.5 31.5 28.5 44.5s51.5 23.5 79.5 31.5c0.666992 58.667 -7.33301 120.334 -24 185.001l-23.5 -14
c-15.667 -9.33301 -36.334 -18 -62.001 -26s-54.667 -13.167 -87 -15.5s-65.166 3.16699 -98.499 16.5l-37.5 12c-25 8 -51.333 22.833 -79 44.5s-51.167 51.334 -70.5 89.001s-23.666 85.834 -12.999 144.501l16 62c10.667 41.333 33.667 84 69 128s87 79.667 155 107
s159.333 27 274 -1l-52 -22l18.5 -2c12.333 -1.33301 26.333 -6.33301 42 -15s30.834 -22.167 45.501 -40.5s24.667 -44.5 30 -78.5l5.5 -55c3.66699 -36.667 9 -83.834 16 -141.501s15.333 -122 25 -193s20.5 -140.833 32.5 -209.5c4 -2.66699 7 -5.16699 9 -7.5l3 -3.5
c16 -4.66699 37.833 -7.16699 65.5 -7.5s54.667 0 81 1s49.333 2.33301 69 4l29.5 2.5c10 0 22.333 6.33301 37 19l22 19c8.66699 -6.66699 2.66699 -20.167 -18 -40.5l-31 -30.5c-7.33301 -10.667 -26.833 -22.5 -58.5 -35.5l-47.5 -19.5c16 -1.33301 33.667 2 53 10l29 12
c-0.666992 -10 -16 -19.333 -46 -28s-50 -13.667 -60 -15c-2 0 11.833 -0.166992 41.5 -0.5s53.834 4.16699 72.501 13.5c-32 -36.667 -71 -58.334 -117 -65.001s-79 -9.66699 -99 -9c12 -55.333 24.667 -101 38 -137s27 -56 41 -60l-12 -13zM216.998 242.998
c28 0 50.5 8.83496 67.5 26.502s29.167 38.5 36.5 62.5s10.5 48.667 9.5 74s-4.83301 45.666 -11.5 60.999c-34 34 -70.5 49.333 -109.5 46s-72.167 -17.333 -99.5 -42s-44.333 -55.834 -51 -93.501s6 -73.167 38 -106.5c28.667 -28.667 55.5 -45.167 80.5 -49.5
s46.667 -3.5 65 2.5s32.666 14 42.999 24l15.5 15c-21.333 -16.667 -40.666 -24.167 -57.999 -22.5z" />
    <glyph glyph-name="r" unicode="r" horiz-adv-x="499" 
d="M-46 451l-0.99707 20.0029c-0.666992 13.333 -13 29.333 -37 48l5 20l28 -18c18.667 -12 30 -23.667 34 -35l-5 20c-3.33301 13.333 -12.333 25 -27 35l-7 21l52 -34.5c34.667 -23 65 -31.833 91 -26.5l45 -11c30 -7.33301 47.667 -22 53 -44l5 -25
c3.33301 -16.667 -3.66699 -41.334 -21 -74.001l17 -75l39 38.5c26 25.667 54.333 38.167 85 37.5l17.5 4.5l40 10.5l43 11c13.667 3.33301 22.5 5 26.5 5l-40 -16c-26.667 -10.667 -44 -22.667 -52 -36l24 16.5c16 11 36.333 16.167 61 15.5l40 -20
c4 -2.66699 -10.833 -5.5 -44.5 -8.5s-55.167 -9.16699 -64.5 -18.5l41 9.5c27.333 6.33301 47 5.5 59 -2.5l-29.5 -13.5c-19.667 -9 -40.834 -20.833 -63.501 -35.5s-42.334 -30.834 -59.001 -48.501s-22.334 -35.5 -17.001 -53.5l-1 -70l12.5 -8.5
c8.33301 -5.66699 14.5 -17.5 18.5 -35.5h35l10 -43l-29.5 -17c-19.667 -11.333 -27.167 -23.333 -22.5 -36l-54 24c-36 16 -65 24.667 -87 26l1 22l7.5 -2.5c5 -1.66699 9.5 1.83301 13.5 10.5l-17 23c-11.333 15.333 -14.333 29.333 -9 42l-8.5 -9.5
c-5.66699 -6.33301 -7.5 -14.833 -5.5 -25.5l-19.5 37.5c-13 25 -18.5 55.167 -16.5 90.5l-5.5 -5.5c-3.66699 -3.66699 -5.16699 -11.167 -4.5 -22.5l-15.5 59c-10.333 39.333 -21.833 65.666 -34.5 78.999l-5.5 -15.5c-3.66699 -10.333 -1.5 -17.166 6.5 -20.499l-5 -8.5
c-3.33301 -5.66699 -3 -9.5 1 -11.5l-27.5 37c-18.333 24.667 -26.5 60.667 -24.5 108l-8 20l-11 -13c-5.33301 -6.66699 -8.5 -0.333984 -9.5 18.999s-8.5 29.333 -22.5 30z" />
    <glyph glyph-name="s" unicode="s" horiz-adv-x="561" 
d="M187 534l54 -36.998c-5.33301 6 -5.5 16.333 -0.5 31l7.5 22c6 -25.333 18 -37.833 36 -37.5l27 0.5c7.33301 -10.667 14 -23.334 20 -38.001l9 -22c5.33301 2.66699 6.5 10.667 3.5 24l-4.5 20c13.333 -19.333 22.666 -39.166 27.999 -59.499l8 -30.5
c7.33301 3.33301 9.16602 11.333 5.49902 24l-5.5 19c15.333 -20 26.333 -44.5 33 -73.5l10 -43.5l-32 -7l-118 26c-37.333 54 -71.333 84.833 -102 92.5s-51.667 4.16699 -63 -10.5s-10 -34.334 4 -59.001s47.667 -42 101 -52c33.333 -4 70.333 -13.667 111 -29
s77.667 -34.833 111 -58.5s59.166 -50.5 77.499 -80.5s21.833 -61 10.5 -93c-1.33301 -18 -9.66602 -31.667 -24.999 -41s-31.833 -15.833 -49.5 -19.5s-33.667 -5.66699 -48 -6l-21.5 -0.5c-37.333 0 -72.166 6.5 -104.499 19.5s-60.5 27.333 -84.5 43
s-42.833 30.167 -56.5 43.5l-20.5 20l-22 22l12 3l-27 25l34 -9c-20 10 -34.333 25.5 -43 46.5l-13 31.5c2 -12 13 -23.667 33 -35l30 -17c-4.66699 8 -8 18 -10 30l-3 18c30 -32.667 57.5 -55 82.5 -67s46.833 -18.667 65.5 -20s33.167 0.166992 43.5 4.5l15.5 6.5
c20 22 22.333 40.167 7 54.5s-37.666 26.333 -66.999 36s-60.333 18 -93 25s-56 14.167 -70 21.5c-44.667 20.667 -76 42.5 -94 65.5s-29 44.167 -33 63.5s-4.16699 35.5 -0.5 48.5l5.5 19.5c24 26 49 42.833 75 50.5s50.167 10.667 72.5 9s41 -5.33398 56 -11.001z" />
    <glyph glyph-name="t" unicode="t" horiz-adv-x="383" 
d="M-165 654l43.002 -29.4951c28.667 -19.667 74 -26.834 136 -21.501l-12.5 31c-8.33301 20.667 -17.166 43.834 -26.499 69.501s-17 50 -23 73s-7 36.5 -3 40.5l27.5 -16c18.333 -10.667 39.666 -22 63.999 -34s48.166 -22.333 71.499 -31s40 -11.334 50 -8.00098
l19 -19.5c12.667 -13 10 -30.167 -8 -51.5l-2 -20.5c-1.33301 -13.667 2 -22.5 10 -26.5c12 4.66699 28.333 7 49 7s40.834 -2.83301 60.501 -8.5s36.5 -14.334 50.5 -26.001s21 -26.834 21 -45.501c2 -20 -4.33301 -28.833 -19 -26.5s-31.334 6.5 -50.001 12.5
s-36.334 9 -53.001 9s-26 -12 -28 -36l-0.5 -48c-0.333008 -32 0.166992 -70.667 1.5 -116s4 -92.666 8 -141.999s10.333 -91.333 19 -126l-17 -32c-11.333 -21.333 -26 -38 -44 -50l-19.5 76.5l-41.5 170c-14.667 62.333 -27.667 120.666 -39 174.999
s-15.333 85.166 -12 92.499l-31 2c-20.667 1.33301 -39 -6.33398 -55 -23.001c-54 2 -93.667 24.667 -119 68s-34.333 80.333 -27 111z" />
    <glyph glyph-name="u" unicode="u" horiz-adv-x="528" 
d="M-103 542c-0.666992 1.33301 5 -0.329102 17 -4.99609s29 -7.33398 51 -8.00098l38 -20c25.333 -13.333 42.666 -27 51.999 -41l26 -6.5c17.333 -4.33301 34 -11.5 50 -21.5c5.33301 -4 4.83301 -7.66699 -1.5 -11s-8.5 -7.33301 -6.5 -12l5 -35
c3.33301 -23.333 -1 -36.333 -13 -39l2 -119l14.5 -46c9.66699 -30.667 29.167 -56 58.5 -76l21 -16l2 18l5 -5c3.33301 -3.33301 9.33301 -4 18 -2l18 8.5c12 5.66699 20 17.5 24 35.5l-13 122l8 34l-15 -40l-1 22.5c-0.666992 15 -1.66699 31.5 -3 49.5s-3 34.667 -5 50
s-4 23.666 -6 24.999l4 -23.5c2.66699 -15.667 2 -25.5 -2 -29.5l-10.5 40c-7 26.667 -21.5 51 -43.5 73l-2 7.5c-1.33301 5 -1.33301 10.167 0 15.5c0.666992 4 0.833984 4.16699 0.500977 0.5l-0.5 -5.5l7.5 -10c5 -6.66699 12.5 -10.334 22.5 -11.001l47 -2.5
c31.333 -1.66699 53 -1.16699 65 1.5l19 -14.5c12.667 -9.66699 18 -26.834 16 -51.501l-2 -31.5c-1.33301 -21 -2.33301 -44.333 -3 -70s-0.666992 -49.667 0 -72s3 -34.833 7 -37.5l0.5 11c0.333008 7.33301 2.16602 15.333 5.49902 24l3.5 -17
c2.33301 -11.333 5.66602 -24 9.99902 -38s9.33301 -26.833 15 -38.5s12.5 -17.5 20.5 -17.5l22.5 -6.5c15 -4.33301 27.5 -0.5 37.5 11.5l-6.5 -11.5c-4.33301 -7.66699 -9.5 -12.5 -15.5 -14.5l6.5 -5c4.33301 -3.33301 8.5 -2 12.5 4l6 13l12 7l-9 -18
c-6 -12 -7.33301 -21 -4 -27h5c3.33301 0 6.33301 1.66699 9 5s2.33398 -0.5 -0.999023 -11.5s-11 -13.167 -23 -6.5l2 -22c1.33301 -14.667 -4 -22 -16 -22l-50 7l-11 5.5c-7.33301 3.66699 -18 14.5 -32 32.5l-27 -45.5c-18 -30.333 -38.667 -45.166 -62 -44.499l-61 9
l-54.5 26.5c-36.333 17.667 -63.833 41.5 -82.5 71.5l32 -7l-40 21c-26.667 14 -45.334 50.333 -56.001 109l-6 31.5c-4 21 -4.33301 37.5 -1 49.5l-10 -37l-2 19.5c-1.33301 13 -2.5 28 -3.5 45s-1.66699 33.667 -2 50s0.833984 27.5 3.50098 33.5l-8 -12
c-5.33301 -8 -7 -13.333 -5 -16l-5 44c-3.33301 29.333 -14.666 49.666 -33.999 60.999v0l-7 68l13 -62l-17 60l-39 17z" />
    <glyph glyph-name="v" unicode="v" horiz-adv-x="493" 
d="M-27 427l-18.4971 24.001c-12.333 16 -20.5 33 -24.5 51l-7 10.5c-4.66699 7 -10.334 10.5 -17.001 10.5l12 3.5c8 2.33301 14.333 0.5 19 -5.5l-21 32l36 -18l-25 40l25.5 -23c17 -15.333 30.833 -23 41.5 -23l50.5 -1.5c33.667 -1 66.5 -15.167 98.5 -42.5l-3 -24l37 6
l-20 -16l11.5 -16.5c7.66699 -11 6.83398 -22.5 -2.49902 -34.5l-7 -16.5c-4.66699 -11 -0.333984 -27.5 12.999 -49.5l18 -36c12 -24 26.167 -50.5 42.5 -79.5s33.166 -56.167 50.499 -81.5s31.333 -39.333 42 -42c-2 0 -5.5 21.333 -10.5 64s-9.33301 89.5 -13 140.5
s-5.16699 98.167 -4.5 141.5s5.66699 66 15 68l26.5 3.5c17.667 2.33301 34.5 2.16602 50.5 -0.500977l34.5 -18.5c23 -12.333 38.5 -35.5 46.5 -69.5l-1 -26l-16 -12.5c-10.667 -8.33301 -22.167 -19 -34.5 -32s-23.666 -28 -33.999 -45s-15.166 -34.5 -14.499 -52.5
l-1 -19.5c-0.666992 -13 -0.5 -27.833 0.5 -44.5s3.16699 -33 6.5 -49s8.66602 -26.667 15.999 -32l23.5 -42.5c15.667 -28.333 24.167 -49.5 25.5 -63.5l-4 -16c-2.66699 -10.667 -12 -20 -28 -28l-48.5 26.5c-32.333 17.667 -57.833 23.5 -76.5 17.5l3 23l-36.5 33.5
c-24.333 22.333 -52.833 51.666 -85.5 87.999s-65.834 77.333 -99.501 123s-59.834 91.834 -78.501 138.501l-39 19z" />
    <glyph glyph-name="w" unicode="w" horiz-adv-x="517" 
d="M231 354l60.4951 -92.499l54.5 -89.5l39 -68c10 -18 14.667 -27 14 -27c6 4 7.33301 19.333 4 46s-8.16602 55 -14.499 85s-12.5 57.333 -18.5 82l-9 37c-5.33301 22.667 -13.333 39.167 -24 49.5l-16 15.5c-16.667 11.333 -25.5 22.666 -26.5 33.999l-1.5 17l-27 14
l34 -2l-18 23c6.66699 30 23.5 46.833 50.5 50.5l40.5 5.5c8.66699 0.666992 14.667 9.5 18 26.5l5 25.5l7 -41l17 21l4 -34c0 6.66699 4 9.16699 12 7.5l12 -2.5c-6 -0.666992 -8.33301 -4.66699 -7 -12l2 -11c8.66699 -18 13.334 -35.5 14.001 -52.5l1 -25.5l19 5l-18 -23
c15.333 -48 24.833 -96 28.5 -144s4.5 -91.333 2.5 -130s-5 -70 -9 -94l-6 -36l18 -21c-20 4.66699 -36.833 -3.33301 -50.5 -24l-20.5 -31c-18.667 6 -32.667 14.333 -42 25l-14 16c-9.33301 14 -17 35.5 -23 64.5l-9 43.5c2 6 -1.16699 17 -9.5 33
s-17.833 32.167 -28.5 48.5l-29.5 44l-13.5 19.5c-8.66699 13.333 -20.334 26.333 -35.001 39c8.66699 -56.667 11.334 -106.334 8.00098 -149.001l-5 -64l14 -17c-14.667 3.33301 -26.5 -2.66699 -35.5 -18l-13.5 -23c-14 4 -24.5 10 -31.5 18l-10.5 12
c-7.33301 11.333 -13.666 28.333 -18.999 51l-8 34c0.666992 4.66699 -2.16602 13 -8.49902 25s-13.5 24.5 -21.5 37.5s-15.5 24.5 -22.5 34.5l-10.5 15c-18.667 27.333 -45 51.166 -79 71.499l-51 30.5l-15 20c-12.667 26 -15.667 44.667 -9 56l10 17
c8 2.66699 17.5 3.83398 28.5 3.50098l16.5 -0.5c6.66699 -1.33301 21.334 -18.5 44.001 -51.5l71 -108.5l66 -108.5c19.333 -33 28.666 -49.5 27.999 -49.5c4 2.66699 4.16699 14.334 0.5 35.001s-8.16699 42.667 -13.5 66s-10.666 44.5 -15.999 63.5l-8 28.5
c-4 18 -3 20.167 3 6.5l9 -20.5c-2.66699 2 -6 5 -10 9c-3.33301 1.33301 -5.83301 2.5 -7.5 3.5l-2.5 1.5l-18 25c-16.667 34 -20 58.167 -10 72.5l15 21.5c10.667 4 24.167 5.66699 40.5 5l24.5 -1c1.33301 0 5 -2.33301 11 -7l2 13.5l1 6.5l6 -30l0.5 -0.5l0.5 -0.5
l11 15l4 -26c-0.666992 5.33301 2 7.33301 8 6l9 -2c-4 0 -5.5 -3 -4.5 -9l1.5 -9c4 -7.33301 7.33301 -16 10 -26z" />
    <glyph glyph-name="x" unicode="x" horiz-adv-x="577" 
d="M-109 386l22 -9.50781c14.667 -6.33301 26 -9.16602 34 -8.49902l22.5 -4.5c15 -3 25.833 -8.5 32.5 -16.5l13.5 -21c9 -14 13.833 -24 14.5 -30c0 -6 -2.16699 -4.16699 -6.5 5.5s-9.5 16.167 -15.5 19.5c-3.33301 -2.66699 5.33398 -19 26.001 -49
s43.667 -54.667 69 -74c2.66699 2.66699 4.5 4.66699 5.5 6l5.5 7c2.66699 4.66699 5 10 7 16c0 -2 0.166992 -3.33301 0.5 -4l0.5 -1c4.66699 2 9.33398 11.5 14.001 28.5s8.83398 35.167 12.501 54.5s6.5 37 8.5 53l3 24c2 14.667 0.666992 25.5 -4 32.5l-7 10.5
c-8 8 -10.833 15.5 -8.5 22.5l3.5 10.5l-15 10l22 -2l-6 15c12 18.667 27.833 28.834 47.5 30.501l29.5 2.5c6 0 12.333 5.33301 19 16l10 16l-6 -26l17 12l-6 -21c2 4 5.5 5.33301 10.5 4l7.5 -2c-4 0 -6.5 -2.33301 -7.5 -7l-1.5 -7c1.33301 -12 0 -23.333 -4 -34l-6 -16
l15 2l-19 -14c-2.66699 -58.667 -17.834 -114.667 -45.501 -168s-43.5 -83 -47.5 -89l34 -20c-9.33301 -4 -4.83301 -14.667 13.5 -32s40.166 -35.666 65.499 -54.999s49.5 -36.5 72.5 -51.5l34.5 -22.5c17.333 -14 31.333 -20.333 42 -19l16 2
c12.667 4 23.167 2.16699 31.5 -5.5l12.5 -11.5l18 12l-11 -26l21 -3c18.667 -28 25.334 -54.167 20.001 -78.5l-8 -36.5c-2 -8 2.5 -19.5 13.5 -34.5l16.5 -22.5l-32 25l10 -29l-25 22c4.66699 -4.66699 5.16699 -9.66699 1.5 -15l-5.5 -8
c1.33301 4.66699 -0.666992 9.33398 -6 14.001l-8 7c-16 6.66699 -30 16 -42 28l-18 18l-2 -19l-10 32c-62.667 38 -120.167 87.167 -172.5 147.5s-87.833 103.5 -106.5 129.5l6 -17l-12 12.5c-8 8.33301 -14.333 11.166 -19 8.49902l-1 2c-8 -20.667 -19 -43.167 -33 -67.5
s-31.333 -44.166 -52 -59.499l4 -20l-8 13l-6.5 -11c-4.33301 -7.33301 -10.166 -13 -17.499 -17l-3 -4c-2 -2.66699 -2 -5.66699 0 -9l-6.5 5.5c-4.33301 3.66699 -5.5 6.83398 -3.5 9.50098l-10 -13l-3 19l-13 -15l3.5 14.5c2.33301 9.66699 1.5 16.834 -2.5 21.501
l-17.5 25.5c-11.667 17 -15.834 34.5 -12.501 52.5l14 1l-17 18l17 -9l5 7c3.33301 4.66699 10 5 20 1l11 -2c7.33301 -1.33301 14.666 2.33398 21.999 11.001l23 21c15.333 14 28.666 27.667 39.999 41l7 12l-100.5 114c-39 44 -63.5 68.667 -73.5 74l6 -0.5
c4 -0.333008 7 -1.16602 9 -2.49902l-6.5 4.5c-4.33301 3 -8.5 4.83301 -12.5 5.5l7 3z" />
    <glyph glyph-name="y" unicode="y" horiz-adv-x="446" 
d="M-166 380c-14 0.666992 -24.999 8.50195 -32.999 23.502s-13.167 31.667 -15.5 50s-1.83301 35.5 1.5 51.5s9.33301 25.333 18 28l154 -32l213 -291l13 -32l22 -8l5.5 29.5l12.5 69c4.66699 26.333 8.66699 52.333 12 78s4.66602 44.5 3.99902 56.5l-14.5 21
c-9.66699 14 -18.667 30.167 -27 48.5s-13.166 36.166 -14.499 53.499s6.33398 29.333 23.001 36l32.5 -32l72 -73c26.333 -27.333 51 -54.333 74 -81s35.833 -45.334 38.5 -56.001l-27.5 -54c-18.333 -36 -36.833 -77.333 -55.5 -124s-32.834 -92 -42.501 -136
s-5.83398 -74.333 11.499 -91l20 -40c13.333 -26.667 25.666 -56 36.999 -88s17.5 -61 18.5 -87s-10.833 -38 -35.5 -36l-47 20.5c-31.333 13.667 -63.5 31.5 -96.5 53.5s-60 47.167 -81 75.5s-21.167 57.5 -0.5 87.5l25 8.5c16.667 5.66699 32.334 8.5 47.001 8.5l8 96
c-3.33301 -4 -21.333 8.66699 -54 38s-69.5 64.5 -110.5 105.5l-121 125.5c-39.667 42.667 -68.5 75 -86.5 97z" />
    <glyph glyph-name="z" unicode="z" horiz-adv-x="386" 
d="M-90 319l-18.501 10.999c-12.333 7.33301 -26.333 17.666 -42 30.999s-30 29.833 -43 49.5s-20.167 41.5 -21.5 65.5l19 -32l3 22.5c2 15 -5.66699 32.833 -23 53.5l35.5 -17.5c23.667 -11.667 41.834 -14.834 54.501 -9.50098l26.5 -2c17.667 -1.33301 39 -1 64 1
s51 6.83301 78 14.5s50.167 20.5 69.5 38.5l35 -15.5c23.333 -10.333 52 -36.5 86 -78.5l7.5 -20.5c5 -13.667 4.5 -22.834 -1.5 -27.501l-39 -32c-26 -21.333 -39 -48.333 -39 -81l1 30c0.666992 20 3 32 7 36l-7.5 -17.5c-5 -11.667 -8.16699 -26.5 -9.5 -44.5v0l-3 -24
c-2 -16 -3.83301 -33.833 -5.5 -53.5s-2.33398 -38.167 -2.00098 -55.5s2.5 -27.333 6.5 -30v0c0.666992 -2 1.66699 -4.33301 3 -7l15 -14l32 2c21.333 1.33301 36 15 44 41l40 -13c26.667 -8.66699 53 -37.667 79 -87l3.5 -24c2.33301 -16 0.5 -25.333 -5.5 -28h-19
c-12.667 0 -23 6.66699 -31 20l-39.5 8.5c-26.333 5.66699 -53.166 2.5 -80.499 -9.5l-33 -18.5c-22 -12.333 -33.667 -22.166 -35 -29.499c-2 -13.333 -17.5 -18.166 -46.5 -14.499s-48.5 11.167 -58.5 22.5l3.5 34.5c2.33301 23 -10.5 41.833 -38.5 56.5l10 8l-17 17
l26 -8l-7 12l24 -7l9 3l24 2c20 20.667 35.833 60.5 47.5 119.5s19.834 107.833 24.501 146.5c5.33301 24 7 40.333 5 49l-61 -14.5c-40.667 -9.66699 -69.667 -25.5 -87 -47.5l-8.5 -5c-5.66699 -3.33301 -4.83398 -9.66602 2.49902 -18.999l-19 6.5
c-12.667 4.33301 -18 8.83301 -16 13.5v-23c0 -15.333 3.66699 -22.666 11 -21.999z" />
    <glyph glyph-name="exclamdown" unicode="&#xa1;" horiz-adv-x="668" 
d="M376 1061c4.66699 2.66699 7.83496 10.832 9.50195 24.499l2.5 20.5c6 -2 8.33301 -13.333 7 -34l-2 -31c0.666992 -10 -3.33301 -24.5 -12 -43.5l-13 -28.5c7.33301 4 13.666 12 18.999 24l8 18c3.33301 -7.33301 0.166016 -18.833 -9.50098 -34.5
s-16.5 -25.5 -20.5 -29.5c-0.666992 -1.33301 5.5 2.83398 18.5 12.501s21.833 20.834 26.5 33.501c0 -44.667 -12.333 -76.834 -37 -96.501l-37 -29.5c-18 -10.667 -36.333 -14.5 -55 -11.5l-28 4.5c-14.667 -2 -32.167 -10.667 -52.5 -26l-30.5 -23
c-17.333 -2.66699 -24.5 3.83301 -21.5 19.5l4.5 23.5c-8 8 -10 19.167 -6 33.5s9.83301 28.333 17.5 42s15.5 25.667 23.5 36l12 15.5c10 10 24.167 12.5 42.5 7.5l27.5 -7.5c17.333 4 39.333 18.333 66 43zM103.001 -37.002c-0.666992 -8 -4.83301 -13.3311 -12.5 -15.998
l-11.5 -4c12.667 4.66699 17.167 9.83398 13.5 15.501l-5.5 8.5c-10 8 -26.667 11.667 -50 11l-35 -1c-26 6.66699 -42.167 22.334 -48.5 47.001l-9.5 37c-8.66699 -2 -17.667 3.16699 -27 15.5l-14 18.5c3.33301 -6 9.16602 -7.66699 17.499 -5l12.5 4
c-8 0 -13.667 5.5 -17 16.5l-5 16.5c2.66699 -8.66699 9.83398 -12.334 21.501 -11.001l17.5 2c2 6 0 12.167 -6 18.5l-9 9.5c10 -5.33301 18.167 -6.33301 24.5 -3l9.5 5c17.333 27.333 21.333 54.833 12 82.5l-14 41.5c10 42.667 16.333 91.667 19 147
s3.66699 107.666 3 156.999s-2 91 -4 125l-3 51c-26 29.333 -36.167 47 -30.5 53l8.5 9c0 -6 1.5 -10.5 4.5 -13.5l4.5 -4.5c9.33301 2 17.333 -1 24 -9l10 -12c0 10 -4.16699 22 -12.5 36l-12.5 21l49 -48c-4.66699 12.667 -2.5 22 6.5 28l13.5 9
c5.33301 -26.667 19.666 -44 42.999 -52l35 -12c14 16.667 24.333 24.167 31 22.5l10 -2.5c-14 2.66699 -23.167 -2.33301 -27.5 -15l-6.5 -19l21 4c4.66699 -22.667 17.834 -33.834 39.501 -33.501l32.5 0.5c-10 -4 -13.167 -10.167 -9.5 -18.5l5.5 -12.5
c8.66699 4 16 2.66699 22 -4l9 -10c-9.33301 8 -15.666 9.66699 -18.999 5s-5.16602 -11.5 -5.49902 -20.5s0.166992 -17.833 1.5 -26.5l2 -13c1.33301 8 5.16602 11.833 11.499 11.5l9.5 -0.5c-11.333 -1.33301 -15.333 -6.66602 -12 -15.999s7.33301 -10 12 -2
c2.66699 -20 19.5 -52 50.5 -96s64.833 -88.5 101.5 -133.5l100 -118l45 -50.5l29 -4c-8 -26 -9.66699 -44.167 -5 -54.5l7 -15.5c-4 2 -4.33301 11.833 -1 29.5l5 26.5c0 -20.667 8.83301 -43.334 26.5 -68.001l26.5 -37l-4 -37c-8.66699 0 -10.834 -10 -6.50098 -30
l6.5 -30l-57 -8c-48 15.333 -84 41.833 -108 79.5l-36 56.5c6 -6 12 -7.33301 18 -4l9 5c-23.333 82.667 -51.833 135.667 -85.5 159l-50.5 35c18 -7.33301 35.167 -22.333 51.5 -45l24.5 -34c-42 21.333 -87.5 38.5 -136.5 51.5s-77.5 14.833 -85.5 5.5
c-14.667 -8 -23.5 -5.66699 -26.5 7s-2.83301 22 0.5 28c-40.667 -46.667 -62 -95.667 -64 -147l-3 -77c-5.33301 31.333 0.166992 66.166 16.5 104.499l24.5 57.5c-10 -22 -13.167 -47.167 -9.5 -75.5s7.83398 -53.5 12.501 -75.5c1.33301 -8 0.666016 -19 -2.00098 -33
s-3 -23.667 -1 -29c2 -6.66699 5.33301 -6.16699 10 1.5l7 11.5l-10 -57c-11.333 -2 -19 -9.66699 -23 -23zM135.002 418l-1 -10.999l16 5l6 -7c14.667 0 32 -3.5 52 -10.5s39 -14.833 57 -23.5s33.333 -16.334 46 -23.001l19 -10c-6.66699 14.667 -18 32.667 -34 54
s-32.333 41.833 -49 61.5l-44 51l-19 21.5c4 -24 -3.16699 -48 -21.5 -72z" />
    <glyph glyph-name="ellipsis" unicode="&#x2026;" 
d="M186 460l19.0059 -23.9951l85 16l-85 -16l85 16v0c-2.66699 3.33301 -6.83398 5.83301 -12.501 7.5s-9.83398 2.83398 -12.501 3.50098c13.333 0 35.166 -0.666992 65.499 -2l45.5 -2l-4 18c32 -12 47.333 -30.167 46 -54.5l-2 -36.5
c-7.33301 2 -19.833 -1.33301 -37.5 -10s-35.834 -18.334 -54.501 -29.001s-35.167 -20.667 -49.5 -30l-21.5 -14c-14 -1.33301 -22.833 -0.333008 -26.5 3l-5.5 5c-4.66699 -2 -2.5 -16.667 6.5 -44l13.5 -41l-32 48l47 -102c70 36 125 55.167 165 57.5l60 3.5
c-12 4.66699 -18.333 4 -19 -2l-1 -9c10.667 0 17.167 -7.33301 19.5 -22l3.5 -22c-10.667 4 -19 2.66699 -25 -4l-9 -10c6 3.33301 13 3.5 21 0.5l12 -4.5c-10 1.33301 -17.667 -0.333984 -23 -5.00098l-8 -7l36 -6l-36 -14c-15.333 -5.33301 -33.5 -12.166 -54.5 -20.499
l-58 -24c-17.667 -7.66699 -31.334 -13.834 -41.001 -18.501s-10.167 -5.33398 -1.5 -2.00098c16 5.33301 35.5 9.33301 58.5 12l34.5 4c-55.333 -17.333 -96.166 -33 -122.499 -47s-44.333 -25.833 -54 -35.5s-13.834 -17.334 -12.501 -23.001l2 -8.5l-13 32
c-12 10 -22.333 12.333 -31 7l-13 -8c4 9.33301 1.83301 19.333 -6.5 30s-18.5 20.5 -30.5 29.5s-23.167 16.667 -33.5 23l-15.5 9.5c8.66699 1.33301 12.167 8.16602 10.5 20.499l-2.5 18.5c-10.667 1.33301 -19.834 8.16602 -27.501 20.499l-11.5 18.5l-6.5 7.5
c-4.33301 5 -4.16602 4.16699 0.500977 -2.5c4.66699 -7.33301 13.167 -11 25.5 -11h18.5c-10 4 -16.5 12.833 -19.5 26.5l-4.5 20.5c4 -12.667 12.833 -23.167 26.5 -31.5l20.5 -12.5l13 -2l1 18l17 5l-110 385c-4 2.66699 -8.33301 0.833984 -13 -5.49902l-7 -9.5
c-2.66699 4 -1.83398 8.66699 2.49902 14l6.5 8c-12 -4 -19.167 -13.333 -21.5 -28l-3.5 -22l-19 -2l-17 8c4.66699 14 0.666992 21.167 -12 21.5l-19 0.5l6 15c-8 6.66699 -15.5 8.5 -22.5 5.5l-10.5 -4.5l10 24c-6 2 -14 0.166992 -24 -5.5l-15 -8.5
c11.333 2 15.5 8.16699 12.5 18.5l-4.5 15.5c-14 -6 -24.167 -6.33301 -30.5 -1l-9.5 8c6 -5.33301 12.833 -5.5 20.5 -0.5l11.5 7.5l1 23l-17 7l17 14c-31.333 -2 -50.333 2 -57 12l-10 15c28 -16 47.167 -21.333 57.5 -16l15.5 8l-9 25l42 -9
c-16 6.66699 -24.833 14.334 -26.5 23.001l-2.5 13c6 -18.667 18.167 -29 36.5 -31l27.5 -3c-16.667 9.33301 -25.334 18.666 -26.001 27.999l-1 14c11.333 -24 22.833 -35.667 34.5 -35l17.5 1c0.666992 14 1.16699 22.833 1.5 26.5l0.5 5.5l13 -22
c3.33301 -4.66699 14.333 -7.33398 33 -8.00098s38.5 -0.333984 59.5 0.999023s40.167 3 57.5 5l26 3c66 2 107.5 16.833 124.5 44.5l25.5 41.5c52.667 -24.667 82.834 -51.5 90.501 -80.5l11.5 -43.5l-8 -49c-9.33301 -5.33301 -19.833 -8.83301 -31.5 -10.5l-17.5 -2.5
l9 26c-29.333 10.667 -56 9.83398 -80 -2.49902l-36 -18.5c2 6.66699 13.333 14.667 34 24l31 14c-30 -9.33301 -58.667 -20.833 -86 -34.5l-41 -20.5l21 -130l-33 96zM293.006 1020c4 2.66699 6.83203 10.832 8.49902 24.499l2.5 20.5c6 -2 8.5 -13.333 7.5 -34l-1.5 -31
c0 -10 -4.33301 -24.5 -13 -43.5l-13 -28.5c7.33301 4 13.666 12 18.999 24l8 18c4 -7.33301 1 -18.833 -9 -34.5s-17 -25.5 -21 -29.5c-0.666992 -1.33301 5.5 2.83398 18.5 12.501s21.833 20.834 26.5 33.501c0 -44.667 -12.333 -76.834 -37 -96.501l-37 -29.5
c-18 -10.667 -36.167 -14.5 -54.5 -11.5l-27.5 4.5c-15.333 -2 -33 -10.667 -53 -26l-30 -23c-17.333 -2.66699 -24.666 3.83301 -21.999 19.5l4 23.5c-7.33301 8 -9 19.167 -5 33.5s9.83301 28.333 17.5 42s15.334 25.667 23.001 36l11.5 15.5c10 10 24.167 12.5 42.5 7.5
l27.5 -7.5c18 4 40.333 18.333 67 43z" />
    <glyph glyph-name="Otilde" unicode="&#xd5;" horiz-adv-x="476" 
d="M-211 753c8.66699 -5.33301 33.3398 -6.83105 74.0068 -4.49805s84.667 6.16602 132 11.499s92.333 10.833 135 16.5s70.667 9.16699 84 10.5c81.333 -2 132.666 -11 153.999 -27s25.666 -34 12.999 -54s-36 -39.167 -70 -57.5s-65.667 -30.833 -95 -37.5
c13.333 -8.66699 21.333 -41 24 -97s3 -116 1 -180s-4.83301 -121.833 -8.5 -173.5l-5.5 -77.5c45.333 14 90.333 20.333 135 19l67 -2c16.667 -17.333 24.667 -30.666 24 -39.999s-4.5 -16 -11.5 -20s-14.167 -6.33301 -21.5 -7s-8.66602 -0.666992 -3.99902 0
c-48 0 -93.833 -5.66699 -137.5 -17s-82.334 -24.166 -116.001 -38.499s-60.334 -27.5 -80.001 -39.5l-29.5 -18c-44 7.33301 -74.833 22.166 -92.5 44.499s-28.334 45.333 -32.001 69s-3.5 44.834 0.5 63.501l6 28c-2 -12 7.5 -21.667 28.5 -29s44.333 -13.333 70 -18
s49.5 -7.83398 71.5 -9.50098l33 -2.5c18 -2.66699 21 18.666 9 63.999s-28.667 95.5 -50 150.5s-42.5 105.833 -63.5 152.5l-31.5 70c-31.333 -26.667 -60.333 -42 -87 -46s-49.834 -3 -69.501 3s-35 13.667 -46 23l-16.5 14c-26.667 46 -41.334 85.333 -44.001 118
s-0.333984 59.167 6.99902 79.5s16.333 35.166 27 44.499zM132.006 1041c4 2.66699 6.99902 10.832 8.99902 24.499l3 20.5c6 -2 8.33301 -13.333 7 -34l-2 -31c0.666992 -10 -3.33301 -24.5 -12 -43.5l-13 -28.5c6.66699 4 12.834 12 18.501 24l8.5 18
c3.33301 -7.33301 0.166016 -18.833 -9.50098 -34.5s-16.5 -25.5 -20.5 -29.5c-0.666992 -1.33301 5.5 2.83398 18.5 12.501s21.833 20.834 26.5 33.501c0 -44.667 -12.333 -76.834 -37 -96.501l-37 -29.5c-18 -10.667 -36.333 -14.5 -55 -11.5l-28 4.5
c-14 -2 -31.167 -10.667 -51.5 -26l-30.5 -23c-16.667 -2.66699 -23.667 3.83301 -21 19.5l4 23.5c-7.33301 8 -9 19.167 -5 33.5s9.83301 28.333 17.5 42s15.334 25.667 23.001 36l11.5 15.5c10 10 24 12.5 42 7.5l27 -7.5c17.333 4 39.333 18.333 66 43z" />
    <glyph glyph-name="quotedblright" unicode="&#x201d;" horiz-adv-x="586" 
d="M149 699l8.5 36.9971c5.66699 24.667 -1.16602 44 -20.499 58l30.5 -23.5c20.333 -15.667 32.166 -29.5 35.499 -41.5l10 26c6.66699 17.333 4.33398 32 -6.99902 44l44.5 -27c29.667 -18 59.834 -41 90.501 -69s55 -58.833 73 -92.5s15 -66.5 -9 -98.5l-5 -22.5
c-3.33301 -15 9.66699 -31.5 39 -49.5c39.333 -31.333 69.166 -77.5 89.499 -138.5s22.5 -118.5 6.5 -172.5s-54.333 -95.5 -115 -124.5s-151.334 -27.833 -272.001 3.5c-101.333 36 -173.5 85.833 -216.5 149.5s-62 129.834 -57 198.501s31.5 134.334 79.5 197.001
s113 111.334 195 146.001zM486 1041c4.66699 2.66699 7.83203 10.832 9.49902 24.499l2.5 20.5c6 -2 8.33301 -13.333 7 -34l-2 -31c0.666992 -10 -3.33301 -24.5 -12 -43.5l-13 -28.5c7.33301 4 13.666 12 18.999 24l8 18c4 -7.33301 1 -18.833 -9 -34.5
s-17 -25.5 -21 -29.5c-0.666992 -1.33301 5.5 2.83398 18.5 12.501s21.833 20.834 26.5 33.501c0 -44.667 -12.333 -76.834 -37 -96.501l-37 -29.5c-18 -10.667 -36.167 -14.5 -54.5 -11.5l-27.5 4.5c-15.333 -2 -33 -10.667 -53 -26l-30 -23
c-17.333 -2.66699 -24.666 3.83301 -21.999 19.5l4 23.5c-7.33301 8 -9 19.167 -5 33.5s9.83301 28.333 17.5 42s15.334 25.667 23.001 36l11.5 15.5c10 10 24.167 12.5 42.5 7.5l27.5 -7.5c18 4 40.167 18.333 66.5 43zM362.998 460.995
c-97.333 -42 -165.334 -81 -204.001 -117s-58 -67.667 -58 -95s14.5 -50 43.5 -68s62.833 -29.667 101.5 -35s77.334 -3.83301 116.001 4.5s67.667 25 87 50s24.333 58.833 15 101.5s-43 95.667 -101 159z" />
    <glyph glyph-name="fraction" unicode="&#x2044;" horiz-adv-x="573" 
d="M-117 671l-13.9951 25.9961c-9.33301 17.333 -17.833 36.833 -25.5 58.5s-11.334 42 -11.001 61s10.166 30.167 29.499 33.5c14 -1.33301 34.333 -5 61 -11s54.5 -18 83.5 -36s57 -43.667 84 -77s47.833 -77.666 62.5 -132.999l-23 -16.5
c-15.333 -11 -28.666 -28.667 -39.999 -53s-16 -56.5 -14 -96.5s20 -89 54 -147c58 -92.667 109.667 -141 155 -145s77.5 18.333 96.5 67s21.333 114.334 7 197.001s-51.833 165 -112.5 247l45 -13l-30 83l80 -70l12 47l39 -99l-1 57c-0.666992 8.66699 3 6.5 11 -6.5
s17.5 -33.667 28.5 -62s22.667 -62 35 -101s22.666 -80 30.999 -123s13.666 -85.667 15.999 -128s-0.833984 -80.833 -9.50098 -115.5s-24 -63.5 -46 -86.5s-52.667 -36.5 -92 -40.5c-99.333 -2 -176.833 23.5 -232.5 76.5s-99.667 116.833 -132 191.5
s-58.333 150.834 -78 228.501s-42.834 139.834 -69.501 186.501zM360.005 1008c4 2.66699 6.83203 11.001 8.49902 25.001l2.5 21c6.66699 -2 9.33398 -13.5 8.00098 -34.5l-2 -31.5c0.666992 -10 -3.33301 -24.333 -12 -43l-13 -28c6.66699 4 12.834 11.833 18.501 23.5
l8.5 17.5c3.33301 -7.33301 0.166016 -18.833 -9.50098 -34.5s-16.5 -25.5 -20.5 -29.5c-1.33301 -0.666992 4.66699 3.66602 18 12.999s22 20.333 26 33c0 -44 -12.333 -75.833 -37 -95.5l-37 -29.5c-18 -10.667 -36.167 -14.5 -54.5 -11.5l-27.5 4.5
c-14.667 -2.66699 -32.167 -11.667 -52.5 -27l-30.5 -23c-17.333 -2 -24.5 4.66699 -21.5 20l4.5 23c-8 8 -10 19.167 -6 33.5s9.83301 28.5 17.5 42.5s15.5 26.167 23.5 36.5l12 15.5c10 9.33301 24 11.5 42 6.5l27 -7.5c18 4 40.333 18.333 67 43z" />
    <glyph glyph-name="periodcentered" unicode="&#xb7;" horiz-adv-x="565" 
d="M138 512c6 8.66699 7.49902 19.4961 4.49902 32.4961l-4.5 19.5c-16 6 -23.667 19.333 -23 40l1 31c6.66699 -10 19.5 -22.167 38.5 -36.5s38.333 -28.166 58 -41.499s37.334 -24.666 53.001 -33.999l23.5 -14l13 -57l-23 -15c-4 -75.333 2.5 -133.166 19.5 -173.499
s36.167 -69.666 57.5 -87.999s41.333 -28.666 60 -30.999l28 -3.5c16 3.33301 30 12.5 42 27.5s21.833 30.667 29.5 47s13.5 31 17.5 44l6 19.5c-1.33301 -40 -11 -80.833 -29 -122.5l-27 -62.5l48 52l-13 -92c-13.333 -22 -30.166 -34.5 -50.499 -37.5
s-40.166 -2 -59.499 3s-36 11.5 -50 19.5l-21 12c-18.667 -21.333 -38.334 -35.166 -59.001 -41.499s-39.5 -9.33301 -56.5 -9s-31 2.66602 -42 6.99902l-16.5 6.5c-45.333 18 -81.5 45.167 -108.5 81.5s-47.667 72.666 -62 108.999s-23.833 68.333 -28.5 96l-7 41.5
c-8.66699 66 -4 112 14 138s39.167 41.333 63.5 46s47.666 3.5 69.999 -3.5zM444.999 858.996c4 2.66699 7 11 9 25l3 21c6 -2 8.33301 -13.333 7 -34l-2 -31c0.666992 -10 -3.33301 -24.5 -12 -43.5l-13 -28.5c6.66699 4 12.834 11.833 18.501 23.5l8.5 17.5
c3.33301 -7.33301 0.166016 -18.833 -9.50098 -34.5s-16.5 -25.5 -20.5 -29.5c-0.666992 -0.666992 5.5 3.83301 18.5 13.5s21.833 20.5 26.5 32.5c0 -44 -12.333 -75.833 -37 -95.5l-37 -29.5c-18 -10.667 -36.333 -14.5 -55 -11.5l-28 4.5
c-14.667 -2 -32.167 -10.833 -52.5 -26.5l-30.5 -23.5c-17.333 -2 -24.5 4.66699 -21.5 20l4.5 23c-8 8.66699 -10 20.167 -6 34.5s9.83301 28.333 17.5 42s15.5 25.667 23.5 36l12 15.5c10 10 24.167 12.333 42.5 7l27.5 -8c17.333 4 39.333 18.333 66 43zM50.999 313.996
c4 -5.33301 9.33301 -17.834 16 -37.501l10 -29.5c9.33301 -19.333 22.666 -32.166 39.999 -38.499s34.333 -9.83301 51 -10.5s31.334 0.5 44.001 3.5l19 4.5c-8.66699 2 -17.167 11.5 -25.5 28.5s-14.5 35.667 -18.5 56s-5 38.833 -3 55.5s8.66699 25.667 20 27
c-14 -5.33301 -25.833 -0.5 -35.5 14.5l-14.5 22.5l-89 -2c-18.667 -7.33301 -25.667 -24.833 -21 -52.5z" />
    <glyph glyph-name="Egrave" unicode="&#xc8;" horiz-adv-x="467" 
d="M1 434c4.66699 36 16.3301 62.999 34.9971 80.999s38 30.667 58 38s38 10.833 54 10.5s24 -0.833008 24 -1.5l-14 -99c-32.667 0.666992 -51 -9.83301 -55 -31.5l-6 -32.5c31.333 -14 62.5 -21 93.5 -21h46.5c-14 36 -30.667 59.167 -50 69.5l-29 15.5l14 99
c54.667 -20 92.667 -44.833 114 -74.5l32 -44.5c48 -76 68.833 -129.667 62.5 -161l-9.5 -47c-11.333 -16.667 -20.166 -23.667 -26.499 -21l-9.5 4c-58.667 48 -110.167 71.5 -154.5 70.5l-66.5 -1.5c7.33301 -48.667 24.333 -83 51 -103l40 -30l-7.5 8
c-5 5.33301 -4.5 4.33301 1.5 -3c5.33301 -8 20 -10.667 44 -8l36 4c10 -2 19.667 1.83301 29 11.5l14 14.5l-4 -26l27 2l1 -30l40 -2l-6 -20l19 -10l-36 -20h-42l1 -23l22 -12c18.667 14 38 21 58 21h30l13 -13c-14.667 4.66699 -33.167 2.83398 -55.5 -5.49902
l-33.5 -12.5l-2 -13h-22l2 -9c-32 -9.33301 -57.833 -11.833 -77.5 -7.5l-29.5 6.5l-2 24l-25 -11c-47.333 8 -78.833 26.833 -94.5 56.5l-23.5 44.5l4 21l-20 9c-9.33301 3.33301 -18.166 14.833 -26.499 34.5s-15.666 40.5 -21.999 62.5s-11.166 41.833 -14.499 59.5
l-5 26.5c-1.33301 12 -7 19.667 -17 23l-15 5l-5 31c-20 2 -30.667 11.333 -32 28l-2 25c10.667 2.66699 18.667 1.83398 24 -2.49902l8 -6.5c7.33301 -8.66699 16.166 -11.334 26.499 -8.00098zM274.996 797.999c4 3.33301 7 11.833 9 25.5l3 20.5
c6 -2 8.33301 -13.333 7 -34l-2 -31c0.666992 -10 -3.33301 -24.5 -12 -43.5l-13 -28.5c6.66699 4 12.834 12 18.501 24l8.5 18c3.33301 -7.33301 0.166016 -19 -9.50098 -35s-16.5 -26 -20.5 -30c-0.666992 -0.666992 5.5 3.83301 18.5 13.5s21.5 20.834 25.5 33.501
c0 -44.667 -12.167 -76.834 -36.5 -96.501l-36.5 -29.5c-18 -10.667 -36.333 -14.5 -55 -11.5l-28 4.5c-14.667 -2 -32.167 -10.833 -52.5 -26.5l-30.5 -23.5c-17.333 -2 -24.5 4.83301 -21.5 20.5l4.5 23.5c-8 8 -10 19.167 -6 33.5s9.83301 28.333 17.5 42
s15.5 25.667 23.5 36l12 15.5c10 10 24 12.5 42 7.5l27 -7.5c18 3.33301 40.333 17.333 67 42z" />
    <glyph glyph-name="Igrave" unicode="&#xcc;" horiz-adv-x="496" 
d="M45 464l2 30.998c1.33301 20.667 -13 36.667 -43 48l-12.5 47c-8.33301 31.333 -10.5 55 -6.5 71l29.5 -28c19.667 -18.667 44.5 -25.334 74.5 -20.001l25 -5c16.667 -3.33301 35.5 -8.83301 56.5 -16.5s41.167 -18 60.5 -31s31.666 -28.833 36.999 -47.5v-26.5
c0 -17.667 0.833008 -37 2.5 -58s4.16699 -40.667 7.5 -59s8.66602 -28.5 15.999 -30.5l-15 1c-10 0.666992 -20 7.66699 -30 21l-13 -48.5c-8.66699 -32.333 -9.66699 -67.166 -3 -104.499s27 -70.666 61 -99.999s93.667 -41 179 -35
c-11.333 4.66699 -33.666 3.83398 -66.999 -2.49902s-66.666 -16.333 -99.999 -30s-60.833 -29 -82.5 -46s-26.5 -34.167 -14.5 -51.5c-12 27.333 -23.833 60 -35.5 98s-21.667 77 -30 117s-14.833 78.5 -19.5 115.5s-5.66699 67.833 -3 92.5l-12.5 -29.5
c-8.33301 -19.667 -9.5 -39.167 -3.5 -58.5l-23.5 53c-15.667 35.333 -20.5 60.666 -14.5 75.999l2 28c1.33301 18.667 -6.66699 28.334 -24 29.001zM344 879.998c4.66699 2.66699 7.83496 10.835 9.50195 24.502l2.5 20.5c6 -2 8.33301 -13.333 7 -34l-2 -31
c0.666992 -10 -3.33301 -24.5 -12 -43.5l-13 -28.5c7.33301 4 13.666 12 18.999 24l8 18c3.33301 -7.33301 0.166016 -18.833 -9.50098 -34.5s-16.5 -25.5 -20.5 -29.5c-0.666992 -0.666992 5.5 3.66602 18.5 12.999s21.833 20.333 26.5 33c0 -44 -12.333 -76 -37 -96
l-37 -30c-18 -10.667 -36.333 -14.334 -55 -11.001l-28 5c-14.667 -2.66699 -32.167 -11.667 -52.5 -27l-30.5 -23c-17.333 -2 -24.5 4.66699 -21.5 20l4.5 23c-8 8 -10 19.167 -6 33.5s9.83301 28.5 17.5 42.5s15.5 26.167 23.5 36.5l12 15.5
c10 9.33301 24.167 11.5 42.5 6.5l27.5 -7.5c17.333 4 39.333 18.333 66 43z" />
    <glyph glyph-name="Ucircumflex" unicode="&#xdb;" horiz-adv-x="567" 
d="M-13 325l-10.998 -15.9961c-7.33301 -10.667 -10 -19.667 -8 -27l-5 29.5c-3.33301 19.667 -3.83301 43.5 -1.5 71.5s10.166 57.333 23.499 88s37.666 57 72.999 79l16 40c10.667 26.667 5.66699 50.667 -15 72l36 -11c24 -7.33301 50.833 -16.833 80.5 -28.5
s57.167 -24.5 82.5 -38.5s39.333 -27.333 42 -40l-32 -16c-21.333 -10.667 -31.333 -24.334 -30 -41.001l32 -9c21.333 -6 46.833 -16.667 76.5 -32s60 -36.333 91 -63s55.833 -60.667 74.5 -102l12.5 -30.5c8.33301 -20.333 13 -44.333 14 -72
s-5.16699 -56.167 -18.5 -85.5s-42 -53 -86 -71c-66 -20.667 -127.667 -23.834 -185 -9.50098s-106.5 38.166 -147.5 71.499s-71.833 72.166 -92.5 116.499s-28 85.833 -22 124.5zM367.002 921.004c4.66699 2.66699 7.83496 11 9.50195 25l2.5 21
c6 -2 8.33301 -13.333 7 -34l-2 -31c0.666992 -10 -3.33301 -24.5 -12 -43.5l-13 -28.5c7.33301 4 13.666 11.833 18.999 23.5l8 17.5c3.33301 -7.33301 0.166016 -18.833 -9.50098 -34.5s-16.5 -25.5 -20.5 -29.5c-0.666992 -0.666992 5.5 3.83301 18.5 13.5
s21.833 20.5 26.5 32.5c0 -44 -12.333 -75.833 -37 -95.5l-37 -29.5c-18 -10.667 -36.333 -14.5 -55 -11.5l-28 4.5c-14.667 -2 -32.167 -10.833 -52.5 -26.5l-30.5 -23.5c-17.333 -2 -24.5 4.83301 -21.5 20.5l4.5 23.5c-8 8 -10 19.167 -6 33.5s9.83301 28.333 17.5 42
s15.5 25.667 23.5 36l12 15.5c10 10 24.167 12.333 42.5 7l27.5 -8c17.333 4 39.333 18.333 66 43zM134.003 249.004c0 4 4.00195 10.001 12.002 18.001l12 12c-14 -19.333 -17.167 -38.833 -9.5 -58.5l11.5 -29.5c-2.66699 11.333 -0.833984 20 5.49902 26l9.5 9
c-8 -28.667 -5.33301 -50 8 -64s29.666 -23.667 48.999 -29s37.833 -7.83301 55.5 -7.5l26.5 0.5c16.667 2 29.5 9.5 38.5 22.5s15.5 26.833 19.5 41.5s6.33301 28 7 40l1 18c-6 -2.66699 -12.833 -6.83398 -20.5 -12.501l-11.5 -8.5l24 29
c-14 64 -38.5 104.833 -73.5 122.5l-52.5 26.5c11.333 -6 18.5 -12.667 21.5 -20l4.5 -11c-18 17.333 -37.333 25.5 -58 24.5l-31 -1.5c-21.333 -1.33301 -35.833 -9.83301 -43.5 -25.5s-12 -32.5 -13 -50.5s0 -34.5 3 -49.5z" />
    <glyph glyph-name="dotaccent" unicode="&#x2d9;" horiz-adv-x="571" 
d="M-103 604c-0.666992 1.33301 5.33105 -0.495117 17.998 -5.49512s31 -7.83301 55 -8.5l40.5 -22.5c27 -15 45.5 -30.5 55.5 -46.5l28.5 -6.5c19 -4.33301 36.5 -12.166 52.5 -23.499c6 -4.66699 5.66699 -8.83398 -1 -12.501s-9 -8.16699 -7 -13.5l5 -38.5
c3.33301 -25.667 -1 -39.834 -13 -42.501l1 -132l15.5 -50.5c10.333 -33.667 31.166 -61.834 62.499 -84.501l23 -17l2 20l5 -6c3.33301 -4 10 -4.66699 20 -2l19 9c12.667 6 21 19 25 39l-14 135l9 37l-16 -43l-1 24.5c-0.666992 16.333 -1.66699 34.666 -3 54.999
s-3 39 -5 56s-4.33301 26.167 -7 27.5l4 -26.5c2.66699 -17.667 2 -28.5 -2 -32.5l-11 44.5c-7.33301 29.667 -23 56.5 -47 80.5l-2 8c-1.33301 5.33301 -1.33301 11 0 17c1.33301 4.66699 1.66602 4.83398 0.999023 0.500977l-1 -6.5l8 -11
c5.33301 -7.33301 13.333 -11 24 -11l50.5 -3c33.667 -2 56.834 -1.66699 69.501 1l20 -15.5c13.333 -10.333 19 -29.5 17 -57.5l-2 -35c-1.33301 -23.333 -2.33301 -49.166 -3 -77.499s-0.666992 -54.833 0 -79.5s3 -38.334 7 -41.001l1 12
c0.666992 8 2.33398 16.667 5.00098 26c0.666992 0.666992 2.33398 -5.33301 5.00098 -18s6.16699 -26.834 10.5 -42.501s9.66602 -29.834 15.999 -42.501s13.833 -19 22.5 -19l24 -7c16 -4.66699 29.333 -0.333984 40 12.999l-7.5 -13
c-5 -8.66699 -10.5 -14.334 -16.5 -17.001l7 -5c4.66699 -3.33301 9 -1.66602 13 5.00098l7 14l12 8l-9.5 -20c-6.33301 -13.333 -7.83301 -23.333 -4.5 -30h5.5c3.66699 0 6.83398 2 9.50098 6c2.66699 3.33301 2.16699 -1 -1.5 -13s-11.5 -14.333 -23.5 -7l1.5 -24.5
c1 -16.333 -4.5 -24.5 -16.5 -24.5l-53 7l-12 6.5c-8 4.33301 -19.667 16.166 -35 35.499l-8 -16c-5.33301 -10.667 -12.333 -22.167 -21 -34.5s-18.667 -23.5 -30 -33.5s-23.333 -15 -36 -15l-64 10l-58.5 30c-39 20 -68.5 46.333 -88.5 79l34 -9l-42.5 23
c-28.333 15.333 -48.166 56 -59.499 122l-7 35c-4.66699 23.333 -5 41.333 -1 54l-11 -41l-2.5 21.5c-1.66699 14.333 -3 31 -4 50s-1.66699 37.5 -2 55.5s0.833984 30.333 3.50098 37l-8 -13c-5.33301 -8.66699 -7 -15 -5 -19l-5.5 49
c-3.66699 32.667 -15.834 55.334 -36.501 68.001v0l-8 75l14 -69l-17 67l-42 19zM330.998 813.005c4 2.66699 7 10.835 9 24.502l3 20.5c6 -2 8.33301 -13.333 7 -34l-2 -31c0.666992 -10 -3.33301 -24.5 -12 -43.5l-13 -28.5c6.66699 4 12.834 12 18.501 24l8.5 18
c3.33301 -7.33301 0.166016 -18.833 -9.50098 -34.5s-16.5 -25.5 -20.5 -29.5c-0.666992 -0.666992 5.5 3.66602 18.5 12.999s21.833 20.333 26.5 33c0 -44.667 -12.5 -76.834 -37.5 -96.501l-37.5 -29.5c-18 -10.667 -36.167 -14.5 -54.5 -11.5l-27.5 4.5
c-14.667 -2 -32.167 -10.667 -52.5 -26l-30.5 -23c-17.333 -2.66699 -24.5 3.83301 -21.5 19.5l4.5 23.5c-8 8 -10 19.167 -6 33.5s9.83301 28.5 17.5 42.5s15.5 26.167 23.5 36.5l12 15.5c10 9.33301 24 11.5 42 6.5l27 -7.5c18 4 40.333 18.333 67 43z" />
  </font>
</defs>
</svg>
